<?xml version="1.0" encoding="utf-8"?>
<!-- Generator: Adobe Illustrator 27.9.3, SVG Export Plug-In . SVG Version: 9.03 Build 53313)  -->
<svg version="1.1" xmlns="http://www.w3.org/2000/svg" xmlns:xlink="http://www.w3.org/1999/xlink" x="0px" y="0px"
	 viewBox="0 0 530 265" style="enable-background:new 0 0 530 265;" xml:space="preserve">
<style type="text/css">
	.st0{fill:#312E37;}
	.st1{opacity:0.65;fill:#625E6D;}
	.st2{opacity:0.39;}
	.st3{fill:#FFFFFF;}
	.st4{fill:#0F032D;}
	.st5{fill:#F2A961;}
	.st6{fill:#775230;}
	.st7{fill:#22130C;}
	.st8{fill:#FFBD91;}
	.st9{fill:#F7AF61;}
	.st10{fill:#B73232;}
	.st11{fill:#E86810;}
	.st12{fill:#E9C40F;}
	.st13{fill:#0E0E3D;}
	.st14{fill:#E87210;}
	.st15{fill:#F85F75;}
	.st16{fill:#A554D0;}
	.st17{fill:#CE9755;}
</style>
<g id="Background">
	<rect class="st0" width="530" height="265"/>
</g>
<g id="Illustration">
	<g>
		<path class="st1" d="M437.3,117.8c8.1,12.5,27.3,5.3,42,15.5c11.4,7.9,22.1,27.4,14.7,81.3c-146,0.1-292.1,0.2-438.1,0.2
			C53,207,35.9,158.2,62,120.7c13.4-19.3,33-28.1,44.7-33.3c40.1-18,49.9,1,81.3-16.7c18.9-10.6,20.3-12.4,60.4-30.8
			c18.5-8.5,27.8-12.7,36.2-15.2C329,11.3,383.1,17.3,389.5,37c2.3,7-3.2,10.3-0.2,17c7.3,16.2,43.6,5.1,52.7,20.7
			C449.6,87.7,428.7,104.6,437.3,117.8z"/>
		<g class="st2">
			<g>
				<path class="st3" d="M419.6,121.7h-41.6V65.6h41.6V121.7z M378.6,121.2h40.6V66.1h-40.6V121.2z"/>
			</g>
			<g>
				<path class="st3" d="M418.2,119.7h-38.6V67.6h38.6V119.7z M380.1,119.2h37.6V68.1h-37.6V119.2z"/>
			</g>
		</g>
		<g class="st2">
			<g>
				<path class="st3" d="M210.4,95.9h-41.6V39.7h41.6V95.9z M169.3,95.4h40.6V40.2h-40.6V95.4z"/>
			</g>
			<g>
				<path class="st3" d="M208.9,93.8h-38.6V41.7h38.6V93.8z M170.8,93.3h37.6V42.2h-37.6V93.3z"/>
			</g>
		</g>
		<g class="st2">
			<g>
				<path class="st3" d="M457.4,82.9h-31.2V40.7h31.2V82.9z M426.6,82.4h30.2V41.2h-30.2V82.4z"/>
			</g>
			<g>
				<path class="st3" d="M456.3,81.3h-29V42.2h29V81.3z M427.8,80.8h28V42.7h-28V80.8z"/>
			</g>
		</g>
		<g class="st2">
			<g>
				<path class="st3" d="M106,136.6H74.8V94.4H106V136.6z M75.3,136.1h30.2V94.9H75.3V136.1z"/>
			</g>
			<g>
				<path class="st3" d="M104.9,135.1h-29V95.9h29V135.1z M76.4,134.6h28V96.4h-28V134.6z"/>
			</g>
		</g>
		<ellipse class="st0" cx="264.7" cy="233.2" rx="231.5" ry="16.5"/>
		<path class="st4" d="M167,53.1c3.4,4.3-2.4,13.7-2.8,14.4c-1,1.5-4.9,7.8-12.8,9.2c-7.2,1.3-12.7-2.4-15.2-4.1
			c-5.8-4-10.7-10.9-9-13.8c0.8-1.3,2.3-0.9,3-2.4c1.1-2.4-3.1-4.5-2.4-7.8c1.1-4.8,6.6-7.6,10.1-6.8c2.3,0.5,4.1,1.8,4.7,2.2
			c1.8,1.5,2.5,3,3,3.7C149.2,53.5,163,48,167,53.1z"/>
		<g>
			<path class="st4" d="M147.9,77.2c-5.8,0-10.3-3-12.3-4.4c-5.6-3.8-10.9-10.9-9.1-14.1c0.4-0.7,1-0.9,1.6-1.2
				c0.6-0.3,1.1-0.5,1.4-1.2c0.5-1-0.2-2.1-1-3.3c-0.8-1.3-1.8-2.7-1.4-4.5c1.1-4.8,6.6-7.9,10.4-7c2.2,0.5,4,1.7,4.8,2.3
				c1.5,1.3,2.3,2.6,2.8,3.4c0.1,0.1,0.2,0.3,0.2,0.4c1.8,2.8,6.3,2.7,10.7,2.7c4.3,0,8.7-0.1,10.7,2.5c3.5,4.4-2.2,13.7-2.8,14.7
				c-4.1,6.5-9.3,8.7-13,9.3C149.9,77.1,148.9,77.2,147.9,77.2z M136.2,42c-3.4,0-7.7,2.7-8.6,6.8c-0.3,1.5,0.5,2.8,1.3,4.1
				c0.8,1.3,1.6,2.4,1,3.7c-0.4,0.9-1.1,1.2-1.7,1.4c-0.5,0.2-1,0.4-1.3,1c-1.5,2.6,3,9.4,8.9,13.4c2.6,1.7,7.9,5.3,15,4
				c3.5-0.6,8.6-2.7,12.6-9.1c0.3-0.4,6.2-9.9,2.8-14.1c-1.9-2.4-6.2-2.3-10.3-2.3c-4.5,0.1-9.2,0.1-11.1-2.9
				c-0.1-0.1-0.2-0.2-0.2-0.4c-0.5-0.8-1.2-2.1-2.7-3.3c-0.1-0.1-2-1.6-4.6-2.2C137,42.1,136.6,42,136.2,42z"/>
		</g>
		<path class="st5" d="M265.4,70.8c1.4,7.6,2,11.3,0.3,14.3c-5.1,8.6-27.1,8.1-33.8-0.9c-1.7-2.2-1.6-3.9-4-6
			c-5.2-4.4-13.2,0.4-15.5-3c-1.3-1.9,1-3.7-0.1-6.5c-1.8-4.3-8.7-2.7-14.3-7.2c-4.1-3.2-7.4-9.6-5.8-13.8c2.9-7.7,23.8-11.5,37-3.5
			c6.6,4,7.9,9.1,16.2,11.3c7.3,1.9,11.4-0.7,15.4,2.8C263.6,60.7,264.2,64.1,265.4,70.8z"/>
		<g>
			<path class="st6" d="M249.3,92.6c-6.9,0-15-2.2-18.8-7.3c-0.7-0.9-1.1-1.7-1.5-2.5c-0.6-1.2-1.1-2.2-2.5-3.4
				c-2.6-2.3-6.1-2-9.2-1.7c-2.8,0.2-5.2,0.4-6.4-1.4c-0.8-1.2-0.5-2.3-0.2-3.3c0.3-1,0.6-2,0.1-3.2c-0.8-2.1-3.1-2.7-5.9-3.4
				c-2.6-0.7-5.6-1.4-8.3-3.6c-4.3-3.4-7.7-10-6-14.4c1-2.6,4-4.9,8.4-6.4c7.6-2.6,20.1-2.9,29.4,2.7c2.6,1.6,4.4,3.3,6.2,5
				c2.6,2.5,5,4.9,9.9,6.2c3.1,0.8,5.5,0.8,7.7,0.8c2.9,0,5.5,0,7.9,2.1c2.9,2.5,3.5,6,4.8,12.8l-0.5,0.1l0.5-0.1
				c1.4,7.7,2.1,11.5,0.3,14.6c-2.1,3.6-7.4,6-14.1,6.4C250.5,92.6,249.9,92.6,249.3,92.6z M220.4,76.5c2.3,0,4.8,0.4,6.8,2.1
				c1.5,1.3,2.1,2.5,2.7,3.7c0.4,0.7,0.7,1.5,1.4,2.4c3.9,5.2,12.7,7.2,19.7,6.8c6.4-0.3,11.3-2.5,13.3-5.9c1.6-2.8,1-6.5-0.4-13.9
				l0.5-0.1l-0.5,0.1c-1.2-6.6-1.8-10-4.4-12.2c-2.2-1.9-4.3-1.9-7.3-1.9c-2.2,0-4.8,0-8-0.8c-5.1-1.4-7.6-3.8-10.3-6.4
				c-1.7-1.7-3.4-3.4-6-4.9c-9-5.4-21.1-5.2-28.5-2.6c-4.1,1.4-6.9,3.5-7.8,5.9c-1.5,4,1.8,10.2,5.7,13.3c2.5,2,5.4,2.7,7.9,3.4
				c3,0.8,5.6,1.4,6.6,4c0.6,1.5,0.3,2.8,0,3.9c-0.3,1-0.5,1.7,0.1,2.5c0.9,1.3,3,1.1,5.5,0.9C218.3,76.6,219.4,76.5,220.4,76.5z"/>
		</g>
		<path class="st3" d="M364.8,56c-0.5,4.1-13.7,8.7-20.7,4.3c-1.7-1.1-3.2-2.8-5.2-2.5c-2.7,0.4-2.8,3.6-5.4,4.1
			c-1.4,0.3-2-0.6-8.5-4.4c-3.2-1.9-4-2.2-5-2.1c-2.6,0.2-3.6,2.4-5.5,2c-1.6-0.4-1.2-2.2-3.1-3.6c-3-2.2-6.8,0.4-8.6-1.7
			c-1.2-1.3,0-2.9-1.4-4.2c-1.5-1.5-3.6-0.3-4.9-1.6c-1-1.1-0.8-3.4-0.1-4.8c0.5-1,1.7-2.7,11.9-4.4c6.3-1.1,11.5-1.9,18.1-0.6
			c1.7,0.4,1.9,0.5,5.8,2.1c0,0,1.4,0.8,6.4,2.6c6.6,2.5,8.5-0.7,13.6,1.5c2,0.9,4.4,3.4,9.2,8.5C364.7,54.9,364.9,55.5,364.8,56z"
			/>
		<g>
			<path class="st3" d="M351.3,63c-2.7,0-5.3-0.5-7.4-1.8c-0.4-0.3-0.9-0.6-1.3-0.9c-1.2-0.9-2.3-1.7-3.8-1.5
				c-1.3,0.2-1.9,1.1-2.6,2c-0.7,0.9-1.4,1.9-2.8,2.1c-1.1,0.2-1.7-0.2-4.3-1.8c-1-0.6-2.5-1.5-4.4-2.6c-3.3-1.9-3.9-2.1-4.9-2.1
				c-1.2,0.1-2.1,0.6-2.9,1.1c-0.8,0.5-1.6,1.1-2.7,0.8c-1-0.2-1.3-0.9-1.7-1.6c-0.3-0.6-0.7-1.4-1.5-2c-1.5-1.1-3.1-0.9-4.7-0.8
				c-1.5,0.1-3,0.2-4-0.9c-0.6-0.7-0.7-1.5-0.7-2.2c0-0.7,0-1.4-0.7-2c-0.7-0.7-1.5-0.7-2.4-0.8c-0.9-0.1-1.8-0.1-2.5-0.9
				c-1.1-1.2-0.9-3.5-0.2-5c0.5-1,1.3-2.7,12.1-4.6c6.2-1,11.6-1.9,18.2-0.6c1.4,0.3,1.8,0.5,3.9,1.3c0.5,0.2,1.2,0.5,2,0.8
				c0,0,1.5,0.8,6.4,2.6c3.4,1.3,5.4,1,7.5,0.8c1.9-0.2,3.6-0.4,6.2,0.7c2.1,0.9,4.5,3.4,9.3,8.5c3.4,3.6,3.6,4.3,3.5,5
				c-0.2,1.4-1.8,3-4.4,4.2C358,62.2,354.6,63,351.3,63z M339.4,58.2c1.4,0,2.5,0.8,3.6,1.7c0.4,0.3,0.8,0.6,1.3,0.9
				c4.4,2.8,11.5,2,16.2-0.2c2.4-1.1,4-2.6,4.1-3.8c0.1-0.4-0.2-1.1-3.4-4.5c-4.8-5.1-7.2-7.6-9.2-8.4c-2.4-1-4.1-0.8-5.9-0.6
				c-2,0.2-4.2,0.5-7.7-0.8c-4.9-1.8-6.3-2.6-6.4-2.6c-0.8-0.3-1.4-0.6-1.9-0.8c-2-0.9-2.4-1-3.8-1.3c-6.6-1.3-11.6-0.5-18,0.6
				c-10.5,1.8-11.3,3.5-11.7,4.3c-0.7,1.4-0.8,3.5,0.1,4.5c0.5,0.6,1.3,0.6,2.1,0.7c0.9,0.1,1.9,0.1,2.7,0.9
				c0.8,0.8,0.8,1.6,0.8,2.3c0,0.7,0,1.3,0.6,1.9c0.8,0.9,2.1,0.8,3.6,0.7c1.6-0.1,3.4-0.3,5,0.9c1,0.7,1.4,1.5,1.7,2.2
				c0.4,0.7,0.6,1.2,1.3,1.4c0.8,0.2,1.5-0.2,2.3-0.7c0.8-0.5,1.8-1.1,3.1-1.2c1.1-0.1,1.9,0.3,5.1,2.2c1.9,1.1,3.3,2,4.4,2.6
				c2.4,1.5,3,1.9,3.9,1.7c1.2-0.2,1.8-1.1,2.5-1.9c0.7-1,1.5-1.9,3-2.2C339,58.2,339.2,58.2,339.4,58.2z"/>
		</g>
		<g>
			<rect x="82.9" y="153" class="st7" width="45.7" height="73.5"/>
			<g>
				<g>
					<g>
						<path class="st3" d="M105.8,193.1c-10.2,0-18.4-8.3-18.4-18.4c0-10.2,8.3-18.4,18.4-18.4c10.2,0,18.4,8.3,18.4,18.4
							C124.2,184.9,115.9,193.1,105.8,193.1z M105.8,156.8c-9.9,0-17.9,8-17.9,17.9c0,9.9,8,17.9,17.9,17.9c9.9,0,17.9-8,17.9-17.9
							C123.7,164.8,115.6,156.8,105.8,156.8z"/>
					</g>
					<g>
						<path class="st3" d="M105.8,190.7c-8.8,0-16-7.2-16-16c0-8.8,7.2-16,16-16c8.8,0,16,7.2,16,16
							C121.8,183.5,114.6,190.7,105.8,190.7z M105.8,159.2c-8.6,0-15.5,7-15.5,15.5c0,8.6,7,15.5,15.5,15.5c8.6,0,15.5-7,15.5-15.5
							C121.3,166.1,114.3,159.2,105.8,159.2z"/>
					</g>
					<g>
						<path class="st3" d="M105.8,184.2c-5.2,0-9.4-4.2-9.4-9.4c0-5.2,4.2-9.4,9.4-9.4c5.2,0,9.4,4.2,9.4,9.4
							C115.2,179.9,111,184.2,105.8,184.2z M105.8,165.8c-4.9,0-8.9,4-8.9,8.9c0,4.9,4,8.9,8.9,8.9s8.9-4,8.9-8.9
							C114.7,169.8,110.7,165.8,105.8,165.8z"/>
					</g>
				</g>
				<g>
					<g>
						<path class="st3" d="M105.8,223.3c-7.2,0-13.1-5.9-13.1-13.1c0-7.2,5.9-13.1,13.1-13.1c7.2,0,13.1,5.9,13.1,13.1
							C118.9,217.4,113,223.3,105.8,223.3z M105.8,197.6c-6.9,0-12.6,5.7-12.6,12.6c0,6.9,5.7,12.6,12.6,12.6
							c6.9,0,12.6-5.7,12.6-12.6C118.4,203.2,112.7,197.6,105.8,197.6z"/>
					</g>
					<g>
						<path class="st3" d="M105.8,221.6c-6.3,0-11.4-5.1-11.4-11.4c0-6.3,5.1-11.4,11.4-11.4c6.3,0,11.4,5.1,11.4,11.4
							C117.2,216.5,112.1,221.6,105.8,221.6z M105.8,199.2c-6,0-10.9,4.9-10.9,10.9c0,6,4.9,10.9,10.9,10.9s10.9-4.9,10.9-10.9
							C116.7,204.1,111.8,199.2,105.8,199.2z"/>
					</g>
					<g>
						<path class="st3" d="M105.8,216.9c-3.7,0-6.8-3-6.8-6.8c0-3.7,3-6.8,6.8-6.8s6.8,3,6.8,6.8
							C112.5,213.9,109.5,216.9,105.8,216.9z M105.8,203.9c-3.5,0-6.3,2.8-6.3,6.3s2.8,6.3,6.3,6.3c3.5,0,6.3-2.8,6.3-6.3
							S109.2,203.9,105.8,203.9z"/>
					</g>
				</g>
			</g>
		</g>
		<g id="_x31_4_1_">
			<g>
				<g>
					<path class="st8" d="M247.8,176.5c-0.2,2.6-0.5,7-0.4,13.1c0,1,0,2,0.1,3c0.1,2.2,0.2,4,0.3,5.3c-1.2-0.3-2.4-0.6-3.6-0.9
						c0-0.7,0-1.8,0-3.2c0-0.1,0-0.3,0-0.4c0-0.5-0.1-0.9-0.1-1.3c-1-11-5.5-15.7-5.8-24.7c-0.1-2.2,0.1-5.5,1.3-9.5
						c2.9-0.5,5.8-1,8.7-1.4C248.4,165,248.1,171.7,247.8,176.5z"/>
					<path class="st8" d="M248.8,204.7c-3,0-6.1,0-9.1-0.1c-0.2-0.3-0.4-0.8-0.3-1.3c0.2-0.9,1.3-1.2,1.9-1.6c1-0.6,2.2-1.8,2.9-4.8
						c1.2,0.1,2.4,0.2,3.5,0.4c0.4,1.3,0.7,2.6,1,3.8c0.2,0.7,0.4,1.6,0.3,2.7C248.9,204.2,248.8,204.5,248.8,204.7z"/>
					<path class="st3" d="M249.6,204.7c-3.4,0-6.8,0-10.3,0c-0.1-0.5-0.3-1.2,0-1.8c0.3-0.6,0.8-0.9,1.2-1.1
						c0.7-0.4,1.7-1.2,2.8-2.5c-0.1-1.5,0.8-2.7,1.9-2.9c1.3-0.3,3,0.9,3,2.8c0.3,0.8,0.6,1.4,0.7,1.9c0.5,1.4,0.6,1.9,0.6,2.3
						C249.7,203.9,249.7,204.3,249.6,204.7z"/>
					<path class="st7" d="M247.4,192.5c-1.1,0.4-2.2,0.8-3.4,1.2c0-0.1,0-0.3,0-0.4c0-0.5-0.1-0.9-0.1-1.3
						C245.1,192.1,246.3,192.3,247.4,192.5z"/>
					<path class="st5" d="M248.8,192c-2.3,0.3-4.6,0.5-6.8,0.8c-3.6-8.3-4.8-15.4-5.3-20c-0.9-8,0.2-12.4,1-14.7
						c0.7-2.1,1.5-3.8,2.2-5c4.1,0.8,8.3,1.5,12.4,2.3C251,167.5,249.9,179.7,248.8,192z"/>
					<g>
						<path class="st3" d="M242.6,190.9c0,0-0.1,0-0.1-0.1c-2.4-6-3.9-12.2-4.2-18.7c-0.3-4.8,0.1-9.7,1-14.5c0-0.1,0.1-0.1,0.1-0.1
							c0.1,0,0.1,0.1,0.1,0.1c-1,4.8-1.3,9.6-1,14.4c0.4,6.4,1.8,12.6,4.2,18.6C242.8,190.8,242.8,190.9,242.6,190.9
							C242.7,190.9,242.7,190.9,242.6,190.9z"/>
					</g>
				</g>
				<g>
					<path class="st9" d="M277.8,147.4c-2,2.2-6.7,6.8-14.3,9c-10,2.9-18.4-0.2-20.8-1.3c1.1-4.7,3.2-11.3,7.8-18.1
						c2.4-3.6,4.9-6.5,7.2-8.7c-2.2-5-4.3-10.3-6.3-15.9c-1.2-3.4-2.3-6.6-3.3-9.9c0,0,0-0.1,0-0.1c0.6-3.1,2.1-3.9,2.5-4.1
						c1.4-0.8,2.6-0.6,4.8-0.4c3.6,0.5,3.6-1.3,8.9-1.7c1.1-0.1,2.6-0.2,4.5,0c0,0,0.1,0.1,0.1,0.1c1.9,1.5,4.4,0.9,6.3,2.2
						c1,1.3,1.1,3.1,0.9,4.7c0,0.4-0.1,0.9-0.2,1.3c-1,4-1.1,11-1.9,16.7c-0.6,4.4-1.4,7.6,0,10.9c0.1,0.3,0.2,0.4,0.5,1
						c0.6,1.4,1.7,4.1,2.5,7.6C277.5,143.5,277.7,145.8,277.8,147.4z"/>
					<g>
						<g>
							<path class="st7" d="M275.2,135c-0.1,0-0.1,0-0.1-0.1c-0.2-0.6-0.5-1.2-0.8-1.9c-0.1-0.3-0.2-0.5-0.3-0.7
								c-0.1-0.1-0.1-0.2-0.2-0.3c-1.2-2.8-0.8-5.4-0.3-8.8c0.1-0.7,0.2-1.4,0.3-2.2c0.3-2.2,0.5-4.6,0.7-6.9c0.3-3.4,0.5-6.6,1.1-9
								c0-0.1,0.1-0.1,0.1-0.1c0.1,0,0.1,0.1,0.1,0.1c-0.5,2.4-0.8,5.6-1,9c-0.2,2.3-0.4,4.7-0.7,6.9c-0.1,0.8-0.2,1.5-0.3,2.2
								c-0.5,3.3-0.9,6,0.3,8.7c0.1,0.1,0.1,0.2,0.2,0.3c0.1,0.1,0.2,0.3,0.3,0.7c0.3,0.6,0.5,1.2,0.8,1.9
								C275.4,134.9,275.3,135,275.2,135C275.3,135,275.2,135,275.2,135z"/>
						</g>
					</g>
					<path class="st8" d="M277,109.3c0,2.3-1.8,4.1-4.1,4.1c-2.3,0-4.1-1.8-4.1-4.1c0-2.3,1.8-4.1,4.1-4.1
						C275.1,105.2,277,107,277,109.3z"/>
					<g>
						<g>
							<path class="st7" d="M272.9,113.5c-1.3,0-2.6-0.6-3.4-1.7c0-0.1,0-0.1,0-0.2c0.1,0,0.1,0,0.2,0c0.8,1,1.9,1.6,3.2,1.6
								c2.2,0,4-1.8,4-4c0-0.9-0.3-1.9-0.9-2.6c0-0.1,0-0.1,0-0.2c0.1,0,0.1,0,0.2,0c0.6,0.8,1,1.7,1,2.7
								C277.1,111.6,275.2,113.5,272.9,113.5z"/>
						</g>
					</g>
					<path class="st8" d="M264.2,109.3c0,2.3-1.8,4.1-4.1,4.1c-2.3,0-4.1-1.8-4.1-4.1c0-2.3,1.8-4.1,4.1-4.1
						C262.4,105.2,264.2,107,264.2,109.3z"/>
					<g>
						<g>
							<path class="st7" d="M260.1,113.5c-1.5,0-2.9-0.8-3.7-2.2c0-0.1,0-0.1,0-0.2c0.1,0,0.1,0,0.2,0c0.7,1.2,2,2,3.5,2
								c1.9,0,3.5-1.4,3.9-3.2c0-0.1,0.1-0.1,0.1-0.1c0.1,0,0.1,0.1,0.1,0.1C263.9,112.1,262.1,113.5,260.1,113.5z"/>
						</g>
					</g>
					<path class="st8" d="M277.4,103.2c-0.4,0-0.9,0-1.3,0c-9.3-0.3-18.7-0.6-28-0.8c0.2-1.2,0.7-2.8,2-4c2.3-2,4.9-1,7.1-2.5
						c1.4-1,2.7-3,2.7-8c0-1.6,0.1-3.3,0.1-4.9c0.9,1.1,2.3,2.6,4.3,3.7c0.9,0.5,1.7,0.9,2.5,1.1c-0.1,1.5-0.1,2.8,0,3.8
						c0.3,2.6,1.1,3.9,2,4.6c0,0,0.1,0.1,0.1,0.1c1.9,1.5,4.4,0.9,6.3,2.2c0.3,0.2,0.6,0.4,0.8,0.7
						C277.2,100.6,277.4,102.2,277.4,103.2z"/>
					<path class="st7" d="M266.7,91.7c-0.2,0-0.3,0-0.5,0c-1.7,0-3.1-1.3-3.1-2.8c0-0.9,0.5-1.7,1.2-2.2c0.9,0.5,1.7,0.9,2.5,1.1
						C266.6,89.4,266.6,90.6,266.7,91.7z"/>
					<path class="st8" d="M271.2,80.6c0.5,1.2,0.4,2.3,0.3,3.7c0,0.2-0.3,3.1-1.5,4.2c-0.4,0.4-0.9,0.6-0.9,0.6
						c-0.3,0.2-0.7,0.3-1,0.3c-0.4,0.1-3.7,0.5-6.8-1c-3.9-1.8-8.6-7.2-6.9-12.2c1-3.1,4-4.6,5.2-5.1c0.1-0.1,0.3-0.1,0.5-0.2
						c0,0,0.7-0.2,1.3-0.3c2.4-0.4,4,0.3,4,0.3c1.6,0.7,2.5,2.3,3.1,3.6c0.1,0.3,0.2,0.5,0.3,0.7c0.1,0.3,0.2,0.5,0.3,0.7
						c0.2,0.6,0.3,1,0.7,1.9C270.4,79.3,270.8,79.6,271.2,80.6z"/>
					<g>
						<path class="st8" d="M255.1,84.7c0.5,1.2,1.6,1.8,2.5,1.4c0.9-0.4,1.2-1.6,0.6-2.8c-0.5-1.2-1.6-1.8-2.5-1.4
							S254.6,83.5,255.1,84.7z"/>
						<g>
							<g>
								<path class="st7" d="M257.1,86.4c-0.4,0-0.9-0.2-1.3-0.5c-0.1,0-0.1-0.1,0-0.2c0-0.1,0.1-0.1,0.2,0c0.5,0.4,1.1,0.6,1.6,0.4
									c0.2-0.1,0.4-0.3,0.5-0.5c0-0.1,0.1-0.1,0.2,0c0.1,0,0.1,0.1,0,0.2c-0.2,0.3-0.4,0.5-0.7,0.6
									C257.5,86.3,257.3,86.4,257.1,86.4z"/>
							</g>
							<g>
								<path class="st7" d="M255.7,85.7C255.6,85.7,255.6,85.7,255.7,85.7c-0.3-0.2-0.4-0.5-0.6-0.8c0-0.1,0-0.1,0.1-0.2
									c0.1,0,0.1,0,0.2,0.1c0.1,0.2,0.3,0.5,0.5,0.7C255.8,85.5,255.8,85.6,255.7,85.7C255.7,85.7,255.7,85.7,255.7,85.7z"/>
							</g>
							<g>
								<path class="st7" d="M255,84.6c-0.1,0-0.1,0-0.1-0.1c-0.4-1.2-0.1-2.3,0.8-2.7c0.2-0.1,0.4-0.1,0.6-0.1
									c0.1,0,0.1,0.1,0.1,0.1c0,0.1-0.1,0.1-0.1,0.1c-0.2,0-0.4,0-0.5,0.1c-0.7,0.3-1,1.4-0.7,2.4C255.2,84.5,255.1,84.6,255,84.6
									C255.1,84.6,255,84.6,255,84.6z"/>
							</g>
						</g>
						<g>
							<path class="st7" d="M257.4,85C257.4,85,257.4,85,257.4,85l-1.7-1.6c0,0,0-0.1,0-0.2c0,0,0.1,0,0.2,0l1.6,1.6
								C257.6,84.9,257.6,84.9,257.4,85C257.5,85,257.5,85,257.4,85z"/>
						</g>
						<g>
							<path class="st7" d="M256.6,84.1c-0.1,0-0.1-0.1-0.1-0.1l0.1-0.8c0-0.1,0.1-0.1,0.1-0.1c0.1,0,0.1,0.1,0.1,0.1l-0.1,0.8
								C256.7,84,256.6,84.1,256.6,84.1z"/>
						</g>
					</g>
					<g>
						<g>
							<path class="st7" d="M260,81.6C260,81.6,260,81.6,260,81.6c-0.1-0.1-0.1-0.2-0.1-0.2c1-1.2,2.2-1.8,3-1.5
								c0.1,0,0.2,0.1,0.3,0.2l0.2-0.6c0-0.1,0.1-0.1,0.2-0.1c0.1,0,0.1,0.1,0.1,0.2l-0.3,0.8c0,0-0.1,0.1-0.1,0.1c0,0-0.1,0-0.1,0
								c-0.1-0.1-0.2-0.2-0.4-0.3C262.1,79.9,261,80.4,260,81.6C260.1,81.6,260.1,81.6,260,81.6z"/>
						</g>
					</g>
					<g>
						<g>
							<path class="st7" d="M266.9,79.2C266.9,79.2,266.9,79.2,266.9,79.2c-0.1,0-0.1-0.1-0.1-0.2c0.6-1.4,1.6-2.3,2.5-2.2
								c0.1,0,0.3,0.1,0.4,0.1l0.1-0.6c0-0.1,0.1-0.1,0.1-0.1c0.1,0,0.1,0.1,0.1,0.1l-0.1,0.8c0,0,0,0.1-0.1,0.1c0,0-0.1,0-0.1,0
								c-0.1-0.1-0.3-0.1-0.4-0.2c-0.7-0.1-1.6,0.7-2.2,2.1C267,79.2,267,79.2,266.9,79.2z"/>
						</g>
					</g>
					<g>
						<path class="st7" d="M258.7,79.8c0.5-0.4,1.3-0.8,2.3-1.2c0.9-0.3,1.6-0.5,2.2-0.6c0-0.1-0.1-0.2-0.2-0.4
							c-0.2-0.3-0.5-0.5-0.7-0.6c-0.7,0.3-1.2,0.5-1.6,0.7c-1,0.5-1.2,0.7-1.3,0.8C258.9,79,258.8,79.5,258.7,79.8z"/>
						<path class="st7" d="M262.6,76.9c0.1,0.1,0.2,0.2,0.4,0.4c0.2,0.3,0.4,0.6,0.3,0.7c0,0-0.3-0.3-0.4-0.4
							c-0.1-0.2-0.2-0.3-0.4-0.5c0,0-0.1-0.1-0.1-0.1L262.6,76.9z"/>
					</g>
					<g>
						<path class="st7" d="M268.5,74.4c0.1,0.3,0.2,0.5,0.3,0.7c-0.2,0.1-0.5,0.3-0.7,0.4c-0.8,0.5-1.4,1-1.8,1.4
							c-0.1-0.1-0.1-0.2-0.2-0.4c-0.1-0.4-0.1-0.7,0-0.9c0.6-0.4,1.2-0.6,1.6-0.8C268,74.6,268.3,74.5,268.5,74.4z"/>
						<path class="st7" d="M265.7,75.8c0,0.1,0,0.3,0.1,0.5c0.1,0.4,0.3,0.7,0.3,0.7c0,0-0.1-0.5-0.1-0.6c0-0.2-0.1-0.4-0.1-0.6
							c0-0.1,0-0.1,0-0.1L265.7,75.8z"/>
					</g>
					<path class="st7" d="M267,82.2c0.2-0.2,0.4-0.4,0.6-0.5c0.2-0.1,0.5-0.2,0.7-0.1c-0.2,0.2-0.4,0.4-0.6,0.5
						C267.5,82.1,267.3,82.2,267,82.2z"/>
					<path class="st10" d="M270.1,83.5c0.3,0.2,0,2.2-1.4,2.6c-1.1,0.3-2.4-0.6-2.4-1c0-0.1,0.1-0.1,0.3-0.3
						c0.6-0.6,0.5-1.3,0.9-1.5c0.1,0,0.3-0.1,0.5-0.2c0.1,0,0.2-0.1,0.2-0.1c0.3-0.2,0.3-0.3,0.4-0.3c0,0,0,0,0.1,0
						c0.2,0,0.8,0.3,0.8,0.3c0.1,0,0.2,0.1,0.3,0.2C269.9,83.4,270,83.4,270.1,83.5z"/>
					<path class="st7" d="M263.8,97.6c0.2,0.4,0.6,0.6,1,0.5c0.5-0.1,0.7-0.8,0.8-0.8L263.8,97.6z"/>
					<path class="st7" d="M265.9,98.9c0.1,0.1,0.3,0.2,0.5,0.3c0.7,0.3,1.4,0.3,1.8,0.2c1.6-0.2,3-0.5,3.5-0.6
						c-1.1,0.1-2.2,0.1-3.4,0.2L265.9,98.9z"/>
					<path class="st7" d="M263.8,98.9c-0.2,0.1-0.4,0.2-0.8,0.3c-1.1,0.3-2.1,0.3-2.7,0.2c-2.4-0.2-4.6-0.5-5.3-0.6
						c1.7,0.1,3.4,0.1,5.1,0.2L263.8,98.9z"/>
					<g>
						<path class="st7" d="M266.4,85.1c-0.8,0-1.5-0.2-1.9-0.3c-0.1,0-0.1-0.1-0.1-0.2c0-0.1,0.1-0.1,0.2-0.1
							c0.6,0.2,1.9,0.5,3.4,0.1c1-0.4,1.8-1,2.2-1.5c0-0.1,0.1-0.1,0.2,0c0.1,0,0.1,0.1,0,0.2c-0.4,0.5-1.2,1.2-2.3,1.5
							C267.5,85,266.9,85.1,266.4,85.1z"/>
					</g>
					<path class="st8" d="M248,78.3c-1.8,0.8-3.6,1.7-5.5,2.5c0,4.2,0.3,9.1,1.4,14.6c0.4,2.2,1,4.3,1.6,6.2
						c1.3,3.4,4.2,4.8,5.6,4.1c1.2-0.6,1.9-3.1,1.1-5.8C250.8,92.7,249.4,85.5,248,78.3z"/>
					<path class="st8" d="M257.6,58.7c-0.7-0.4-1.4-0.7-2-1.1c-5.5,7.9-9.4,14-11.2,16.7c-0.7,1-2.2,3.3-1.9,6
						c0,0.2,0.1,0.4,0.1,0.6c1.8,0.3,3.7,0.6,5.5,0.9c1.1-1.6,1.8-2.9,2.2-3.7c3.2-6.5,2.4-10.5,5.7-16.6
						C256.6,60.2,257.3,59.2,257.6,58.7z"/>
					<path class="st8" d="M291.2,85.9c0.9,1.8,1.7,3.6,2.6,5.4c-2.7,3.3-6.1,6.8-10.4,10.3c-1.8,1.4-3.5,2.7-5.2,3.8
						c-3.2,1.8-6.3,1-6.9-0.4c-0.6-1.2,0.5-3.6,2.9-5.1C279.9,95.2,285.5,90.5,291.2,85.9z"/>
					<g>
						<path class="st8" d="M260.8,59c-0.6,1.7-1.3,3.7-3.2,4.4c-2.4,0.9-4.9-0.8-5.1-1c0-0.4,0.1-0.9,0.2-1.4
							c1.3-4.8,6.8-8.3,8.4-7.3C262.3,54.6,261.1,58.3,260.8,59z"/>
						<path class="st7" d="M248.9,69.7c-0.2-0.1-0.6-0.3-1-0.7c-0.4-0.5-0.6-0.9-0.7-1.2c10.3-8.7,20.7-17.3,31-26
							c0.3-0.2,0.6-0.1,0.8,0.2c0.2,0.2,0.2,0.6,0,0.7C269,51.7,258.9,60.7,248.9,69.7z"/>
						<path class="st8" d="M260.8,58.3c-1.3,1.5-1.7,1.5-1.9,1.5c-0.6-0.1-0.6-0.6-1.3-1.1c-1.4-0.9-3,0.1-3.2-0.4
							c-0.5-0.9,3.5-5.4,6.5-4.4c0.6,0.2,1.5,0.7,1.7,1.5C262.7,56.1,262.1,56.8,260.8,58.3z"/>
					</g>
					<path class="st8" d="M281.2,66.7c0.7-0.3,1.4-0.5,2.1-0.8c4.1,8.7,7.2,15.1,9,18c0.6,0.9,2.2,3.5,1.7,6.5
						c-0.1,0.4-0.2,0.7-0.2,0.9c-2-0.2-4.1-0.3-6.1-0.5c-0.9-1.7-1.4-3.1-1.7-3.9c-2.3-6.8-1-10.7-3.5-17.2
						C282,68.3,281.5,67.3,281.2,66.7z"/>
					<path class="st8" d="M279,67.4c0.5,0.9,1.6,3,4,3.7c1.2,0.3,2.2,0.1,2.8,0c0-0.4,0-0.9-0.1-1.4c-0.6-5-5.9-9.2-7.4-8.3
						C277.3,61.9,278,65.3,279,67.4z"/>
					<path class="st7" d="M288.4,78.8c0.2-0.1,0.7-0.2,1.1-0.6c0.5-0.4,0.7-0.9,0.8-1.1c-9.1-9.9-18.2-19.9-27.4-29.8
						c-0.2-0.2-0.6-0.2-0.8,0.1c-0.2,0.2-0.2,0.5-0.1,0.7C270.9,58.3,279.7,68.5,288.4,78.8z"/>
					<path class="st8" d="M277.6,65.7c0.6,0.7,1.1,1.3,1.8,1.4c0.5,0,0.7-0.3,1.3-0.5c1.6-0.7,3,0.4,3.3,0c0.6-0.8-2.8-5.8-5.9-5.2
						c-0.7,0.1-1.6,0.5-1.9,1.3C275.9,63.5,276.7,64.6,277.6,65.7z"/>
					<path class="st3" d="M277.1,128.9c-8.4-0.2-16.8-0.3-25.3-0.5c-1.5-6.6-3-13.2-4.5-19.8c-2.4-1.6-4.7-3.2-7.1-4.8
						c3.4-4,6.9-8,10.3-12c0.9,1.3,1.8,2.5,2.7,3.8c1.5-0.1,3-0.3,4.5-0.4c1.2,0.5,3.2,1,5.7,1c2.2,0,3.9-0.5,5.1-0.9
						c1.3,0.7,2.7,1.4,4,2.2c2.3-0.8,4.6-1.7,6.9-2.5c0.8,4.7,1.7,9.5,2.5,14.2c-1.2,0.1-2.4,0.2-3.6,0.3
						C278,116.1,277.5,122.5,277.1,128.9z"/>
					<path class="st5" d="M268.9,71.2c-0.2,1.3-1.1,2.1-1.7,2.5c-1.2,1-2.1,1-3.7,1.6c-1.9,0.7-4.8,1.7-6,4
						c-0.9,1.8-0.4,3.5-1.2,3.8c-0.7,0.2-1.7-0.9-1.9-1.1c-1.8-2.1-2.7-6.3-0.9-9.6c2-3.9,6.3-4.6,9.3-5.1c2.8-0.5,4,0.1,4.5,0.5
						C268.2,68.5,269.1,69.8,268.9,71.2z"/>
					<path class="st7" d="M262.1,81c0,0.5-0.3,1-0.8,1c-0.4,0-0.8-0.4-0.8-1s0.3-1,0.8-1C261.8,80.1,262.1,80.5,262.1,81z"/>
					<path class="st7" d="M268.5,78.7c0,0.5-0.3,1-0.8,1c-0.4,0-0.8-0.4-0.8-1s0.3-1,0.8-1C268.2,77.7,268.5,78.1,268.5,78.7z"/>
				</g>
			</g>
			<rect x="252.8" y="196.5" class="st7" width="3" height="7.3"/>
			<rect x="290.6" y="195.7" class="st7" width="3" height="8"/>
			<g>
				<path class="st7" d="M215.5,202.9L215.5,202.9c-0.6,0-1.1-0.4-1.1-1v-78.2c0-0.5,0.4-1,1-1h0.1c0.5,0,1,0.4,1,1v78.2
					C216.4,202.4,216,202.9,215.5,202.9z"/>
				<path class="st7" d="M198.4,205.4l-0.1-0.2c-0.2-0.3-0.1-0.6,0.2-0.8l16-9.2c0.3-0.2,0.6-0.1,0.8,0.2l0.1,0.2
					c0.2,0.3,0.1,0.6-0.2,0.8l-16,9.2C198.9,205.7,198.6,205.6,198.4,205.4z"/>
				<path class="st7" d="M215.1,195.4l-0.1,0.2c-0.2,0.3-0.1,0.6,0.2,0.8l16,9.2c0.3,0.2,0.6,0.1,0.8-0.2l0.1-0.2
					c0.2-0.3,0.1-0.6-0.2-0.8l-16-9.2C215.5,195.1,215.2,195.2,215.1,195.4z"/>
			</g>
			<g>
				<polygon class="st11" points="287.6,127.6 258.5,127.4 258.3,142.8 287.4,143 				"/>
				<g>
					<path class="st7" d="M287.3,142.5l-28.8-0.2c-0.3,0-0.5,0.1-0.5,0.3l0,0.1c0,0.2,0.2,0.3,0.5,0.3l28.8,0.2
						c0.3,0,0.5-0.1,0.5-0.3l0-0.1C287.7,142.7,287.5,142.5,287.3,142.5z"/>
					<path class="st7" d="M287.5,127.2l-28.8-0.2c-0.3,0-0.5,0.1-0.5,0.3l0,0.1c0,0.2,0.2,0.3,0.5,0.3l28.8,0.2
						c0.3,0,0.5-0.1,0.5-0.3l0-0.1C287.9,127.4,287.7,127.2,287.5,127.2z"/>
				</g>
				<g>
					<g>
						<g>
							<path class="st3" d="M264,140.6l-0.7,0c-0.5,0-1,0.3-1,0.7l0,1c0,0.4,0.4,0.7,0.9,0.7l0.7,0c0.5,0,1-0.3,1-0.7l0-1
								C265,141,264.5,140.6,264,140.6z"/>
							<polygon class="st3" points="264.3,139.7 263.1,139.7 263,141 264.3,141 							"/>
						</g>
						<g>
							<path class="st3" d="M282.4,140.6l-0.7,0c-0.5,0-1,0.3-1,0.7l0,1c0,0.4,0.4,0.7,0.9,0.7l0.7,0c0.5,0,1-0.3,1-0.7l0-1
								C283.3,140.9,282.9,140.6,282.4,140.6z"/>
							<polygon class="st3" points="282.7,139.7 281.4,139.7 281.4,140.9 282.7,141 							"/>
						</g>
					</g>
					<g>
						<g>
							<path class="st3" d="M264.2,129.6l-0.7,0c-0.5,0-0.9-0.3-0.9-0.7l0-1c0-0.4,0.4-0.7,1-0.7l0.7,0c0.5,0,0.9,0.3,0.9,0.7l0,1
								C265.1,129.3,264.7,129.6,264.2,129.6z"/>
							<polygon class="st3" points="264.5,130.5 263.2,130.5 263.2,129.2 264.5,129.2 							"/>
						</g>
						<g>
							<path class="st3" d="M282.5,129.9l-0.7,0c-0.5,0-0.9-0.3-0.9-0.7l0-1c0-0.4,0.4-0.7,1-0.7l0.7,0c0.5,0,0.9,0.3,0.9,0.7l0,1
								C283.5,129.6,283.1,129.9,282.5,129.9z"/>
							<polygon class="st3" points="282.8,130.8 281.6,130.8 281.6,129.5 282.8,129.5 							"/>
						</g>
					</g>
				</g>
			</g>
			<path class="st7" d="M231.4,103.3l-23.9,33.3c-0.2,0.3-0.6,0.4-0.9,0.1l-0.1-0.1c-0.3-0.2-0.4-0.6-0.1-0.9l23.9-33.3
				c0.2-0.3,0.6-0.4,0.9-0.1l0.1,0.1C231.6,102.6,231.6,103,231.4,103.3z"/>
			<path class="st11" d="M254.3,107.8c-0.2,0.9-14.3-0.7-23.5-1.9c-9.5-1.3-23.7-3.7-23.6-4.6c0-0.5,4.2-0.7,23.9,0.8
				C250.4,106,254.4,107.3,254.3,107.8z"/>
			<g>
				<g>
					<path class="st7" d="M312.9,199.4c-0.6,0-1-0.5-1-1V95.6c0-0.6,0.5-1,1-1c0.6,0,1,0.5,1,1v102.8
						C313.9,199,313.4,199.4,312.9,199.4z"/>
					<path class="st7" d="M295.9,202.4l-0.1-0.2c-0.2-0.3-0.1-0.7,0.2-0.9l16-11c0.3-0.2,0.6-0.1,0.8,0.2l0.1,0.2
						c0.2,0.3,0.1,0.7-0.2,0.9l-16,11C296.3,202.8,296,202.7,295.9,202.4z"/>
					<path class="st7" d="M312.5,190.5l-0.1,0.2c-0.2,0.3-0.1,0.7,0.2,0.9l16,11c0.3,0.2,0.6,0.1,0.8-0.2l0.1-0.2
						c0.2-0.3,0.1-0.7-0.2-0.9l-16-11C313,190.1,312.6,190.2,312.5,190.5z"/>
				</g>
				<path class="st11" d="M332.8,88.5c0.5,1.2-11.8,7.4-20,11.1c-8.5,3.8-21.4,9-21.9,7.9c-0.3-0.6,2.8-3.2,19.5-12.7
					C328.5,88.5,332.5,87.9,332.8,88.5z"/>
			</g>
			<g>
				<path class="st7" d="M299.2,202.7h-0.4c-0.5,0-0.8-0.4-0.8-0.8v-69.4c0-0.5,0.4-0.8,0.8-0.8h0.4c0.5,0,0.8,0.4,0.8,0.8v69.4
					C300.1,202.4,299.7,202.7,299.2,202.7z"/>
				<path class="st7" d="M282.1,204.8l-0.1-0.1c-0.2-0.2-0.1-0.5,0.2-0.6l16-7.5c0.3-0.1,0.6,0,0.8,0.2l0.1,0.1
					c0.2,0.2,0.1,0.5-0.2,0.6l-16,7.5C282.5,205,282.2,205,282.1,204.8z"/>
				<path class="st7" d="M298.7,196.7l-0.1,0.1c-0.2,0.2-0.1,0.5,0.2,0.6l16,7.5c0.3,0.1,0.6,0,0.8-0.2l0.1-0.1
					c0.2-0.2,0.1-0.5-0.2-0.6l-16-7.5C299.2,196.4,298.8,196.5,298.7,196.7z"/>
			</g>
			<g>
				<polygon class="st3" points="213.8,160.7 213.6,160.7 218.1,136.3 218.3,136.3 				"/>
			</g>
			<g>
				<polygon class="st3" points="236.2,163 236,163 239.8,140.6 240,140.6 				"/>
			</g>
			<g>
				<polygon class="st3" points="263.5,140.6 263.2,140.6 263.5,136 263.8,136.1 				"/>
			</g>
			<g>
				<rect x="281.9" y="136.7" class="st3" width="0.2" height="6.5"/>
			</g>
			<g>
				
					<ellipse transform="matrix(0.2328 -0.9725 0.9725 0.2328 40.1806 398.9667)" class="st12" cx="272.9" cy="174" rx="30.1" ry="30.1"/>
				<circle class="st7" cx="272.9" cy="174" r="27.6"/>
			</g>
			<g>
				<g>
					<path class="st3" d="M261,177.2c0.5-0.3,1.9-1.7,2.5-1.7c1.7,0.1,0.2,0.4,0.7,0.8c0.5,0.5-0.2,0.5,0.8,0.6
						c0.8,0.1,2.1-1,2.7-1.3c0.7-0.4,2.3-1.6,2.3,0.3c0-0.2-0.4,0.9-0.4,0.8c-0.1,0.3,0.3,0.4,0.4,0.1c0.2-0.6,1.5-1.7,0.7-2.4
						c-0.7-0.7-2.3,0.3-3,0.6c-0.9,0.5-2.2,1.5-3,0.6c-0.1-0.1,0-0.5-0.2-0.7c-0.8-0.8-3.1,1.5-3.6,1.8
						C260.5,176.9,260.8,177.3,261,177.2L261,177.2z"/>
				</g>
				<g>
					<path class="st3" d="M270.2,177c0.6-0.7,1.5-2.1,2.3-2.6c0.5-1,1-0.9,1.5,0.4c-0.1,0.3-0.2,0.5-0.3,0.8c-0.1,1-0.6,2-0.7,2.9
						c-0.1,0.8-0.1,1.5-0.1,2.3c0,0.2,0.2,0.3,0.4,0.2c3-3,5.7-6.2,8-9.8c0.2-0.2-0.2-0.5-0.4-0.2c-1.6,2.5-3.4,4.9-5.4,7.1
						c-0.4,0.5-0.9,1-1.3,1.4c-1.1,1-0.4,0.6-0.7,0.1c-0.8-1,1.1-4.2,1.3-5.2c0.1-0.6,0.3-1.4-0.5-1.7c-1.4-0.4-3.5,3.1-4.2,3.9
						C269.7,176.9,270,177.2,270.2,177L270.2,177z"/>
				</g>
				<g>
					<path class="st3" d="M281.2,171.1c-0.8,2.2-1.5,4.4-2.3,6.6c-0.2,0.5-1,1.8-0.3,2.3c1.2,1,2.7-2.2,2.9-2.8
						c1.1-2.2,3.7-5.8,2.9-8.5c-0.8-2.3-3-1.9-4.7-1c-0.3,0.1,0,0.5,0.2,0.4c2-1.1,4.6-0.2,4.1,2.6c-0.2,1-0.8,2-1.2,2.9
						c-0.7,1.4-1.3,2.9-2.1,4.3c-0.1,0.2-1.4,2.1-1.8,1.3c-0.1-0.2,0.8-2.4,0.9-2.7c0.6-1.8,1.2-3.5,1.8-5.3
						C281.7,170.9,281.3,170.8,281.2,171.1L281.2,171.1z"/>
				</g>
			</g>
			<g>
				<g>
					
						<rect x="241.3" y="116.8" transform="matrix(0.9699 0.2437 -0.2437 0.9699 38.3341 -58.0536)" class="st11" width="25" height="18.1"/>
					<g>
						<path class="st7" d="M267.9,120.7l-24-6c-0.2-0.1-0.3-0.3-0.3-0.5l0-0.1c0.1-0.2,0.3-0.3,0.5-0.3l24,6
							c0.2,0.1,0.3,0.3,0.3,0.5l0,0.1C268.3,120.6,268.1,120.8,267.9,120.7z"/>
						<path class="st7" d="M263.5,138.2l-24-6c-0.2-0.1-0.3-0.3-0.3-0.5l0-0.1c0.1-0.2,0.3-0.3,0.5-0.3l24,6
							c0.2,0.1,0.3,0.3,0.3,0.5l0,0.1C263.9,138.1,263.7,138.2,263.5,138.2z"/>
					</g>
					<g>
						<g>
							<g>
								<path class="st3" d="M248,117.8l-0.6-0.1c-0.4-0.1-0.7-0.6-0.6-1l0.3-1.1c0.1-0.4,0.6-0.7,1-0.6l0.6,0.1
									c0.4,0.1,0.7,0.6,0.6,1l-0.3,1.1C248.9,117.6,248.4,117.9,248,117.8z"/>
								
									<rect x="247.1" y="117.3" transform="matrix(0.9699 0.2437 -0.2437 0.9699 36.2348 -56.7884)" class="st3" width="1.1" height="1.5"/>
							</g>
							<g>
								<path class="st3" d="M263.3,121.8l-0.6-0.1c-0.4-0.1-0.7-0.6-0.6-1l0.3-1.1c0.1-0.4,0.6-0.7,1-0.6l0.6,0.1
									c0.4,0.1,0.7,0.6,0.6,1l-0.3,1.1C264.1,121.6,263.7,121.9,263.3,121.8z"/>
								
									<rect x="262.4" y="121.3" transform="matrix(0.9699 0.2437 -0.2437 0.9699 37.6724 -60.3852)" class="st3" width="1.1" height="1.5"/>
							</g>
						</g>
						<g>
							<g>
								<path class="st3" d="M244.8,130.4l-0.6-0.1c-0.4-0.1-0.9,0.2-1,0.6L243,132c-0.1,0.4,0.2,0.9,0.6,1l0.6,0.1
									c0.4,0.1,0.9-0.2,1-0.6l0.3-1.1C245.5,131,245.3,130.5,244.8,130.4z"/>
								
									<rect x="244.1" y="129.2" transform="matrix(0.9699 0.2437 -0.2437 0.9699 39.0492 -55.693)" class="st3" width="1.1" height="1.5"/>
							</g>
							<g>
								<path class="st3" d="M260.2,134.1l-0.6-0.1c-0.4-0.1-0.9,0.2-1,0.6l-0.3,1.1c-0.1,0.4,0.2,0.9,0.6,1l0.6,0.1
									c0.4,0.1,0.9-0.2,1-0.6l0.3-1.1C260.9,134.6,260.6,134.2,260.2,134.1z"/>
								
									<rect x="259.4" y="132.9" transform="matrix(0.9699 0.2437 -0.2437 0.9699 40.4115 -59.3252)" class="st3" width="1.1" height="1.5"/>
							</g>
						</g>
					</g>
				</g>
				<g>
					<polygon class="st3" points="244.3,131 244.1,131 247.5,118.4 247.7,118.4 					"/>
				</g>
				<g>
					<polygon class="st3" points="259.8,134.5 259.6,134.4 262.9,121.8 263.2,121.9 					"/>
				</g>
			</g>
			<g>
				<g>
					
						<rect x="278.7" y="118.9" transform="matrix(0.9699 -0.2437 0.2437 0.9699 -22.72 75.3722)" class="st11" width="29.2" height="21.1"/>
					<g>
						<path class="st7" d="M309.7,135.6l-28,7c-0.2,0.1-0.4,0.3-0.3,0.6l0,0.1c0.1,0.2,0.3,0.4,0.6,0.3l28-7
							c0.2-0.1,0.4-0.3,0.3-0.6l0-0.1C310.2,135.7,309.9,135.5,309.7,135.6z"/>
						<path class="st12" d="M304.6,115.3l-28,7c-0.2,0.1-0.4,0.3-0.3,0.6l0,0.1c0.1,0.2,0.3,0.4,0.6,0.3l28-7
							c0.2-0.1,0.4-0.3,0.3-0.6l0-0.1C305.1,115.3,304.8,115.2,304.6,115.3z"/>
					</g>
					<g>
						<g>
							<g>
								<path class="st3" d="M286.5,139l-0.6,0.2c-0.5,0.1-0.8,0.6-0.7,1.2l0.3,1.3c0.1,0.5,0.6,0.8,1.2,0.7l0.6-0.2
									c0.5-0.1,0.8-0.6,0.7-1.2l-0.3-1.3C287.5,139.2,287,138.9,286.5,139z"/>
								
									<rect x="285.5" y="137.8" transform="matrix(0.9699 -0.2437 0.2437 0.9699 -25.163 73.8873)" class="st3" width="1.3" height="1.7"/>
							</g>
							<g>
								<path class="st3" d="M304.3,134.3l-0.6,0.2c-0.5,0.1-0.8,0.6-0.7,1.2l0.3,1.3c0.1,0.5,0.6,0.8,1.2,0.7l0.6-0.2
									c0.5-0.1,0.8-0.6,0.7-1.2l-0.3-1.3C305.3,134.5,304.8,134.2,304.3,134.3z"/>
								
									<rect x="303.2" y="133.1" transform="matrix(0.9699 -0.2437 0.2437 0.9699 -23.4882 78.0782)" class="st3" width="1.3" height="1.7"/>
							</g>
						</g>
						<g>
							<g>
								<path class="st3" d="M282.8,124.3l-0.6,0.2c-0.5,0.1-1-0.2-1.2-0.7l-0.3-1.3c-0.1-0.5,0.2-1,0.7-1.2l0.6-0.2
									c0.5-0.1,1,0.2,1.2,0.7l0.3,1.3C283.6,123.6,283.3,124.1,282.8,124.3z"/>
								
									<rect x="282" y="123.9" transform="matrix(0.9699 -0.2437 0.2437 0.9699 -21.8802 72.6224)" class="st3" width="1.3" height="1.7"/>
							</g>
							<g>
								<path class="st3" d="M300.7,120l-0.6,0.2c-0.5,0.1-1-0.2-1.2-0.7l-0.3-1.3c-0.1-0.5,0.2-1,0.7-1.2l0.6-0.2
									c0.5-0.1,1,0.2,1.2,0.7l0.3,1.3C301.5,119.3,301.2,119.9,300.7,120z"/>
								
									<rect x="299.8" y="119.6" transform="matrix(0.9699 -0.2437 0.2437 0.9699 -20.2978 76.849)" class="st3" width="1.3" height="1.7"/>
							</g>
						</g>
					</g>
				</g>
				<g>
					<polygon class="st3" points="286.5,140.4 282.5,124.8 282.7,124.7 286.7,140.3 					"/>
				</g>
				<g>
					
						<rect x="301.8" y="119.9" transform="matrix(0.9694 -0.2455 0.2455 0.9694 -22.1062 78.045)" class="st3" width="0.2" height="15.6"/>
				</g>
			</g>
			<g>
				<path class="st7" d="M264.1,137.3c-0.1,0-0.1-0.1-0.1-0.2l2.3-9.7c0-0.1,0.1-0.1,0.2-0.1c0.1,0,0.1,0.1,0.1,0.1l-2.3,9.7
					C264.2,137.3,264.1,137.3,264.1,137.3z"/>
			</g>
			<g>
				<path class="st7" d="M281.1,141.1c-0.1,0-0.1,0-0.1-0.1l-3.2-12.8c0-0.1,0-0.1,0.1-0.2c0.1,0,0.1,0,0.2,0.1l3.2,12.8
					C281.3,141,281.2,141.1,281.1,141.1C281.1,141.1,281.1,141.1,281.1,141.1z"/>
			</g>
			<g>
				<path class="st7" d="M226.2,203.5c-0.6,0-1-0.5-1-1v-37.5c0-0.6,0.5-1,1-1c0.6,0,1,0.5,1,1v37.5
					C227.2,203.1,226.7,203.5,226.2,203.5z"/>
				<path class="st7" d="M209.2,207.2l-0.1-0.2c-0.2-0.4-0.1-0.9,0.2-1.1l16-13.3c0.3-0.2,0.6-0.1,0.8,0.3l0.1,0.2
					c0.2,0.4,0.1,0.9-0.2,1.1l-16,13.3C209.7,207.7,209.3,207.5,209.2,207.2z"/>
				<path class="st7" d="M225.8,192.8l-0.1,0.2c-0.2,0.4-0.1,0.9,0.2,1.1l16,13.3c0.3,0.2,0.6,0.1,0.8-0.3l0.1-0.2
					c0.2-0.4,0.1-0.9-0.2-1.1l-16-13.3C226.3,192.3,225.9,192.4,225.8,192.8z"/>
			</g>
			<g>
				
					<rect x="209.5" y="132.6" transform="matrix(0.9838 0.1791 -0.1791 0.9838 30.4235 -38.2516)" class="st11" width="35.1" height="33.5"/>
				<g>
					<path class="st12" d="M246.7,137l-33.7-6.1c-0.4-0.1-0.7-0.5-0.7-0.9s0.5-0.7,0.9-0.7l33.7,6.1c0.4,0.1,0.7,0.5,0.7,0.9
						S247.1,137.1,246.7,137z"/>
					<path class="st7" d="M240.8,169.7l-33.7-6.1c-0.4-0.1-0.7-0.5-0.7-0.9c0.1-0.4,0.5-0.7,0.9-0.7l33.7,6.1
						c0.4,0.1,0.7,0.5,0.7,0.9C241.6,169.5,241.2,169.8,240.8,169.7z"/>
				</g>
				<g>
					<g>
						<g>
							<path class="st3" d="M218.6,135.7l-0.5-0.1c-0.7-0.1-1.2-0.8-1-1.5l0.4-2.4c0.1-0.7,0.8-1.2,1.5-1l0.5,0.1
								c0.7,0.1,1.2,0.8,1,1.5l-0.4,2.4C219.9,135.3,219.3,135.8,218.6,135.7z"/>
							
								<rect x="217.4" y="134.9" transform="matrix(0.9838 0.1791 -0.1791 0.9838 27.9305 -36.8667)" class="st3" width="1.5" height="2.8"/>
						</g>
						<g>
							<path class="st3" d="M240.3,140l-0.5-0.1c-0.7-0.1-1.2-0.8-1-1.5l0.4-2.4c0.1-0.7,0.8-1.2,1.5-1l0.5,0.1
								c0.7,0.1,1.2,0.8,1,1.5l-0.4,2.4C241.7,139.6,241,140.1,240.3,140z"/>
							
								<rect x="239.2" y="139.2" transform="matrix(0.9838 0.1791 -0.1791 0.9838 29.0505 -40.6912)" class="st3" width="1.5" height="2.8"/>
						</g>
					</g>
					<g>
						<g>
							<path class="st3" d="M214.3,159.3l-0.5-0.1c-0.7-0.1-1.4,0.3-1.5,1l-0.4,2.4c-0.1,0.7,0.3,1.4,1,1.5l0.5,0.1
								c0.7,0.1,1.4-0.3,1.5-1l0.4-2.4C215.4,160.1,215,159.5,214.3,159.3z"/>
							
								<rect x="213.4" y="157.3" transform="matrix(0.9838 0.1791 -0.1791 0.9838 31.8693 -35.779)" class="st3" width="1.5" height="2.8"/>
						</g>
						<g>
							<path class="st3" d="M236.1,163l-0.5-0.1c-0.7-0.1-1.4,0.3-1.5,1l-0.4,2.4c-0.1,0.7,0.3,1.4,1,1.5l0.5,0.1
								c0.7,0.1,1.4-0.3,1.5-1l0.4-2.4C237.3,163.8,236.8,163.1,236.1,163z"/>
							
								<rect x="235.2" y="160.9" transform="matrix(0.9838 0.1791 -0.1791 0.9838 32.8738 -39.6297)" class="st3" width="1.5" height="2.8"/>
						</g>
					</g>
				</g>
			</g>
		</g>
		<g>
			<g>
				<g>
					<rect x="197.2" y="204.7" class="st3" width="144" height="9"/>
					<rect x="152.2" y="212.7" class="st3" width="234" height="9"/>
				</g>
				<g>
					<path class="st7" d="M341.2,212.9h-144c-0.1,0-0.1-0.1-0.1-0.1s0.1-0.1,0.1-0.1h144c0.1,0,0.1,0.1,0.1,0.1
						S341.3,212.9,341.2,212.9z"/>
				</g>
			</g>
			<g>
				<path class="st7" d="M386.2,221.9h-234c-0.1,0-0.1-0.1-0.1-0.1s0.1-0.1,0.1-0.1h234c0.1,0,0.1,0.1,0.1,0.1
					S386.3,221.9,386.2,221.9z"/>
			</g>
		</g>
		<g id="_x31_0_2_">
			<g>
				<g>
					<path class="st8" d="M153.4,179.1c0,0.3,0,0.7-0.1,1c-0.9,5.3-4.2,8.5-6.3,8.2c-2.2-0.3-4.7-4.6-3.8-10.5
						c-2.2-6.8-5.1-19.4-2.5-34.7c1.3-7.9,3.8-14.3,6-19.1l13.8,15.8c-2.1,12.7-3.8,19.6-5,23.6c-0.4,1.2-1.5,4.9-2,9.8
						C153.4,175.6,153.4,177.6,153.4,179.1z"/>
					<path class="st8" d="M146.2,227.1c-1.8-0.1-3.6-0.1-5.4-0.2c0.1-1.3,0.1-3.4,0.1-6c-0.3-13-3-17.7-2.3-25.5
						c0.3-3.2,1.3-7.9,4.6-13.5c3.4-0.8,6.9-1.6,10.3-2.4c-1.2,5.3-2.4,10.8-3.4,16.6C148.1,207.2,146.9,217.5,146.2,227.1z"/>
					<path class="st8" d="M147.1,232.3c0,0.1,0.1,0.4,0,0.7c-0.2,0.6-0.7,1.1-1.4,1.1h-9.6c-0.1-0.3-0.1-0.7,0-1.1
						c0.3-0.9,1.2-1.3,1.6-1.5c0.9-0.5,2.1-1.7,3-5c1.8,0.2,3.6,0.3,5.4,0.5C146.6,229.6,146.9,231.4,147.1,232.3z"/>
					<path class="st8" d="M195.9,234.1c-7.1,0-14.3,0-21.4,0.1c-0.2-0.8-0.4-2,0.1-3.3c0.2-0.5,0.4-0.8,0.5-1
						c0.6-0.9,1.2-2.4,1.6-5.1c1.3-0.1,2.6-0.3,3.9-0.4c4.9,6.6,7.7,7.9,9.3,7.8c1.2-0.1,2.3,0.6,3.4,0.6c0.7,0,1.7-0.1,2.2,0.5
						C195.8,233.5,195.8,233.9,195.9,234.1z"/>
					<path class="st8" d="M177.7,177.4c-0.5,2.8-1.7,9.2-4.2,9.5c-2.9,0.3-5.8-8-6.2-9.3c-3.7-6.1-10.4-47.9-9.4-53.1
						c5.2,3,10.3,6,15.5,8.9C180,155.9,179.1,169.8,177.7,177.4z"/>
					<path class="st8" d="M181.5,225.5c-1.6,0.1-3.2,0.3-4.9,0.4c-0.3-1.3-0.7-3.3-1.4-5.8c-3.4-12.7-7.1-16.6-8.3-24.2
						c-0.5-3.4-0.7-8.6,1.5-15.3c3.1-1.2,6.1-2.4,9.2-3.7c0.1,5.5,0.3,11.1,0.6,17C178.9,205.1,180.1,215.7,181.5,225.5z"/>
					<path class="st13" d="M174.1,224c2.3-0.2,4.7-0.5,7-0.7c1.5-17.6,1.8-38.5-1.3-61.8c-1.2-9.6-2.9-18.5-4.8-26.8
						c-5.7,1.6-11.3,3.2-17,4.8c2.7,14.3,5.5,28.6,8.2,42.9c-0.4,2.4-0.7,5.1-0.8,7.8C165,204.8,170,216.6,174.1,224z"/>
					<path class="st13" d="M139.3,224.2c3.3,0,6.7,0,10,0c2-14.2,3.9-28.4,5.9-42.6c1.7-13.1,3.4-26.2,5.2-39.4
						c1.7-1.6,3.3-3.2,5-4.8c-7.6-0.6-15.2-1.2-22.8-1.9c-1.7,6.7-3.3,15.6-3.2,26.1c0.1,6.8,0.9,12.8,1.9,17.9
						c-1,2.6-1.8,5.4-2.5,8.4C135.3,202.5,137,215.4,139.3,224.2z"/>
					<path class="st8" d="M146.1,124.4c-0.9,10.3,5.1,18.4,11.2,19.2c6.8,1,16.1-7,15.8-19.2c-0.2-4.6-0.4-9.2-0.5-13.7
						c0.7-1.3,1.4-2.7,2-4.1c4.1-9.4,5.5-18.4,5.8-26c-3.9-1.7-10.8-4.2-19.8-4.1c-9.1,0.1-16.1,2.7-19.9,4.5c0.3,6.3,1.3,13.8,4,22
						c0.8,2.4,1.6,4.7,2.5,6.8C146.8,114.6,146.5,119.5,146.1,124.4z"/>
					<path class="st7" d="M161.9,83.7c-0.5,1-1.4,1.4-2.1,1.1c-0.5-0.2-0.7-0.9-0.7-1L161.9,83.7z"/>
					<path class="st7" d="M173.7,83.6c-0.7,0.5-1.8,1.1-3.3,1.4c-2.4,0.5-4.4-0.3-5.2-0.6L173.7,83.6z"/>
					<path class="st7" d="M155.6,84.5c-0.7,0.3-2,0.7-3.5,0.7c-2.5,0-4.3-1.2-5-1.7L155.6,84.5z"/>
					<path class="st8" d="M152.9,79.8l12.5-2.3c-1.4-5-2.9-9.9-4.3-14.9l-9.9,1.8c0.4,0.7,0.8,1.5,1.1,2.6c0.6,1.6,1.1,3.7,1.3,6.1
						c0,0.4,0,0.8,0,1.1C153.6,76.5,153.2,78.5,152.9,79.8z"/>
					<path class="st7" d="M153.6,74.2c0.1,0,0.1,0,0.2,0c2.1-0.4,3.4-3.3,2.8-6.5c-0.1-0.5-0.2-1-0.4-1.4l-3.9,0.7
						c0.6,1.6,1.1,3.7,1.3,6.1C153.6,73.5,153.6,73.9,153.6,74.2z"/>
					<path class="st8" d="M146,65.1c0.4,3.2,0.6,4.8,1.6,5.9c2.6,2.8,9.1,0.7,11.2-1.2c1-0.9,1.8-2,1.8-2c0.4-0.7,0.7-1.3,0.9-1.8
						c0.4-1.2,0.9-2.8,1-4.7c0.3-3.2-0.2-5.9-0.7-7.6c-1-0.7-3.7-2.6-7.7-2.7c-3.6-0.1-6.3,1.3-7.3,1.9c-0.1,1-0.3,2.2-0.4,3.6
						c0,0.3,0,0.7-0.1,1c0,0.1,0,0.2,0,0.3c0,0.2,0,0.5,0,0.8l0,0.2c-0.1,0.8-0.1,1.4-0.1,1.8c0,0.7,0.1,0.8,0.1,1.3
						c-0.1,0.7-0.2,0.9-0.4,1.6C145.9,64.1,145.9,64.5,146,65.1z"/>
					<path class="st7" d="M155.3,58.5c0,0-0.4-0.1-0.8-0.2c-0.6-0.1-1.9,0.1-3.6,0.5c-0.1-0.1-0.3-0.4-0.3-0.9
						c0-0.4,0.1-0.7,0.2-0.8c1.1,0.1,2,0,2.5,0c0.2,0,0.9-0.1,1.6,0.1c0.4,0.1,0.5,0.2,0.6,0.3c0.5,0.4,0.6,1.1,0.6,1.3
						C156,58.8,155.7,58.7,155.3,58.5z"/>
					<path class="st7" d="M146.4,57.8c0.6-0.1,1.5-0.1,2.4-0.2c0-0.2,0.2-0.5,0-1c-0.1-0.4-0.3-0.6-0.4-0.7c-0.8,0.3-1.5,0.4-2,0.5
						c0,0.3,0,0.7-0.1,1C146.4,57.6,146.4,57.7,146.4,57.8z"/>
					<path class="st7" d="M149.6,64.9c-0.1,0-0.6,0.3-1.2,0.1c-0.4-0.1-0.6-0.4-0.7-0.5L149.6,64.9z"/>
					<path class="st3" d="M147.6,67.2c-0.2,0.4,0.5,1.2,1.3,1.4c0.2,0.1,1.1,0.4,1.5-0.1c0.3-0.4,0.2-1-0.1-1.4
						c-0.3-0.4-0.9-0.4-1.3-0.4C148.7,66.8,147.7,66.8,147.6,67.2z"/>
					<g>
						<path class="st8" d="M174.6,79.1c0.2,5.7,0.5,11.4,0.7,17.1c0.8,1.6,1.6,3.2,2.5,4.7c0.6,1.2,1.2,2.4,1.9,3.6
							c1.6,3.1,3.2,6.2,4.8,9.2l7.3-2.6c-1.1-3.9-2.2-7.4-3.2-10.3c-0.4-1.2-0.8-2.2-1.1-3.2c-5.2-14.7-8.2-17.9-11.4-18.5
							C175.5,79.1,174.9,79,174.6,79.1z"/>
						<path class="st7" d="M177.8,100.9c0.6,1.2,1.2,2.4,1.9,3.6c3-1.2,5.9-2.4,8.9-3.6c-3.3-0.1-6.6-0.3-9.9-0.4
							C178.4,100.6,178.1,100.7,177.8,100.9z"/>
						<path class="st14" d="M175,103.2c4.5-0.8,9.1-1.5,13.6-2.3c-0.1-1.3-1.7-18.9-12.4-22.6c-1.1-0.4-2.5-0.7-4.1-0.7
							c0.2,2.7,0.5,5.4,0.7,8.2C173.5,91.5,174.2,97.3,175,103.2z"/>
					</g>
					<g>
						<path class="st8" d="M145.7,79.8c-0.2,5.7-0.5,11.4-0.7,17.1c-0.8,1.6-1.6,3.2-2.5,4.7c-0.6,1.2-1.2,2.4-1.9,3.6
							c-1.6,3.1-3.2,6.2-4.8,9.2l-7.3-2.6c1.1-3.9,2.2-7.4,3.2-10.3c0.4-1.2,0.8-2.2,1.1-3.2c5.2-14.7,8.2-17.9,11.4-18.5
							C144.8,79.8,145.4,79.8,145.7,79.8z"/>
						<path class="st7" d="M142.5,101.7c-0.6,1.2-1.2,2.4-1.9,3.6c-3-1.2-5.9-2.4-8.9-3.6c3.3-0.1,6.6-0.3,9.9-0.4
							C142,101.4,142.2,101.5,142.5,101.7z"/>
						<path class="st14" d="M145.4,103.9c-4.5-0.8-9.1-1.5-13.6-2.3c0.1-1.3,1.7-18.9,12.4-22.6c1.1-0.4,2.5-0.7,4.1-0.7
							c-0.2,2.7-0.5,5.4-0.7,8.2C146.8,92.3,146.1,98.1,145.4,103.9z"/>
					</g>
					<path class="st14" d="M138,137.9c1.3,1.2,12,11.6,26.4,9.2c6.8-1.1,11.5-4.6,13.8-6.7c-0.5-16.4-0.9-32.8-1.4-49.3
						c0.8-3.7,1.6-7.4,2.4-11c-1.3-0.7-2.9-1.4-4.6-2.1c-3.7-1.4-7.1-2-9.8-2.2c0.4,3.4-1.8,6.3-4.5,6.9c-3.1,0.6-6.8-2.1-6.9-6.2
						c-2.9,0.2-6.8,1-10.7,3.1c-0.8,0.4-1.6,0.9-2.2,1.4c1.1,3.2,2.1,6.4,3.2,9.6C141.8,106.3,139.9,122.1,138,137.9z"/>
					<g>
						<g>
							<path class="st7" d="M155,61.3c-1.2-0.1-2.1-0.2-2.6-0.1c0,0-0.2,0-0.4,0c-0.4,0-0.7-0.1-1.1-0.3c-0.1,0-0.1-0.1-0.1-0.2
								c0-0.1,0.1-0.1,0.2-0.1c0.3,0.2,0.6,0.3,1,0.3c0.2,0,0.3,0,0.3,0c0.5-0.1,1.4-0.1,2.6,0.1c0.1,0,0.1,0.1,0.1,0.1
								C155.1,61.3,155.1,61.3,155,61.3z"/>
						</g>
						<path class="st7" d="M152.6,61.8c0,0.5,0.3,0.8,0.7,0.8s0.7-0.4,0.7-0.8c0-0.5-0.3-0.8-0.7-0.8S152.6,61.3,152.6,61.8z"/>
					</g>
					<g>
						<g>
							<path class="st7" d="M148.7,61.2c-1.2-0.1-2.1-0.1-2.6-0.1c0,0-0.2,0-0.4,0c-0.2,0-0.3,0-0.5-0.1c-0.1,0-0.1-0.1-0.1-0.2
								c0-0.1,0.1-0.1,0.2-0.1c0.1,0,0.3,0.1,0.4,0.1c0.2,0,0.3,0,0.3,0c0.5-0.1,1.4-0.1,2.6,0.1c0.1,0,0.1,0.1,0.1,0.1
								C148.8,61.1,148.8,61.2,148.7,61.2z"/>
						</g>
						<path class="st7" d="M146.3,61.6c0,0.5,0.3,0.8,0.7,0.8s0.7-0.4,0.7-0.8c0-0.5-0.3-0.8-0.7-0.8S146.3,61.2,146.3,61.6z"/>
					</g>
					<g>
						<path class="st3" d="M175.6,221.7c0,0-0.1,0-0.1-0.1c-3-6.9-4.9-14.1-5.7-21.5c-0.6-5.7-0.5-11.5,0.3-17.2
							c0-0.1,0.1-0.1,0.1-0.1c0.1,0,0.1,0.1,0.1,0.1c-0.8,5.7-0.9,11.5-0.3,17.1c0.8,7.4,2.7,14.6,5.7,21.4
							C175.8,221.6,175.7,221.7,175.6,221.7C175.7,221.7,175.6,221.7,175.6,221.7z"/>
					</g>
					<g>
						<path class="st3" d="M170.2,180c-0.1,0-0.1,0-0.1-0.1l-5.8-32.8c0-0.1,0-0.1,0.1-0.1c0.1,0,0.1,0,0.1,0.1l5.8,32.8
							C170.3,180,170.3,180,170.2,180C170.2,180,170.2,180,170.2,180z"/>
					</g>
					<g>
						<path class="st3" d="M140.5,223.2c-0.1,0-0.1,0-0.1-0.1c-2.2-9.4-2.4-18.8-0.7-28c0.8-4.1,1.9-8.2,3.5-12.2
							c0-0.1,0.1-0.1,0.2-0.1c0.1,0,0.1,0.1,0.1,0.2c-1.5,3.9-2.7,8-3.5,12.1c-1.7,9.2-1.5,18.6,0.7,27.9
							C140.7,223.1,140.6,223.2,140.5,223.2C140.5,223.2,140.5,223.2,140.5,223.2z"/>
					</g>
					<g>
						<path class="st3" d="M143.2,182.1c-0.1,0-0.1,0-0.1-0.1c-1.8-7.6-2.3-15.3-1.6-23c0.5-4.9,1.5-9.8,3-14.5
							c0-0.1,0.1-0.1,0.2-0.1c0.1,0,0.1,0.1,0.1,0.2c-1.5,4.7-2.5,9.5-3,14.4c-0.8,7.7-0.2,15.4,1.6,22.9
							C143.3,182,143.3,182.1,143.2,182.1C143.2,182.1,143.2,182.1,143.2,182.1z"/>
					</g>
					<path class="st15" d="M172.9,234.6h23.8c0.1-0.5,0.1-1.3-0.2-2.1c-0.3-0.9-1.1-2-3.3-3c-3.8-1.8-8.2-2.1-10.3-2.2
						c-0.1,2.6-0.7,3.3-1.2,3.5c-1.1,0.4-2.3-1.9-4.4-1.9c-1.3,0-2.3,0.8-2.9,1.4c-0.2,0.1-1.1,0.6-1.6,1.6
						C172.3,233.2,172.8,234.4,172.9,234.6z"/>
					<path class="st7" d="M173.1,235.3h23.4c0.5,0,0.8-0.4,0.8-0.8c0-0.5-0.4-0.8-0.8-0.8h-23.4c-0.5,0-0.8,0.4-0.8,0.8
						C172.3,234.9,172.7,235.3,173.1,235.3z"/>
					<path class="st7" d="M187.2,230.5c0.3,0,0.5-0.2,0.5-0.5v-2.3c0-0.3-0.2-0.5-0.5-0.5c-0.3,0-0.5,0.2-0.5,0.5v2.3
						C186.6,230.3,186.9,230.5,187.2,230.5z"/>
					<path class="st7" d="M185.6,230.4c0.3,0,0.5-0.2,0.5-0.5v-2.3c0-0.3-0.2-0.5-0.5-0.5c-0.3,0-0.5,0.2-0.5,0.5v2.3
						C185.1,230.2,185.3,230.4,185.6,230.4z"/>
					<path class="st7" d="M188.6,230.6c0.3,0,0.5-0.2,0.5-0.5v-2.3c0-0.3-0.2-0.5-0.5-0.5s-0.5,0.2-0.5,0.5v2.3
						C188.1,230.4,188.3,230.6,188.6,230.6z"/>
					<path class="st15" d="M134.4,234.3h15.4c-0.2-0.8-0.5-1.6-1-2.6c-0.8-1.6-1.7-2.8-2.5-3.6c-0.7-0.3-2.6-0.9-4.8-0.3
						c-0.9,0.3-1.6,0.7-2.1,1c-0.7,0.3-1.7,0.8-2.7,1.7C135.2,232,134.6,233.6,134.4,234.3z"/>
					<path class="st7" d="M134.6,235.3h15c0.4,0,0.7-0.3,0.7-0.7v-0.3c0-0.4-0.3-0.7-0.7-0.7h-15c-0.4,0-0.7,0.3-0.7,0.7v0.3
						C133.9,235,134.2,235.3,134.6,235.3z"/>
					<path class="st7" d="M140.7,229.3c0,0.3,0.3,0.5,0.6,0.5l2.3-0.2c0.3,0,0.5-0.3,0.5-0.6s-0.3-0.5-0.6-0.5l-2.3,0.2
						C140.9,228.8,140.7,229.1,140.7,229.3z"/>
					<path class="st7" d="M141,227.8c0,0.3,0.3,0.5,0.6,0.5l2.3-0.2c0.3,0,0.5-0.3,0.5-0.6c0-0.3-0.3-0.5-0.6-0.5l-2.3,0.2
						C141.2,227.2,141,227.5,141,227.8z"/>
					<path class="st8" d="M138.7,127.5c-1.8,0.5-3.6,0.9-5.4,1.4c-0.9-1.6-1.8-2.9-2.5-3.7c-3.6-4.5-3.8-5.6-4-7
						c-0.2-1.2-0.2-3.4,1.8-6.5c2.4,0.6,4.8,1.2,7.2,1.7c0.7,1.2,1,2.3,1.2,3c0.8,3.8-1,6.2,0.6,9.5
						C138,126.6,138.4,127.2,138.7,127.5z"/>
					<path class="st8" d="M180.7,127.7c1.8,0.4,3.6,0.9,5.4,1.3c0.9-1.8,1.9-3.2,2.6-4.2c3.7-5,4-6.2,4.2-7.7
						c0.2-1.3,0.3-3.8-1.6-7.1c-2.4,0.7-4.9,1.4-7.3,2.1c-0.8,1.3-1.1,2.5-1.3,3.3c-1,4.2,0.9,6.8-0.8,10.4
						C181.4,126.7,181,127.3,180.7,127.7z"/>
					<path class="st8" d="M179,130c0,0.2,0,0.4,0.1,0.5c0.5,0.4,2-0.3,4.6-2.1c-0.1,1.5,0.9,2.5,1.6,2.4c0.6,0,1.4-0.9,1.4-2.2
						c1.4,1.8,2.8,2.6,3.6,2.2c0.1-0.1,0.5-0.3,0.6-1.4c0.6,0,1.2,0,1.8,0.1c0.3,0.2,1.7,1.2,2.1,0.8c0.4-0.4-1-2.5-1.1-2.6
						c-0.9-0.3-1.8-0.5-2.8-0.8c-0.4-0.6-1.8-2.5-4.5-3.1c-4-1-7,1.8-7.3,2c-0.5,0.1-3.4,0.6-4.3,2.7c0,0.1-0.5,1.3-0.1,1.7
						c0.5,0.4,2.1-0.7,3.4-1.8c0.7-0.1,1.5-0.1,2.2-0.2C179.8,128.7,179.4,129.4,179,130z"/>
					<path class="st8" d="M141.5,130c0,0.2,0,0.4-0.1,0.5c-0.5,0.4-2-0.3-4.6-2.1c0.1,1.5-0.9,2.5-1.6,2.4c-0.6,0-1.4-0.9-1.4-2.2
						c-1.4,1.8-2.8,2.6-3.6,2.2c-0.1-0.1-0.5-0.3-0.6-1.4c-0.6,0-1.2,0-1.8,0.1c-0.3,0.2-1.7,1.2-2.1,0.8c-0.4-0.4,1-2.5,1.1-2.6
						c0.9-0.3,1.8-0.5,2.8-0.8c0.4-0.6,1.8-2.5,4.5-3.1c4-1,7,1.8,7.3,2c0.5,0.1,3.4,0.6,4.3,2.7c0,0.1,0.5,1.3,0.1,1.7
						c-0.5,0.4-2.1-0.7-3.4-1.8c-0.7-0.1-1.5-0.1-2.2-0.2C140.7,128.7,141.1,129.4,141.5,130z"/>
				</g>
				<g>
					<g>
						
							<rect x="104.4" y="133" transform="matrix(-1 -1.224647e-16 1.224647e-16 -1 325.374 272.5176)" class="st7" width="116.6" height="6.4"/>
						<g>
							
								<rect x="114.5" y="130.4" transform="matrix(-1 -1.224647e-16 1.224647e-16 -1 329.0455 263.4795)" class="st3" width="100" height="2.6"/>
							<g>
								<g>
									<g>
										<path class="st7" d="M209.9,133.2c-0.1,0-0.1-0.1-0.1-0.1v-2.6c0-0.1,0.1-0.1,0.1-0.1c0.1,0,0.1,0.1,0.1,0.1v2.6
											C210,133.1,209.9,133.2,209.9,133.2z"/>
									</g>
									<g>
										<path class="st7" d="M204.8,133.2c-0.1,0-0.1-0.1-0.1-0.1v-2.6c0-0.1,0.1-0.1,0.1-0.1c0.1,0,0.1,0.1,0.1,0.1v2.6
											C204.9,133.1,204.9,133.2,204.8,133.2z"/>
									</g>
								</g>
								<g>
									<g>
										<path class="st7" d="M200,133.2c-0.1,0-0.1-0.1-0.1-0.1v-2.6c0-0.1,0.1-0.1,0.1-0.1c0.1,0,0.1,0.1,0.1,0.1v2.6
											C200.1,133.1,200,133.2,200,133.2z"/>
									</g>
									<g>
										<path class="st7" d="M194.9,133.2c-0.1,0-0.1-0.1-0.1-0.1v-2.6c0-0.1,0.1-0.1,0.1-0.1c0.1,0,0.1,0.1,0.1,0.1v2.6
											C195,133.1,194.9,133.2,194.9,133.2z"/>
									</g>
								</g>
							</g>
							<g>
								<g>
									<g>
										<path class="st7" d="M189.7,133.2c-0.1,0-0.1-0.1-0.1-0.1v-2.6c0-0.1,0.1-0.1,0.1-0.1c0.1,0,0.1,0.1,0.1,0.1v2.6
											C189.8,133.1,189.7,133.2,189.7,133.2z"/>
									</g>
									<g>
										<path class="st7" d="M184.6,133.2c-0.1,0-0.1-0.1-0.1-0.1v-2.6c0-0.1,0.1-0.1,0.1-0.1c0.1,0,0.1,0.1,0.1,0.1v2.6
											C184.7,133.1,184.6,133.2,184.6,133.2z"/>
									</g>
								</g>
								<g>
									<g>
										<path class="st7" d="M179.8,133.2c-0.1,0-0.1-0.1-0.1-0.1v-2.6c0-0.1,0.1-0.1,0.1-0.1c0.1,0,0.1,0.1,0.1,0.1v2.6
											C179.9,133.1,179.8,133.2,179.8,133.2z"/>
									</g>
									<g>
										<path class="st7" d="M174.7,133.2c-0.1,0-0.1-0.1-0.1-0.1v-2.6c0-0.1,0.1-0.1,0.1-0.1c0.1,0,0.1,0.1,0.1,0.1v2.6
											C174.8,133.1,174.7,133.2,174.7,133.2z"/>
									</g>
								</g>
							</g>
							<g>
								<g>
									<g>
										<path class="st7" d="M168.8,133.2c-0.1,0-0.1-0.1-0.1-0.1v-2.6c0-0.1,0.1-0.1,0.1-0.1c0.1,0,0.1,0.1,0.1,0.1v2.6
											C168.9,133.1,168.9,133.2,168.8,133.2z"/>
									</g>
									<g>
										<path class="st7" d="M163.7,133.2c-0.1,0-0.1-0.1-0.1-0.1v-2.6c0-0.1,0.1-0.1,0.1-0.1c0.1,0,0.1,0.1,0.1,0.1v2.6
											C163.8,133.1,163.8,133.2,163.7,133.2z"/>
									</g>
								</g>
								<g>
									<g>
										<path class="st7" d="M158.9,133.2c-0.1,0-0.1-0.1-0.1-0.1v-2.6c0-0.1,0.1-0.1,0.1-0.1c0.1,0,0.1,0.1,0.1,0.1v2.6
											C159,133.1,158.9,133.2,158.9,133.2z"/>
									</g>
									<g>
										<path class="st7" d="M153.8,133.2c-0.1,0-0.1-0.1-0.1-0.1v-2.6c0-0.1,0.1-0.1,0.1-0.1c0.1,0,0.1,0.1,0.1,0.1v2.6
											C153.9,133.1,153.9,133.2,153.8,133.2z"/>
									</g>
								</g>
							</g>
							<g>
								<g>
									<g>
										<path class="st7" d="M148.6,133.2c-0.1,0-0.1-0.1-0.1-0.1v-2.6c0-0.1,0.1-0.1,0.1-0.1c0.1,0,0.1,0.1,0.1,0.1v2.6
											C148.7,133.1,148.6,133.2,148.6,133.2z"/>
									</g>
									<g>
										<path class="st7" d="M143.5,133.2c-0.1,0-0.1-0.1-0.1-0.1v-2.6c0-0.1,0.1-0.1,0.1-0.1c0.1,0,0.1,0.1,0.1,0.1v2.6
											C143.6,133.1,143.6,133.2,143.5,133.2z"/>
									</g>
								</g>
								<g>
									<g>
										<path class="st7" d="M138.7,133.2c-0.1,0-0.1-0.1-0.1-0.1v-2.6c0-0.1,0.1-0.1,0.1-0.1c0.1,0,0.1,0.1,0.1,0.1v2.6
											C138.8,133.1,138.7,133.2,138.7,133.2z"/>
									</g>
									<g>
										<path class="st7" d="M133.6,133.2c-0.1,0-0.1-0.1-0.1-0.1v-2.6c0-0.1,0.1-0.1,0.1-0.1c0.1,0,0.1,0.1,0.1,0.1v2.6
											C133.7,133.1,133.7,133.2,133.6,133.2z"/>
									</g>
								</g>
							</g>
							<g>
								<g>
									<g>
										<path class="st7" d="M128.5,133.2c-0.1,0-0.1-0.1-0.1-0.1v-2.6c0-0.1,0.1-0.1,0.1-0.1c0.1,0,0.1,0.1,0.1,0.1v2.6
											C128.6,133.1,128.5,133.2,128.5,133.2z"/>
									</g>
									<g>
										<path class="st7" d="M123.4,133.2c-0.1,0-0.1-0.1-0.1-0.1v-2.6c0-0.1,0.1-0.1,0.1-0.1c0.1,0,0.1,0.1,0.1,0.1v2.6
											C123.5,133.1,123.4,133.2,123.4,133.2z"/>
									</g>
								</g>
								<g>
									<g>
										<path class="st7" d="M118.5,133.2c-0.1,0-0.1-0.1-0.1-0.1v-2.6c0-0.1,0.1-0.1,0.1-0.1c0.1,0,0.1,0.1,0.1,0.1v2.6
											C118.7,133.1,118.6,133.2,118.5,133.2z"/>
									</g>
								</g>
							</g>
						</g>
						<g>
							<g>
								
									<rect x="208.6" y="129.3" transform="matrix(-1 -1.224647e-16 1.224647e-16 -1 419.4981 259.7136)" class="st7" width="2.3" height="1.2"/>
								
									<rect x="203.5" y="129.3" transform="matrix(-1 -1.224647e-16 1.224647e-16 -1 409.3353 259.7136)" class="st7" width="2.3" height="1.2"/>
								
									<rect x="198.5" y="129.3" transform="matrix(-1 -1.224647e-16 1.224647e-16 -1 399.1841 259.7136)" class="st7" width="2.3" height="1.2"/>
								
									<rect x="193.4" y="129.3" transform="matrix(-1 -1.224647e-16 1.224647e-16 -1 389.0213 259.7136)" class="st7" width="2.3" height="1.2"/>
							</g>
							<g>
								
									<rect x="188.5" y="129.3" transform="matrix(-1 -1.224647e-16 1.224647e-16 -1 379.2345 259.7136)" class="st7" width="2.3" height="1.2"/>
								
									<rect x="183.4" y="129.3" transform="matrix(-1 -1.224647e-16 1.224647e-16 -1 369.0717 259.7136)" class="st7" width="2.3" height="1.2"/>
								
									<rect x="178.3" y="129.3" transform="matrix(-1 -1.224647e-16 1.224647e-16 -1 358.9205 259.7136)" class="st7" width="2.3" height="1.2"/>
								
									<rect x="173.3" y="129.3" transform="matrix(-1 -1.224647e-16 1.224647e-16 -1 348.7577 259.7136)" class="st7" width="2.3" height="1.2"/>
							</g>
						</g>
						<g>
							
								<rect x="167.7" y="129.3" transform="matrix(-1 -1.224647e-16 1.224647e-16 -1 337.6527 259.7136)" class="st7" width="2.3" height="1.2"/>
							
								<rect x="162.6" y="129.3" transform="matrix(-1 -1.224647e-16 1.224647e-16 -1 327.4899 259.7136)" class="st7" width="2.3" height="1.2"/>
							
								<rect x="157.5" y="129.3" transform="matrix(-1 -1.224647e-16 1.224647e-16 -1 317.3387 259.7136)" class="st7" width="2.3" height="1.2"/>
							
								<rect x="152.5" y="129.3" transform="matrix(-1 -1.224647e-16 1.224647e-16 -1 307.1759 259.7136)" class="st7" width="2.3" height="1.2"/>
						</g>
						
							<rect x="147.6" y="129.3" transform="matrix(-1 -1.224647e-16 1.224647e-16 -1 297.3891 259.7136)" class="st7" width="2.3" height="1.2"/>
						
							<rect x="142.5" y="129.3" transform="matrix(-1 -1.224647e-16 1.224647e-16 -1 287.2262 259.7136)" class="st7" width="2.3" height="1.2"/>
						
							<rect x="137.4" y="129.3" transform="matrix(-1 -1.224647e-16 1.224647e-16 -1 277.0751 259.7136)" class="st7" width="2.3" height="1.2"/>
						
							<rect x="132.3" y="129.3" transform="matrix(-1 -1.224647e-16 1.224647e-16 -1 266.9123 259.7136)" class="st7" width="2.3" height="1.2"/>
						
							<rect x="127.3" y="129.3" transform="matrix(-1 -1.224647e-16 1.224647e-16 -1 256.9159 259.7136)" class="st7" width="2.3" height="1.2"/>
						
							<rect x="122.3" y="129.3" transform="matrix(-1 -1.224647e-16 1.224647e-16 -1 246.7647 259.7136)" class="st7" width="2.3" height="1.2"/>
						
							<rect x="117.2" y="129.3" transform="matrix(-1 -1.224647e-16 1.224647e-16 -1 236.6019 259.7136)" class="st7" width="2.3" height="1.2"/>
					</g>
					<g>
						<g>
							<polygon class="st7" points="131.9,238.5 135.8,238.5 162.7,194.8 164.6,191.7 196.9,139.1 194.1,137.4 162.7,188.5 
								160.8,191.7 							"/>
							<polygon class="st7" points="128.4,139.1 160.8,191.7 162.7,194.8 189.6,238.5 193.5,238.5 164.6,191.7 162.7,188.5 
								131.2,137.4 							"/>
						</g>
						<path class="st7" d="M187.5,238.5h8c1.4,0,2.5-1.1,2.5-2.5c0-1.4-1.1-2.5-2.5-2.5h-8c-1.4,0-2.5,1.1-2.5,2.5
							C185.1,237.4,186.2,238.5,187.5,238.5z"/>
						<path class="st7" d="M129.9,238.5h8c1.4,0,2.5-1.1,2.5-2.5c0-1.4-1.1-2.5-2.5-2.5h-8c-1.4,0-2.5,1.1-2.5,2.5
							C127.4,237.4,128.5,238.5,129.9,238.5z"/>
					</g>
				</g>
				<g>
					<path class="st7" d="M176.7,102.9c-0.1,0-0.1-0.1-0.1-0.1l-0.2-13.6c0-0.1,0.1-0.1,0.1-0.1c0.1,0,0.1,0.1,0.1,0.1l0.2,13.6
						C176.8,102.8,176.8,102.9,176.7,102.9C176.7,102.9,176.7,102.9,176.7,102.9z"/>
				</g>
				<g>
					<path class="st7" d="M142.3,102.6c-0.1,0-0.1-0.1-0.1-0.1l-0.8-12.1c0-0.1,0-0.1,0.1-0.1c0.1,0,0.1,0,0.1,0.1l0.8,12.1
						C142.4,102.6,142.4,102.6,142.3,102.6C142.3,102.6,142.3,102.6,142.3,102.6z"/>
				</g>
			</g>
			<g>
				<g>
					<path class="st7" d="M116.1,238.6l0.1-0.2c0.2-0.3,0.1-0.7-0.2-0.8l-17.9-10.3c-0.3-0.2-0.7-0.1-0.8,0.2l-0.1,0.2
						c-0.2,0.3-0.1,0.7,0.2,0.8l17.9,10.3C115.6,239,115.9,238.9,116.1,238.6z"/>
					<path class="st7" d="M97.5,227.4l0.1,0.2c0.2,0.3,0.1,0.7-0.2,0.8l-17.9,10.3c-0.3,0.2-0.7,0.1-0.8-0.2l-0.1-0.2
						c-0.2-0.3-0.1-0.7,0.2-0.8l17.9-10.3C96.9,227,97.3,227.2,97.5,227.4z"/>
				</g>
				<path class="st3" d="M97.4,237.7c0.4,0,0.7-0.3,0.7-0.7V73.3c0-0.4-0.3-0.7-0.7-0.7c-0.4,0-0.7,0.3-0.7,0.7V237
					C96.6,237.3,97,237.7,97.4,237.7z"/>
			</g>
			<path class="st3" d="M85.1,82.5l44.8-10.6c0.4-0.1,0.7-0.6,0.6-1l0-0.1c-0.1-0.4-0.6-0.7-1-0.6L84.7,80.8c-0.4,0.1-0.7,0.6-0.6,1
				l0,0.1C84.2,82.4,84.7,82.6,85.1,82.5z"/>
			<g>
				<path class="st7" d="M118.2,72l2.9-0.8l-0.9-3l-2.9,0.8c-0.8,0.2-1.3,1.1-1.1,2C116.5,71.8,117.4,72.2,118.2,72z"/>
				<g>
					
						<rect x="118.2" y="66.3" transform="matrix(-0.9592 0.2828 -0.2828 -0.9592 265.1968 98.1387)" class="st16" width="14.6" height="3.9"/>
					<path class="st7" d="M130.4,66.8c0.5,1.8,2.4,2.9,4.3,2.3c1.8-0.5,2.9-2.4,2.3-4.3c-0.5-1.8-2.4-2.9-4.3-2.3
						C130.9,63.1,129.9,65,130.4,66.8z"/>
					<path class="st15" d="M131.4,69.2c0.4-0.1,0.6-0.5,0.5-0.9l-1.1-3.7c-0.1-0.4-0.5-0.6-0.9-0.5c-0.4,0.1-0.6,0.5-0.5,0.9
						l1.1,3.7C130.6,69.1,131,69.3,131.4,69.2z"/>
				</g>
			</g>
			<path class="st7" d="M124,73.8c1.3-0.3,2.6-0.7,3.9-1c-0.6-2.3-1.2-4.6-1.8-6.9c-1.3,0.4-2.6,0.7-3.9,1.1
				C122.8,69.2,123.4,71.5,124,73.8z"/>
			<g>
				<path class="st3" d="M101,236.4c-3.8-4.3-6.4-9.1-7.7-14.1c-3.2-12.4,2.2-23.9,7-34.1c4.6-9.8,8.6-18.3,4.5-25.7
					c-1.3-2.5-2.7-3.1-4.3-3.9c-1.6-0.8-3.7-1.8-6.3-5c-6.4-7.7-9.6-20.4-8.3-33c1.2-11.1,5.6-20.4,12.1-25.6
					c2.5-1.9,5.3-3.3,7.9-4.6c4.3-2.1,8-3.9,8.3-7.4c0.2-2.2-1-4.7-1.9-6.7c-0.9-2-1.6-3.5-0.8-4.2c0.3-0.3,0.7-0.3,1.3-0.2
					c0.6,0,1.4,0,2.5-0.3c0.6-0.2,1.1-0.5,1.7-0.8l0.3,0.4c-0.6,0.4-1.2,0.6-1.8,0.8c-1.2,0.4-2.1,0.4-2.7,0.4c-0.5,0-0.7,0-0.9,0.1
					c-0.5,0.4,0.2,1.9,0.9,3.6c0.9,2.1,2.1,4.6,1.9,7c-0.3,3.8-4.1,5.7-8.6,7.9c-2.6,1.3-5.3,2.6-7.8,4.5
					c-6.4,5-10.8,14.2-11.9,25.2c-1.3,12.5,1.8,25,8.2,32.6c2.6,3.1,4.5,4,6.2,4.9c1.7,0.8,3.1,1.5,4.5,4.1
					c4.2,7.6,0.2,16.2-4.5,26.2c-4.7,10.1-10.1,21.5-6.9,33.7c1.3,5,3.8,9.7,7.6,13.9L101,236.4z"/>
			</g>
		</g>
		<g>
			<g>
				<path class="st7" d="M445.7,227.7H369c-2,0-3.7-1.6-3.7-3.7v-84.7c0-2,1.6-3.7,3.7-3.7h76.7c2,0,3.7,1.6,3.7,3.7v84.7
					C449.4,226.1,447.7,227.7,445.7,227.7z"/>
				<g>
					<path class="st3" d="M443.9,221.6l2.5-3v-0.4l-2.6,3.2L441,218l2.8-3.4l2.6,3.2v-0.4l-2.4-3l2.1-2.5l0.4,0.4V212l-0.2-0.2
						l0.2-0.2v-0.4l-0.4,0.4l-2-2.5l2.4-2.9v-0.4l-2.5,3.1l-2.4-2.9l2.9-3.5l2,2.5v-0.4l-1.9-2.4l1.9-2.3v-0.4l-2,2.5l-2.9-3.6
						l2-2.5l2.9,3.6V199l-2.7-3.4l2.7-3.4v-0.4l-2-2.5l2-2.5v-0.4l-2.4-3l2.4-3v-0.4l-2-2.5l2-2.5v-0.4l-1.9-2.4l1.9-2.4v-0.4
						l-2.1,2.6l-2.5-3.1l2.8-3.4l1.8,2.3c0-0.1,0-0.3-0.1-0.4l-1.5-1.9c-0.2-0.1-0.3-0.2-0.5-0.2l0.1,0.1l-2.8,3.4l-2.9-3.7l0.1-0.1
						h-0.5l0.1,0.1l-2,2.5l-2-2.5l0.1-0.1h-0.5l0.1,0.1l-2.4,3l-2.4-3l0.1-0.1h-0.5l0.1,0.1l-2,2.5l-2-2.5l0.1-0.1h-0.5l0.1,0.1
						l-2.8,3.4l-2.8-3.4l0.1-0.1h-0.5l0.1,0.1l-2,2.5l-2-2.5l0.1-0.1h-0.5l0.1,0.1l-2.8,3.5l-2.8-3.5l0.1-0.1h-0.5l0.1,0.1l-2,2.5
						l-2-2.5l0.1-0.1h-0.5l0.1,0.1l-2.8,3.4l-2.8-3.4l0.1-0.1h-0.5l0.1,0.1l-2,2.5l-2-2.5l0.1-0.1h-0.5l0.1,0.1l-2.4,3l-2.4-3
						l0.1-0.1h-0.5l0.1,0.1l-2,2.5l-2-2.5l0.1-0.1H384l0.1,0.1l-2.9,3.7l-2.8-3.4l0.3-0.3h-0.3l-0.1,0.2l-0.1-0.2h-0.3l0.3,0.3
						l-2.5,3.2l-2.1-2.5l0.8-1h-0.3l-0.6,0.8l-0.7-0.8h-0.3l0.8,1l-1.9,2.4l-2-2.4c-0.1,0.1-0.1,0.1-0.2,0.2l2,2.4l-2,2.5l-0.7-0.8
						v0.4l0.5,0.7l-0.5,0.7v0.4l0.7-0.8l2,2.5l-2.4,3l-0.3-0.4v0.4l0.1,0.2l-0.1,0.2v0.4l0.3-0.4l2.8,3.4l-2,2.5l-1-1.3v0.4l0.9,1.1
						l-0.9,1.1v0.4l1-1.3l2,2.5l-2.9,3.6l-0.1-0.2v0.7l0.1-0.2l2.4,3l-2.4,3l-0.1-0.2v0.7l0.1-0.2l2.1,2.5l-2,2.5l-0.2-0.2v0.4
						c0,0,0,0.4,0,0.4l0.2-0.2l2.8,3.4l-2.7,3.4l-0.2-0.3v0.4l0.1,0.1l-0.1,0.1v0.4l0.2-0.3l2.1,2.5l-2.3,2.8v0.4l2.4-3l2.9,3.5
						l-5.2,6.5c0,0.1,0.1,0.2,0.1,0.3l5.3-6.6l2.1,2.5l-4.9,6c0.1,0,0.2,0,0.3,0l4.7-5.9l2.8,3.4l-2,2.5h0.3l1.9-2.3l1.9,2.3h0.6
						l2.6-3.2l2.4,3l-0.2,0.2h0.3l0-0.1l0,0.1h0.3l-0.2-0.2l2-2.5l2.1,2.5l-0.2,0.3h0.3l0.1-0.1l0.1,0.1h0.3l-0.2-0.3l2.3-2.8
						l2.5,3.1h0.3l-2.6-3.3l2.9-3.6l2.8,3.5l-2.7,3.3h0.3l2.5-3.1l2.2,2.7l-0.3,0.4h0.3l0.2-0.2l0.2,0.2h0.3l-0.3-0.4l2.1-2.5
						l2.3,2.9h0.4l2.4-2.9l2,2.5l-0.3,0.4h0.3l0.2-0.2l0.2,0.2h0.3l-0.3-0.4l2-2.5l2.4,2.9h0.4l2.3-2.9l2.1,2.5l-0.3,0.4h0.3
						l0.2-0.2l0.2,0.2h0.3l-0.3-0.4l2.2-2.7l2.5,3.1h0.3l-2.7-3.3l2.8-3.5l2.9,3.6l-2.6,3.3h0.3l2.5-3.1l2.3,2.8l-0.2,0.3h0.3
						l0.1-0.1l0.1,0.1h0.3l-0.2-0.3l2.1-2.5l2,2.5l-0.2,0.2h0.3l0-0.1l0,0.1h0.3l-0.2-0.2l2.4-3l2.6,3.2h0.6l1.9-2.3l1.3,1.7
						c0.1,0,0.1-0.1,0.2-0.1L443.9,221.6z M440.8,217.8l-2-2.5l2.8-3.4l2,2.5L440.8,217.8z M431.3,193.6l2,2.5l-2,2.5l-2-2.5
						L431.3,193.6z M429.1,196l-2.1-2.7l2.1-2.5l2.1,2.6L429.1,196z M431.5,193.4l2.8-3.5l2,2.5l-2.8,3.5L431.5,193.4z M432.2,186.9
						l2.1-2.5l2.1,2.6l-2,2.5L432.2,186.9z M434.2,189.7l-2.8,3.5l-2.1-2.6l2.9-3.5L434.2,189.7z M429,190.4l-2.4-3l2.9-3.5l2.4,3
						L429,190.4z M428.9,190.6l-2.1,2.5l-2.4-3l2-2.5L428.9,190.6z M401.4,193.9l2,2.5l-2.3,2.9l-2.1-2.5L401.4,193.9z M398.8,196.7
						l-2.8-3.4l2.4-3l2.8,3.4L398.8,196.7z M401.5,193.7l2.9-3.6l2,2.5l-2.9,3.6L401.5,193.7z M406.6,192.9l2.4,3l-2.9,3.6l-2.4-3
						L406.6,192.9z M406.7,192.7l2-2.5l2.4,3l-2,2.5L406.7,192.7z M411.4,193.4l2,2.5l-2,2.5l-2-2.5L411.4,193.4z M411.5,193.2
						l2.4-3l2,2.5l-2.4,3L411.5,193.2z M416.1,192.9l2.9,3.6l-2.4,3l-2.9-3.6L416.1,192.9z M416.3,192.7l2-2.5l2.9,3.6l-2,2.5
						L416.3,192.7z M421.4,193.9l2.4,2.9l-2.1,2.5l-2.3-2.9L421.4,193.9z M421.5,193.7l2.8-3.4l2.4,3l-2.8,3.4L421.5,193.7z
						 M424.3,189.9l-2.9-3.6l2-2.5l2.9,3.6L424.3,189.9z M424.1,190.1l-2.8,3.4l-2.9-3.6l2.8-3.4L424.1,190.1z M418.3,189.8l-2-2.5
						l2.8-3.4l2,2.5L418.3,189.8z M418.2,190l-2,2.5l-2-2.5l2-2.5L418.2,190z M413.9,189.8l-2.4-3l2-2.5l2.4,3L413.9,189.8z
						 M413.8,190l-2.4,3l-2.4-3l2.4-3L413.8,190z M408.8,189.8l-2-2.5l2.4-3l2,2.5L408.8,189.8z M408.6,190l-2,2.5l-2-2.5l2-2.5
						L408.6,190z M404.4,189.8l-2.8-3.4l2-2.5l2.8,3.4L404.4,189.8z M404.2,190l-2.9,3.6l-2.8-3.4l2.9-3.6L404.2,190z M398.4,189.9
						l-2-2.5l2.9-3.6l2,2.5L398.4,189.9z M398.3,190.1l-2.4,3l-2.1-2.5l2.4-3L398.3,190.1z M381.6,192.9l2.4-3l2,2.5l-2.4,3
						L381.6,192.9z M383.5,195.6l-2,2.5l-2-2.5l2-2.5L383.5,195.6z M386.2,192.6l2.8,3.5l-2.4,3l-2.8-3.5L386.2,192.6z M386.4,192.4
						l2-2.5l2.8,3.5l-2,2.5L386.4,192.4z M391.4,193.6l2,2.5l-2,2.5l-2-2.5L391.4,193.6z M391.6,193.4l2.1-2.6l2.1,2.5l-2.1,2.7
						L391.6,193.4z M393.7,190.4l-2.9-3.5l2.4-3l2.9,3.5L393.7,190.4z M393.5,190.6l-2.1,2.6l-2.8-3.5l2.1-2.6L393.5,190.6z
						 M388.4,189.5l-2-2.5l2.1-2.6l2.1,2.5L388.4,189.5z M388.3,189.7l-2,2.5l-2-2.5l2-2.5L388.3,189.7z M384,189.5l-2.8-3.4l2-2.5
						l2.8,3.4L384,189.5z M383.9,189.7l-2.4,3l-2.8-3.4l2.4-3L383.9,189.7z M378.5,189.1l-2-2.5l2.4-3l2,2.5L378.5,189.1z
						 M381.3,192.9l-2,2.5l-2.8-3.4l2-2.5L381.3,192.9z M381.3,198.3l-2.9,3.6l-2-2.5l2.9-3.6L381.3,198.3z M381.4,198.5l2.8,3.5
						l-2.9,3.6l-2.9-3.5L381.4,198.5z M381.6,198.3l2-2.5l2.8,3.5l-2,2.5L381.6,198.3z M386.6,199.5l2,2.5l-2,2.5l-2-2.5
						L386.6,199.5z M386.8,199.3l2.4-3l2,2.5l-2.4,3L386.8,199.3z M391.4,199.1l2.8,3.4l-2.4,3l-2.8-3.4L391.4,199.1z M391.6,198.9
						l2-2.5l2.8,3.4l-2,2.5L391.6,198.9z M393.7,196.1l2.1-2.7l2.8,3.4l-2.2,2.7L393.7,196.1z M398.8,197.1l2.1,2.5l-2.2,2.7l-2-2.5
						L398.8,197.1z M401.1,199.8l2.4,3l-2.2,2.8l-2.4-3L401.1,199.8z M401.2,199.6l2.3-2.9l2.4,3l-2.3,2.9L401.2,199.6z
						 M406.1,199.9l2,2.5l-2.3,2.9l-2.1-2.5L406.1,199.9z M406.3,199.7l2.9-3.6l2,2.5l-2.9,3.6L406.3,199.7z M411.4,198.8l2.9,3.6
						l-2.9,3.5l-2.9-3.5L411.4,198.8z M411.5,198.6l2-2.5l2.9,3.6l-2,2.5L411.5,198.6z M416.6,199.9l2.3,2.9l-2.1,2.5l-2.3-2.9
						L416.6,199.9z M416.7,199.7l2.4-3l2.3,2.9l-2.4,3L416.7,199.7z M421.7,199.8l2.2,2.7l-2.4,3l-2.2-2.8L421.7,199.8z
						 M421.8,199.6l2.1-2.5l2.2,2.7l-2,2.5L421.8,199.6z M424,196.9l2.8-3.4l2.1,2.7l-2.8,3.4L424,196.9z M429.1,196.3l2,2.5
						l-2.8,3.4l-2-2.5L429.1,196.3z M431.3,199.1l2.4,3l-2.8,3.4l-2.4-3L431.3,199.1z M431.5,198.9l2-2.5l2.4,3l-2,2.5L431.5,198.9z
						 M436.1,199.5l2,2.5l-2,2.5l-2-2.5L436.1,199.5z M433.7,196.1l2.8-3.5l2.4,3l-2.8,3.5L433.7,196.1z M434.5,189.7l2-2.5l2,2.5
						l-2,2.5L434.5,189.7z M436.7,187l2.8-3.4l2,2.5l-2.8,3.4L436.7,187z M437.4,180.6l2.1-2.5l2,2.5l-2,2.5L437.4,180.6z
						 M439.3,183.3l-2.8,3.4l-2.1-2.6l2.8-3.4L439.3,183.3z M434.3,184l-2.4-3l2.8-3.4l2.5,3.1L434.3,184z M434.1,184.2l-2.1,2.5
						l-2.4-3l2-2.5L434.1,184.2z M429.5,183.5l-2.9-3.6l2-2.5l2.9,3.6L429.5,183.5z M429.3,183.7l-2.9,3.5l-2.9-3.6l2.8-3.5
						L429.3,183.7z M423.4,183.4l-2-2.5l2.8-3.5l2,2.5L423.4,183.4z M423.3,183.6l-2,2.5l-2-2.5l2-2.5L423.3,183.6z M419,183.4
						l-2.4-3l2-2.5l2.4,3L419,183.4z M418.9,183.6l-2.8,3.4l-2.4-3l2.8-3.4L418.9,183.6z M413.5,183.8l-2-2.5l2.8-3.4l2,2.5
						L413.5,183.8z M413.4,184l-2,2.5l-2-2.5l2-2.5L413.4,184z M409.2,183.8l-2.8-3.4l2-2.5l2.8,3.4L409.2,183.8z M409,184l-2.4,3
						l-2.8-3.4l2.4-3L409,184z M403.7,183.4l-2-2.5l2.4-3l2,2.5L403.7,183.4z M403.5,183.6l-2,2.5l-2-2.5l2-2.5L403.5,183.6z
						 M399.3,183.4l-2.8-3.5l2-2.5l2.8,3.5L399.3,183.4z M399.1,183.6l-2.9,3.6l-2.9-3.5l2.9-3.6L399.1,183.6z M393.2,183.5l-2-2.5
						l2.9-3.6l2,2.5L393.2,183.5z M393.1,183.7l-2.4,3l-2.1-2.5l2.4-3L393.1,183.7z M388.4,184l-2.8-3.4l2.5-3.1l2.8,3.4L388.4,184z
						 M388.3,184.2l-2.1,2.6l-2.8-3.4l2-2.5L388.3,184.2z M383.3,183.1l-2-2.5l2-2.5l2.1,2.5L383.3,183.1z M383.1,183.3l-2,2.5
						l-2-2.5l2-2.5L383.1,183.3z M378.9,183.1l-2.4-3l2-2.5l2.4,3L378.9,183.1z M378.8,183.3l-2.4,3l-2.4-3l2.4-3L378.8,183.3z
						 M378.4,189.3l-2,2.5l-2-2.5l2-2.5L378.4,189.3z M379.1,195.6l-2.9,3.6l-2.8-3.4l2.9-3.6L379.1,195.6z M376.2,199.6l2,2.5
						l-2.4,3l-2.1-2.5L376.2,199.6z M378.4,202.3l2.9,3.5l-2.4,2.9l-2.9-3.5L378.4,202.3z M381.4,206l2,2.5l-2.3,2.9L379,209
						L381.4,206z M381.6,205.9l2.9-3.6l2,2.5l-2.9,3.6L381.6,205.9z M386.6,205l2.8,3.4l-2.9,3.6l-2.8-3.4L386.6,205z M386.8,204.8
						l2-2.5l2.8,3.4l-2,2.5L386.8,204.8z M391.8,205.9l2,2.5l-2,2.5l-2-2.5L391.8,205.9z M391.9,205.7l2.4-3l2,2.5l-2.4,3
						L391.9,205.7z M394.5,202.5l2-2.5l2,2.5l-2,2.5L394.5,202.5z M398.7,202.7l2.4,3l-2,2.5l-2.4-3L398.7,202.7z M401.3,205.9
						l2,2.5l-2,2.5l-2-2.5L401.3,205.9z M401.4,205.7l2.2-2.8l2.1,2.5l-2.2,2.8L401.4,205.7z M405.9,205.6l2.9,3.5l-2.3,2.8
						l-2.8-3.5L405.9,205.6z M406,205.4l2.3-2.9l2.9,3.5l-2.3,2.8L406,205.4z M411.4,206.3l2.3,2.8l-2.3,2.8l-2.3-2.8L411.4,206.3z
						 M411.5,206.1l2.9-3.5l2.3,2.9l-2.9,3.5L411.5,206.1z M416.8,205.6l2.2,2.8l-2.8,3.5l-2.3-2.8L416.8,205.6z M417,205.4l2.1-2.5
						l2.2,2.8l-2,2.5L417,205.4z M421.4,205.9l2,2.5l-2,2.5l-2-2.5L421.4,205.9z M421.6,205.7l2.4-3l2,2.5l-2.4,3L421.6,205.7z
						 M424.2,202.5l2-2.5l2,2.5l-2,2.5L424.2,202.5z M428.4,202.7l2.4,3l-2,2.5l-2.4-3L428.4,202.7z M431,205.9l2,2.5l-2,2.5l-2-2.5
						L431,205.9z M431.1,205.7l2.8-3.4l2,2.5l-2.8,3.4L431.1,205.7z M436.1,205l2.9,3.6l-2.8,3.4l-2.9-3.6L436.1,205z M436.2,204.8
						l2-2.5l2.9,3.6l-2,2.5L436.2,204.8z M436.2,199.3l2.8-3.5l2,2.5l-2.8,3.5L436.2,199.3z M436.7,192.4l2-2.5l2.4,3l-2,2.5
						L436.7,192.4z M438.8,189.7l2.8-3.4l2.4,3l-2.8,3.4L438.8,189.7z M439.6,183.3l2-2.5l2,2.5l-2,2.5L439.6,183.3z M439.6,177.9
						l2.4-3l2,2.5l-2.4,3L439.6,177.9z M439.4,177.7l-2.5-3.1l2.4-3l2.5,3.1L439.4,177.7z M439.3,177.9l-2.1,2.5l-2.5-3.1l2-2.5
						L439.3,177.9z M434.6,177.1l-2.9-3.6l2-2.5l2.9,3.6L434.6,177.1z M434.5,177.3l-2.8,3.4l-2.9-3.6l2.8-3.4L434.5,177.3z
						 M428.6,177l-2-2.5l2.8-3.4l2,2.5L428.6,177z M428.5,177.1l-2,2.5l-2-2.5l2-2.5L428.5,177.1z M424.2,177l-2.4-3l2-2.5l2.4,3
						L424.2,177z M424.1,177.1l-2.8,3.5l-2.4-3l2.8-3.5L424.1,177.1z M418.7,177.5l-2-2.5l2.8-3.5l2,2.5L418.7,177.5z M418.5,177.7
						l-2,2.5l-2-2.5l2-2.5L418.5,177.7z M414.3,177.5l-2.8-3.4l2-2.5l2.8,3.4L414.3,177.5z M414.1,177.7l-2.8,3.4l-2.8-3.4l2.8-3.4
						L414.1,177.7z M408.4,177.5l-2-2.5l2.8-3.4l2,2.5L408.4,177.5z M408.3,177.7l-2,2.5l-2-2.5l2-2.5L408.3,177.7z M404.1,177.5
						l-2.8-3.5l2-2.5l2.8,3.5L404.1,177.5z M403.9,177.7l-2.4,3l-2.8-3.5l2.4-3L403.9,177.7z M398.5,177l-2-2.5l2.4-3l2,2.5
						L398.5,177z M398.3,177.1l-2,2.5l-2-2.5l2-2.5L398.3,177.1z M394.1,177l-2.8-3.4l2-2.5l2.8,3.4L394.1,177z M393.9,177.1
						l-2.9,3.6l-2.8-3.4l2.9-3.6L393.9,177.1z M388.1,177.1l-2-2.5l2.9-3.6l2,2.5L388.1,177.1z M388,177.3l-2.5,3.1l-2.1-2.5
						l2.5-3.1L388,177.3z M383.3,177.7l-2.4-3l2.5-3.1l2.4,3L383.3,177.7z M383.1,177.9l-2,2.5l-2.4-3l2-2.5L383.1,177.9z
						 M378.5,177.2l-2-2.5l2-2.4l2.1,2.5L378.5,177.2z M378.4,177.4l-2,2.5l-2-2.5l2-2.5L378.4,177.4z M374.1,177.2l-2.8-3.4l2-2.5
						l2.8,3.4L374.1,177.2z M376.2,180.1l-2.4,3l-2-2.5l2.4-3L376.2,180.1z M376.2,186.5l-2,2.5l-2.4-3l2-2.5L376.2,186.5z
						 M376.2,192l-2.9,3.6l-2-2.5l2.9-3.6L376.2,192z M373.3,196l2.8,3.4l-2.4,3l-2.8-3.4L373.3,196z M373.6,202.8l2.1,2.5l-2,2.5
						l-2.1-2.5L373.6,202.8z M375.9,205.5l2.9,3.5l-2,2.5l-2.9-3.5L375.9,205.5z M378.9,209.2l2.1,2.5l-2,2.5l-2.1-2.5L378.9,209.2z
						 M381.1,211.9l2.8,3.4l-2,2.5l-2.8-3.4L381.1,211.9z M381.3,211.7l2.3-2.9l2.8,3.4l-2.3,2.9L381.3,211.7z M386.5,212.4l2,2.5
						l-2.3,2.9l-2.1-2.5L386.5,212.4z M386.7,212.2l2.9-3.6l2,2.5l-2.9,3.6L386.7,212.2z M391.8,211.3l2.4,3l-2.9,3.6l-2.4-3
						L391.8,211.3z M391.9,211.2l2-2.5l2.4,3l-2,2.5L391.9,211.2z M394.1,208.4l2.4-3l2.4,3l-2.4,3L394.1,208.4z M399.1,208.6l2,2.5
						l-2.4,3l-2-2.5L399.1,208.6z M401.3,211.3l2.8,3.5l-2.4,3l-2.8-3.5L401.3,211.3z M401.4,211.2l2-2.5l2.8,3.5l-2,2.5
						L401.4,211.2z M406.5,212.4l2.3,2.8l-2.1,2.5l-2.2-2.8L406.5,212.4z M406.6,212.2l2.3-2.8l2.3,2.8l-2.3,2.8L406.6,212.2z
						 M411.4,212.3l2.3,2.8l-2.3,2.9l-2.3-2.9L411.4,212.3z M411.5,212.1l2.3-2.8l2.3,2.8l-2.3,2.8L411.5,212.1z M416.2,212.4l2,2.5
						l-2.2,2.8l-2.1-2.5L416.2,212.4z M416.4,212.2l2.8-3.5l2,2.5l-2.8,3.5L416.4,212.2z M421.4,211.3l2.4,3l-2.8,3.5l-2.4-3
						L421.4,211.3z M421.6,211.2l2-2.5l2.4,3l-2,2.5L421.6,211.2z M423.8,208.4l2.4-3l2.4,3l-2.4,3L423.8,208.4z M428.8,208.6l2,2.5
						l-2.4,3l-2-2.5L428.8,208.6z M431,211.3l2.9,3.6l-2.4,3l-2.9-3.6L431,211.3z M431.1,211.2l2-2.5l2.9,3.6l-2,2.5L431.1,211.2z
						 M436.2,212.4l2.3,2.9l-2.1,2.5l-2.3-2.9L436.2,212.4z M436.3,212.2l2.8-3.4l2.3,2.9l-2.8,3.4L436.3,212.2z M445.9,211.7
						l-2.1,2.5l-2-2.5l2.1-2.5L445.9,211.7z M443.7,209l-2.1,2.5l-2.3-2.9l2-2.5L443.7,209z M444.2,202.1l-2.9,3.5l-2.9-3.6l2.8-3.5
						L444.2,202.1z M441.3,198.2l-2-2.5l2-2.5l2,2.5L441.3,198.2z M446.2,192l-2.8,3.4l-2-2.5l2.8-3.4L446.2,192z M446.2,186.5
						l-2,2.5l-2.4-3l2-2.5L446.2,186.5z M446.2,180.1l-2.4,3l-2-2.5l2.4-3L446.2,180.1z M446.2,174.7l-2,2.5l-2-2.5l2.1-2.5
						L446.2,174.7z M444.1,172l-2.1,2.5l-2.5-3.1l2-2.5L444.1,172z M438.5,165l2.9,3.7l-2,2.5l-2.9-3.7L438.5,165z M439.2,171.4
						l-2.4,3l-2.9-3.6l2.4-3L439.2,171.4z M434.1,165l2,2.5l-2.4,3l-2-2.5L434.1,165z M433.6,170.8l-2,2.5l-2-2.5l2-2.5L433.6,170.8
						z M429,165l2.4,3l-2,2.5l-2.4-3L429,165z M429.2,170.8l-2.8,3.4l-2.4-3l2.8-3.4L429.2,170.8z M424.6,165l2,2.5l-2.8,3.4l-2-2.5
						L424.6,165z M423.7,171.2l-2,2.5l-2-2.5l2-2.5L423.7,171.2z M418.7,165l2.8,3.4l-2,2.5l-2.8-3.4L418.7,165z M419.3,171.2
						l-2.8,3.5l-2.8-3.4l2.8-3.5L419.3,171.2z M414.4,165l2,2.5l-2.8,3.5l-2-2.5L414.4,165z M413.4,171.3l-2,2.5l-2-2.5l2-2.5
						L413.4,171.3z M408.4,165l2.8,3.5l-2,2.5l-2.8-3.5L408.4,165z M409,171.3l-2.8,3.4l-2.8-3.5l2.8-3.4L409,171.3z M404,165l2,2.5
						l-2.8,3.4l-2-2.5L404,165z M403.1,171.2l-2,2.5l-2-2.5l2-2.5L403.1,171.2z M398.1,165l2.8,3.4l-2,2.5l-2.8-3.4L398.1,165z
						 M398.7,171.2l-2.4,3l-2.8-3.4l2.4-3L398.7,171.2z M393.8,165l2,2.5l-2.4,3l-2-2.5L393.8,165z M393.2,170.8l-2,2.5l-2-2.5
						l2-2.5L393.2,170.8z M388.6,165l2.4,3l-2,2.5l-2.4-3L388.6,165z M388.8,170.8l-2.9,3.6l-2.4-3l2.9-3.7L388.8,170.8z M384.2,165
						l2,2.5l-2.9,3.7l-2-2.5L384.2,165z M381.1,168.9l2,2.5l-2.5,3.1l-2.1-2.5L381.1,168.9z M378.2,165.3l2.8,3.4l-2.5,3.1l-2.8-3.4
						L378.2,165.3z M375.5,168.6l2.8,3.4l-2,2.4l-2.8-3.4L375.5,168.6z M373.3,165.9l2.1,2.5l-1.9,2.4l-2-2.5L373.3,165.9z
						 M369.2,171l2-2.5l2,2.5l-2,2.5L369.2,171z M368.8,177l2.4-3l2.8,3.4l-2.4,3L368.8,177z M369.5,183.3l2-2.5l2,2.5l-2,2.5
						L369.5,183.3z M368.6,189.9l2.9-3.6l2.4,3l-2.9,3.6L368.6,189.9z M368.6,196.3l2.4-3l2,2.5l-2.4,3L368.6,196.3z M368.7,201.7
						l2-2.5l2.8,3.4l-2,2.5L368.7,201.7z M370.8,211.4l-2.1-2.5l2.7-3.4l2.1,2.5L370.8,211.4z M373.8,215.1l-2.9-3.5l2.7-3.4
						l2.9,3.5L373.8,215.1z M376,217.8l-2.1-2.5l2.7-3.4l2.1,2.5L376,217.8z M379,221.4l-2.8-3.4l2.7-3.4l2.8,3.4L379,221.4z
						 M381.2,224.1l-2.1-2.5l2.7-3.4l2.1,2.5L381.2,224.1z M384.1,220.5L382,218l2-2.5l2.1,2.5L384.1,220.5z M386.7,223.7l-2.4-3
						l2-2.5l2.4,3L386.7,223.7z M388.9,221l-2.4-3l2.3-2.9l2.4,3L388.9,221z M391.1,223.7l-2.1-2.5l2.3-2.8l2,2.5L391.1,223.7z
						 M393.5,220.6l-2-2.5l2.9-3.6l2,2.5L393.5,220.6z M394.5,214.4l2-2.5l2,2.5l-2,2.5L394.5,214.4z M396.7,217.1l2-2.5l2.8,3.5
						l-2,2.5L396.7,217.1z M401.8,223.5l-2.2-2.7l2-2.5l2.2,2.8L401.8,223.5z M401.8,218.1l2.4-3l2.2,2.8l-2.4,3L401.8,218.1z
						 M406.6,224l-2.4-3l2.4-3l2.4,2.9L406.6,224z M406.8,217.9l2.1-2.5l2.3,2.9l-2,2.5L406.8,217.9z M411.4,223.5l-2-2.5l2-2.5
						l2,2.5L411.4,223.5z M411.5,218.2l2.3-2.9l2.1,2.5l-2.4,2.9L411.5,218.2z M416.1,224l-2.4-3l2.4-2.9l2.4,3L416.1,224z
						 M418.7,220.8l-2.4-3l2.2-2.8l2.4,3L418.7,220.8z M420.9,223.5l-2.1-2.5l2.2-2.8l2,2.5L420.9,223.5z M423.2,220.6l-2-2.5
						l2.8-3.5l2,2.5L423.2,220.6z M424.2,214.4l2-2.5l2,2.5l-2,2.5L424.2,214.4z M426.4,217.1l2-2.5l2.9,3.6l-2,2.5L426.4,217.1z
						 M431.6,223.7l-2.3-2.8l2-2.5l2.3,2.8L431.6,223.7z M431.6,218.1l2.4-3l2.3,2.9l-2.4,3L431.6,218.1z M436,223.7l-2-2.5l2.4-3
						l2,2.5L436,223.7z M436.6,218l2.1-2.5l2,2.5l-2.1,2.5L436.6,218z M441.5,224.1l-2.7-3.4l2.1-2.5l2.7,3.4L441.5,224.1z"/>
					<g>
						<path class="st3" d="M446.1,223.9h-77.5v-59h77.5V223.9z M369.1,223.4h76.5v-58h-76.5V223.4z"/>
					</g>
				</g>
			</g>
			<circle class="st3" cx="374.6" cy="142.7" r="2"/>
			<circle class="st3" cx="381.6" cy="142.7" r="2"/>
			<circle class="st3" cx="388.6" cy="142.7" r="2"/>
			<rect x="424.4" y="156.7" class="st3" width="18.5" height="4.1"/>
			<g>
				<path class="st7" d="M422.6,140.3c-0.2-4.8-2.4-9.3-6-12.2c-3-2.5-6.6-3.6-9.9-3.1c-5.4,0.8-10.1,6.1-11.1,12.6l-3-0.5
					c1.2-7.9,6.8-14.1,13.6-15.1c4.2-0.6,8.6,0.7,12.3,3.7c4.2,3.5,6.8,8.8,7,14.4L422.6,140.3z"/>
			</g>
		</g>
		
			<rect x="338.7" y="146.4" transform="matrix(0.7071 -0.7071 0.7071 0.7071 -4.473 284.1677)" class="st7" width="4.1" height="2.3"/>
		<g>
			<path class="st7" d="M185.9,243.9c-8.4,0-15.3-0.2-17.2-0.3c-41.5-1.3-70.9-3.8-87.2-7.3c-12.8-2.8-15.1-5.7-15.7-7.9
				c-1.4-5.4,2.5-14.5,8.7-16.9c3.1-1.2,6.8-0.9,10.8,1c0.2,0.1,0.3,0.3,0.2,0.5c-0.1,0.2-0.3,0.3-0.5,0.2c-2.7-1.2-6.6-2.4-10.2-1
				c-5.9,2.4-9.6,10.9-8.3,16.1c0.5,2,2.7,4.7,15.1,7.4c16.3,3.5,45.6,6,87.1,7.3c23,0.7,57.3,0.1,57.9-4.4c0.1-1.3-3.8-3-7.7-4.6
				c-6.4-2.7-14.3-6.1-14.3-11.1c0-2.8,2.5-5.2,4.5-7.1c1.2-1.1,2.4-2.2,2.1-2.7c-0.3-0.5-2-0.1-3.6,0.3c-3.1,0.8-7.3,1.8-10.5-0.2
				c-4-2.5-5.5-8.8-3.4-13.5c1.5-3.2,4.8-5.7,8.6-6.5c2.9-0.6,5.5-0.1,7.3,1.4c3.5,3.1,2.3,9.2,2.1,9.8c0,0.2-0.2,0.3-0.4,0.3
				c-0.2,0-0.3-0.2-0.3-0.4c0.1-0.3,1.4-6.3-1.9-9.1c-1.6-1.4-4-1.8-6.6-1.2c-3.6,0.8-6.6,3.1-8,6.1c-2,4.3-0.5,10.2,3.1,12.5
				c3,1.9,7,0.9,10,0.1c2.2-0.6,3.9-1,4.4,0c0.6,1-0.6,2.1-2.2,3.6c-1.9,1.8-4.2,4-4.2,6.5c0,4.5,7.7,7.8,13.9,10.4
				c4.8,2.1,8.3,3.5,8.1,5.4C226.8,243,203.1,243.9,185.9,243.9z"/>
		</g>
		<path class="st7" d="M149,61.5c0,1.5-1.2,2.7-2.7,2.7c-1.5,0-2.7-1.2-2.7-2.7c0-1.5,1.2-2.7,2.7-2.7C147.9,58.9,149,60.1,149,61.5
			z"/>
		<path class="st7" d="M155.7,61.6c0,1.5-1.2,2.7-2.7,2.7s-2.7-1.2-2.7-2.7c0-1.5,1.2-2.7,2.7-2.7S155.7,60.2,155.7,61.6z"/>
		<g>
			<rect x="148.5" y="61" class="st7" width="2.8" height="1"/>
		</g>
		<g>
			
				<rect x="154.5" y="59.1" transform="matrix(0.9332 -0.3593 0.3593 0.9332 -10.8213 61.0228)" class="st7" width="8.4" height="1"/>
		</g>
		<path class="st4" d="M162.7,51c3.5,4.7,1.3,11.8,0.1,11.9c-0.8,0.1-0.8-2.9-3.5-5.2c-1.5-1.3-2.7-1.5-6.1-2.6
			c-6.3-2-9.5-3-9.5-4.1c0-2.3,4.2-4.1,9.5-4.1C154.5,46.9,159.7,47,162.7,51z"/>
		<g>
			<polygon class="st7" points="64.6,242.9 73.4,242.9 63.6,224.5 54.8,224.5 			"/>
			<path class="st7" d="M45.2,227.9c0,0.7,0.1,1.5,0.2,2.2l2.8,5.2l3.5,6.6h8.8l-1-1.9l-8.8-16.5h-4.6
				C45.6,224.9,45.2,226.4,45.2,227.9z"/>
			<path class="st7" d="M45.2,227.9c0,0.7,0.1,1.5,0.2,2.2c0.4,1.9,1.4,3.7,2.8,5.2c2.6,2.8,6.7,4.7,11.3,4.7c0,0,0.1,0,0.1,0
				c3.1,0.1,7.5-1,13.3-6.1c-5.7-6.3-11.5-12.6-17.2-19c-3.2,2.9-6.4,5.7-9.6,8.6c-0.6,1.2-0.8,2.3-0.9,3
				C45.2,227.2,45.2,227.7,45.2,227.9z"/>
			<g>
				<path class="st3" d="M57.7,240.3c-1.2,0-2.6-0.2-4-0.7c-3-1.1-4.8-3.1-5.6-4.2c0-0.1,0-0.1,0-0.2c0.1,0,0.1,0,0.2,0
					c0.8,1.1,2.5,3.1,5.5,4.1c2.3,0.8,4.4,0.8,5.8,0.5c0.1,0,0.1,0,0.1,0.1c0,0.1,0,0.1-0.1,0.1C59.1,240.2,58.4,240.3,57.7,240.3z"
					/>
			</g>
			<g>
				<path class="st3" d="M69.7,236.4c0,0-0.1,0-0.1-0.1l-4.5-8.8c0-0.1,0-0.1,0.1-0.2c0.1,0,0.1,0,0.2,0.1l4.5,8.8
					C69.8,236.3,69.8,236.3,69.7,236.4C69.7,236.4,69.7,236.4,69.7,236.4z"/>
			</g>
			<g>
				<path class="st3" d="M62.9,239.8c0,0-0.1,0-0.1-0.1l-5.4-10.6c-0.3-1.8,0.2-3.4,1.2-4.2c0.7-0.5,1.7-0.7,2.8-0.5
					c1.6,0.3,3,1.4,4,2.9c0,0.1,0,0.1,0,0.2c-0.1,0-0.1,0-0.2,0c-0.9-1.5-2.3-2.5-3.8-2.8c-1-0.2-1.9,0-2.6,0.5
					c-0.9,0.7-1.4,2.2-1.1,3.9l5.4,10.6C63,239.7,63,239.8,62.9,239.8C62.9,239.8,62.9,239.8,62.9,239.8z"/>
			</g>
			<g>
				<path class="st3" d="M62.3,231.1c-0.8,0-1.4-0.6-1.4-1.4c0-0.8,0.6-1.4,1.4-1.4s1.4,0.6,1.4,1.4
					C63.7,230.4,63.1,231.1,62.3,231.1z M62.3,228.4c-0.7,0-1.2,0.5-1.2,1.2c0,0.7,0.5,1.2,1.2,1.2c0.7,0,1.2-0.5,1.2-1.2
					C63.5,229,62.9,228.4,62.3,228.4z"/>
			</g>
		</g>
		<g>
			<polygon class="st7" points="456.9,244.4 448.1,244.4 457.9,226 466.7,226 			"/>
			<path class="st7" d="M476.3,229.4c0,0.7-0.1,1.5-0.2,2.2l-2.8,5.2l-3.5,6.6h-8.8l1-1.9l8.8-16.5h4.6
				C475.9,226.3,476.3,227.8,476.3,229.4z"/>
			<path class="st7" d="M476.3,229.4c0,0.7-0.1,1.5-0.2,2.2c-0.4,1.9-1.4,3.7-2.8,5.2c-2.6,2.8-6.7,4.7-11.3,4.7c0,0-0.1,0-0.1,0
				c-3.1,0.1-7.5-1-13.3-6.1c5.7-6.3,11.5-12.6,17.2-19c3.2,2.9,6.4,5.7,9.6,8.6c0.6,1.2,0.8,2.3,0.9,3
				C476.3,228.6,476.3,229.1,476.3,229.4z"/>
			<g>
				<path class="st3" d="M463.8,241.7c-0.7,0-1.4-0.1-1.9-0.1c-0.1,0-0.1-0.1-0.1-0.1c0-0.1,0.1-0.1,0.1-0.1
					c1.4,0.2,3.5,0.3,5.8-0.5c2.9-1.1,4.7-3,5.5-4.1c0-0.1,0.1-0.1,0.2,0c0.1,0,0.1,0.1,0,0.2c-0.8,1.1-2.6,3.1-5.6,4.2
					C466.4,241.6,465,241.7,463.8,241.7z"/>
			</g>
			<g>
				<path class="st3" d="M451.8,237.8C451.8,237.8,451.8,237.8,451.8,237.8c-0.1,0-0.1-0.1-0.1-0.2l4.5-8.8c0-0.1,0.1-0.1,0.2-0.1
					c0.1,0,0.1,0.1,0.1,0.2l-4.5,8.8C451.9,237.8,451.9,237.8,451.8,237.8z"/>
			</g>
			<g>
				<path class="st3" d="M458.6,241.3C458.6,241.3,458.6,241.3,458.6,241.3c-0.1,0-0.1-0.1-0.1-0.2l5.4-10.6
					c0.3-1.6-0.2-3.2-1.1-3.9c-0.6-0.5-1.6-0.7-2.6-0.5c-1.5,0.3-2.9,1.3-3.8,2.8c0,0.1-0.1,0.1-0.2,0c-0.1,0-0.1-0.1,0-0.2
					c1-1.6,2.4-2.6,4-2.9c1.1-0.2,2.1,0,2.8,0.5c1,0.8,1.5,2.3,1.2,4.1c0,0-5.4,10.6-5.4,10.6C458.7,241.2,458.7,241.3,458.6,241.3z
					"/>
			</g>
			<g>
				<path class="st3" d="M459.2,232.5c-0.8,0-1.4-0.6-1.4-1.4c0-0.8,0.6-1.4,1.4-1.4c0.8,0,1.4,0.6,1.4,1.4
					C460.7,231.9,460,232.5,459.2,232.5z M459.2,229.9c-0.7,0-1.2,0.5-1.2,1.2c0,0.7,0.5,1.2,1.2,1.2c0.7,0,1.2-0.5,1.2-1.2
					C460.4,230.4,459.9,229.9,459.2,229.9z"/>
			</g>
		</g>
		<g id="_x31_6_2_">
			<path class="st8" d="M320.8,124.5c-1.5,1.6-3,3.3-4.4,4.9c-1.7-1-2.6-2.1-3.1-2.7c0,0-3.5-5.1,1.1-18.5c0.1-0.2,0.4-1.1,0.7-2.5
				c0,0,0.1-0.6,0.3-1.2c0.5-2.6,0.9-12.3,2.6-16.6c1-2.5,3.4-5.7,10.1-8.1c0.1,1.1,0.1,2.3,0.2,3.4c0.4,7.2,0.9,14.5,1.3,21.7
				c-1.4,5.1-2.8,10.1-4.2,15.2C323.8,121.6,322.3,123,320.8,124.5z"/>
			<path class="st8" d="M383.5,83.4c1.7,1.1,3.3,2.2,5,3.4c-1.7,4-2.8,7.4-3.6,9.7c-2.9,8.8-3.3,13.3-7.1,17.4
				c-1.5,1.6-3.1,2.7-4.2,3.3c-0.7,0.1-2.7,0.4-4.8-0.5c-2.2-0.9-3.4-2.5-3.8-3.1c1.1-3.7,2.5-6.4,3.6-8.1
				c4.5-7.6,9.7-9.6,13.4-17.7C382.7,85.9,383.2,84.4,383.5,83.4z"/>
			<path class="st8" d="M363.8,113.2l8.4-1.9c-0.4-7.2-1.8-12.2-3.1-15.5c-0.5-1.2-0.9-2.1-1.3-3.7c-1.8-6.3,0.1-7.7-1.6-11.6
				c0,0-2.3-5-7.4-6.7c-0.6-0.2-1.2-0.3-1.2-0.3c-0.2,0-0.3,0-0.4,0c-0.4,6.3-0.8,12.7-1.3,19C358.5,99.5,361.2,106.3,363.8,113.2z"
				/>
			<path class="st8" d="M394.4,238.4c-7.7,0-15.4,0-23.1,0.1c-0.2-0.9-0.4-2.2,0.1-3.6c0.2-0.5,0.4-0.9,0.5-1.1
				c0.6-1,1.3-2.6,1.7-5.5c1.4-0.2,2.8-0.3,4.2-0.5c5.3,7.1,8.3,8.6,10.1,8.4c1.3-0.1,2.5,0.6,3.7,0.6c0.8,0,1.8-0.1,2.4,0.6
				C394.3,237.8,394.4,238.2,394.4,238.4z"/>
			<path class="st8" d="M360.1,125.4c2.2,10.9-3.4,20.3-9.7,21.9c-7.2,1.8-18.1-5.6-19.2-18.8c-0.3-4.9-0.7-9.9-1-14.8
				c-0.5-0.8-1.1-1.6-1.6-2.5c0,0-0.5-0.8-1-1.7c-0.9-1.6-4.2-9.6-8.1-20.8c1-2.3,2.9-5.7,6.5-8.5c1.5-1.2,3.7-2.5,13-4.7
				c11.6-2.6,18-4,20.7-0.7c0.9,1.1,1.1,2.4,1.2,3.3c-0.3,12.3-1.1,21.3-1.7,24c-0.6,2.7-1.2,5.2-1.9,7.6
				C358.2,115,359.2,120.2,360.1,125.4z"/>
			<path class="st8" d="M347.3,82.3c-5.4-0.3-10.7-0.7-16.1-1c2.9-6.2,5.8-12.3,8.6-18.5c1.2,1.5,2.5,3,3.7,4.5
				c0.8,1,1.6,1.9,2.3,2.9c0.4,3.2,0.8,6.4,1.1,9.6C347.1,80.6,347.2,81.4,347.3,82.3z"/>
			<path class="st7" d="M338.5,83.6c0.6,1,1.7,1.3,2.4,0.9c0.5-0.3,0.6-1,0.7-1.2L338.5,83.6z"/>
			<path class="st7" d="M325.8,84.9c0.8,0.4,2,1,3.7,1.1c2.7,0.2,4.7-0.8,5.5-1.3L325.8,84.9z"/>
			<path class="st7" d="M345.3,83.8c0.8,0.2,2.2,0.5,3.8,0.3c2.7-0.3,4.4-1.8,5.1-2.4L345.3,83.8z"/>
			<path class="st8" d="M370.2,181.5c-0.3,3.5-1,10.1-3.6,10.6c-3,0.6-7-8-7.6-9.3c-3.4-7.3-7-16.8-9.6-28.3
				c-2.4-11.1-3.2-20.9-3.2-28.7c5.7,4,11.4,8.1,17.2,12.1C370.8,158.8,371,173,370.2,181.5z"/>
			<path class="st8" d="M379.4,231.9c-1.8,0.6-3.7,1.2-5.5,1.7c-0.4-1.4-1.1-3.5-2-6.1c-4.9-13.3-9.3-17.2-11.3-25.2
				c-0.9-3.6-1.6-9.1,0.1-16.6c3.2-1.6,6.3-3.2,9.5-4.8c0.6,5.8,1.4,11.9,2.3,18.2C374.3,211,376.7,221.9,379.4,231.9z"/>
			<path class="st8" d="M364.3,138.9c2,7.3-1.3,14.5-7.3,16.2c-6,1.6-12.5-2.9-14.5-10.2c-2-7.3,1.3-14.5,7.3-16.2
				C355.8,127.1,362.3,131.6,364.3,138.9z"/>
			<path class="st8" d="M300.3,238.4c7.7,0,15.4,0,23.1,0.1c0.2-0.9,0.4-2.2-0.1-3.6c-0.2-0.5-0.4-0.9-0.5-1.1
				c-0.6-1-1.3-2.6-1.7-5.5c-1.4-0.2-2.8-0.3-4.2-0.5c-5.3,7.1-8.3,8.6-10.1,8.4c-1.3-0.1-2.5,0.6-3.7,0.6c-0.8,0-1.8-0.1-2.4,0.6
				C300.4,237.8,300.3,238.2,300.3,238.4z"/>
			<path class="st8" d="M324.5,181.5c0.3,3.5,1,10.1,3.6,10.6c3,0.6,7-8,7.6-9.3c3.4-7.3,7-16.8,9.6-28.3
				c2.4-11.1,3.2-20.9,3.2-28.7c-5.7,4-11.4,8.1-17.2,12.1C324,158.8,323.7,173,324.5,181.5z"/>
			<path class="st8" d="M315.4,231.9c1.8,0.6,3.7,1.2,5.5,1.7c0.4-1.4,1.1-3.5,2-6.1c4.9-13.3,9.3-17.2,11.3-25.2
				c0.9-3.6,1.6-9.1-0.1-16.6c-3.2-1.6-6.4-3.2-9.5-4.8c-0.6,5.8-1.4,11.9-2.3,18.2C320.4,211,318,221.9,315.4,231.9z"/>
			<path class="st8" d="M329.3,139.7c-2,7.3,1.3,14.5,7.3,16.2c6,1.6,12.5-2.9,14.5-10.2c2-7.3-1.3-14.5-7.3-16.2
				C337.8,127.8,331.3,132.4,329.3,139.7z"/>
			<path class="st7" d="M343.6,67.3c-1.1,0-2.1,0.4-2.7,1.2c-2.3,3,2.8,12.1,6,11.8c0,0,0.1,0,0.2,0L343.6,67.3z"/>
			<path class="st13" d="M347.9,149.9c-5.3-5.6-10.6-11.2-15.9-16.9c-0.6,0.9-1.5,2.5-2.6,4.4c-5.9,11.4-6.3,21.9-6.5,26.5
				c-0.6,12.2-3,32.7-6.3,60c2.8,0.6,5.6,1.2,8.4,1.8c3-4.7,6.9-12.2,9-21.9c1.4-6.5,1.6-12.3,1.4-16.8
				C339.6,174.6,343.7,162.3,347.9,149.9z M323.2,199.5c-0.7,0-1.4-0.2-1.4-0.4c0-0.2,0.6-0.4,1.4-0.4c0.7,0,1.3,0.2,1.3,0.4
				C324.6,199.3,324,199.5,323.2,199.5z M324.6,196.1c-1.5,0-2.7-0.4-2.7-0.9c0-0.5,1.2-0.9,2.7-0.9c1.5,0,2.7,0.4,2.7,0.9
				C327.3,195.7,326.1,196.1,324.6,196.1z M328.1,188.8c0,0.8-1.1,1.5-2.4,1.5c-1.3,0-2.4-0.7-2.4-1.5c0-0.6,0.6-1.1,1.4-1.3
				c-0.7-0.7-1.1-1.5-1.3-1.8c0,0,0-0.1-0.1-0.1c-0.4-0.7-1.2-0.6-1.4-0.9c-0.3-0.4,0.2-1.5,1-2.2c1.5-1.2,3.7-0.4,4.7-0.1
				c1.1,0.3,4.3,1.3,4.3,3.3C332,187.2,330.2,188.6,328.1,188.8z"/>
			<path class="st13" d="M371.4,184.3c-1.2,1.8-1.9,2.7-3.1,2.9c-1.9,0.3-4-1.3-4-2.3c0-0.4,0.5-0.7,0.4-1.2c-0.1-0.6-0.7-0.7-0.6-1
				c0-0.5,1.1-0.5,2.3-1.1c1.1-0.6,1.1-1,1.9-1.4c0.9-0.5,2-0.6,3-0.4c0.1-7.8-0.5-17.5-3.1-28.4c-2.1-8.7-4.9-16.1-7.7-22
				c-4.6,7-9.2,14.1-13.8,21.1c4.5,12.3,9,24.5,13.6,36.8c-0.5,2.6-0.9,5.5-0.9,8.7c-0.1,16,8.5,27.9,12.9,33.1
				c2.2-0.7,4.5-1.4,6.7-2.1C376.5,212.7,373.9,198.5,371.4,184.3z M372.2,197.6c0,0.4-0.8,0.7-1.7,0.7c-0.9,0-1.7-0.3-1.7-0.7
				c0-0.4,0.8-0.7,1.7-0.7C371.5,196.9,372.2,197.2,372.2,197.6z M364.3,191.5c0-0.8,1.3-1.5,2.8-1.5s2.8,0.6,2.8,1.5
				c0,0.8-1.3,1.5-2.8,1.5S364.3,192.3,364.3,191.5z M370.9,203.6c-1.2,0-2.1-0.3-2.1-0.7s0.9-0.7,2.1-0.7c1.1,0,2.1,0.3,2.1,0.7
				S372.1,203.6,370.9,203.6z"/>
			<path class="st7" d="M353.9,154.1h-17.3c-3.1-4.1-6.1-8.2-9.2-12.3c1.3-3.9,2.6-7.8,4-11.7c2.9,1.2,8.7,3.1,16.1,2.4
				c6-0.6,10.5-2.6,13.1-4c1.5,3.9,3,7.8,4.4,11.7C361.3,144.8,357.6,149.5,353.9,154.1z"/>
			<path class="st17" d="M367.8,149.7c-1.3,3.1-4.2,8.4-9.9,11.2c-9.6,4.7-23.6,0.4-33-11.8c0.7-10.9,1.4-21.9,2.1-32.8
				c0.8,0.1,1.4,0.1,2-0.2c6.4-2.7,1.3-28.1-0.7-37.3c1.6-0.7,3.1-1.5,4.7-2.2c4.9,10.4,11.7,15.9,15,14.6c3.1-1.2,4.1-8.7,2.3-17.6
				c0.7-0.4,1.9-0.8,3.5-0.9c1-0.1,1.9,0,2.6,0.2C360.2,98.5,364,124.1,367.8,149.7z"/>
			<g>
				<g>
					<path class="st8" d="M360.6,59.8c-0.6,1.3-1.3,2.9-2.1,4.6c-0.2,0.3-0.4,0.7-0.6,1.1l-0.1,0.2c0,0.1-0.1,0.2-0.1,0.2
						c-0.3,0.7-0.6,1.1-0.8,1.5c0,0,0,0.1-0.1,0.1c-0.4,0.6-0.5,0.7-0.7,1.1c-0.4,0.7-0.3,1.1-0.6,1.8c-0.2,0.5-0.4,0.9-1,1.6
						c-0.3,0.4-0.7,0.9-2.7,2.6c-0.7,0.6-1,0.9-1.3,1.1c-1.5,1.2-2.8,2.2-3.9,2.3c-1.9,0.1-3.4-2.4-5.4-5.7
						c-2.3-3.8-2.4-6.2-2.3-7.3c0-0.4,0.1-0.8,0.1-1c0.4-2.5,1.2-4.2,1.7-5.2c1.6-3.4,4.1-6,5-6.9c1.3-0.1,5-0.4,8.9,1.8
						C358.2,55.7,360,58.6,360.6,59.8z"/>
					<g>
						<path class="st7" d="M348.3,67.4c-0.3,0-0.6,0-0.9-0.1c-1.4-0.3-2.1-1.4-2.3-1.8c0-0.1,0-0.1,0-0.2c0.1,0,0.1,0,0.2,0
							c0.2,0.4,0.9,1.4,2.1,1.7c0.8,0.2,1.5,0.1,1.9-0.1c0.1,0,0.1,0,0.2,0.1c0,0.1,0,0.1-0.1,0.2C349.2,67.3,348.8,67.4,348.3,67.4
							z"/>
					</g>
					<g>
						<path class="st7" d="M354.1,70C354.1,70,354.1,70,354.1,70c-1.3,0-2-1-2.2-1.3c0-0.1,0-0.1,0-0.2c0.1,0,0.1,0,0.2,0
							c0.2,0.3,0.8,1.2,1.9,1.2c0,0,0,0,0.1,0c0.7,0,1.2-0.3,1.6-0.5c0.1,0,0.1,0,0.2,0c0,0.1,0,0.1,0,0.2
							C355.5,69.7,354.9,70,354.1,70z"/>
					</g>
					<path class="st7" d="M347.9,63c0.3,0.3,0.5,0.6,0.8,0.8c0.5,0.4,1.2,0.8,2.2,1.4c0.2-0.1,0.5-0.3,0.8-0.7
						c0.1-0.2,0.2-0.3,0.2-0.5c-1.3-0.4-2-1-2.4-1.5c0,0-0.9-1.1-1.5-1.4c-0.3-0.1-0.7-0.1-0.7-0.1c0,0-1.1-0.4-1.2-0.3
						C346.1,60.9,346.8,61.9,347.9,63z"/>
					<path class="st7" d="M357.7,65.9c-0.3,0.7-0.6,1.1-0.8,1.5c0,0,0,0.1-0.1,0.1c-0.6-0.1-1.5-0.3-2.6-0.6c-0.1-0.2-0.2-0.6-0.1-1
						c0-0.2,0.1-0.4,0.2-0.5c1.2,0.6,2.1,0.7,2.7,0.6C357,66,357.3,65.9,357.7,65.9z"/>
					<path class="st7" d="M349,71.1c0,0.1,0.4,0.7,1,0.8c0.4,0.1,0.8,0,0.9-0.1L349,71.1z"/>
					<g>
						<path class="st7" d="M350.4,74.6C350.3,74.6,350.3,74.6,350.4,74.6c-0.3-0.2-0.5-0.4-0.8-0.5c-0.1-0.1-0.2-0.1-0.4-0.2
							c-0.1,0-0.2-0.1-0.3-0.1c-0.4-0.2-0.5-0.3-0.6-0.4c-0.1-0.1-0.2-0.1-0.4-0.2c-0.5-0.2-0.7,0-1.4-0.2c-0.2-0.1-0.4-0.1-0.5-0.2
							c-0.1,0-0.1-0.1,0-0.2c0-0.1,0.1-0.1,0.2,0c0.2,0.1,0.3,0.2,0.5,0.2c0.6,0.2,0.8,0,1.4,0.2c0.2,0.1,0.3,0.2,0.4,0.2
							c0.1,0.1,0.2,0.2,0.6,0.3c0.1,0.1,0.2,0.1,0.3,0.1c0.1,0,0.2,0.1,0.4,0.2c0.3,0.1,0.5,0.3,0.8,0.5
							C350.5,74.4,350.5,74.5,350.4,74.6C350.4,74.6,350.4,74.6,350.4,74.6z"/>
					</g>
					<g>
						<path class="st7" d="M348.5,75.1c0,0-1.1-0.4-1.1-0.4c-0.1,0-0.1-0.1-0.1-0.2c0-0.1,0.1-0.1,0.2-0.1l1.1,0.4
							c0.1,0,0.1,0.1,0.1,0.2C348.5,75.1,348.5,75.1,348.5,75.1z"/>
					</g>
				</g>
				<path class="st3" d="M364.6,55.1C364.6,55.1,364.6,55.1,364.6,55.1c0.4,0.6-1.2,5.1-3.5,7c-3.4,2.9-10,1.9-16.4-1.8
					c0.1-0.5,0.6-4.2-0.3-4.5c-0.7-0.2-2,1.3-2.8,2.6c-1,1.9-0.9,3.9-1.5,3.9c-0.2,0-0.4-0.3-0.6-0.6c0.3-8.2,5-14.1,9.6-14.4
					c0.4,0,4.5-0.3,6.7,2.3c1.4,1.6,1.5,3.4,3.1,3.9c1.4,0.4,2.7-0.7,3.3-0.1c0.5,0.6-0.3,1.7,0.1,2.1
					C362.8,56,364.1,54.8,364.6,55.1z"/>
			</g>
			<g>
				<path class="st15" d="M371.3,132.5c0,0,0.1-4.1,0.3-4.5c0.4-0.7,1.2-0.9,1.7-1.1c1.2-0.5,1.9-1.5,3.3-3.6
					c1.7-2.4,2.3-4.6,2.8-6.2c0.6-2.1,1-3.5,0.4-3.9c-1.2-0.9-4.5,4.1-8.4,3.5c-2.6-0.5-4.3-3.3-5.4-5c-0.9-1.4-1.6-2.7-1.7-4.4
					c-0.2-4.8,5.4-7.8,4.4-9.6c-0.5-0.8-2.1-0.7-3.2-0.7c-4.9,0.3-11.6,3.5-13.2,9.3c-0.9,3,0.4,4-0.7,6.5c-0.6,1.4-1.6,2.5-2.8,3.3
					c-2.1,0.5-4.1,1.4-5.9,2.6c0,0,0,0-0.1,0c-2.2,1.4-4.1,3.3-5.5,5.7c-5.3,8.7-2.7,20,6,25.3c8.7,5.3,20,2.7,25.3-6
					C370.8,140.2,371.6,136.2,371.3,132.5z"/>
				<path class="st7" d="M365.8,119.2l-5.4-3.3c11.4-18,22.8-35.9,34.2-53.9c1.4,0.9,2.8,1.8,4.3,2.6
					C387.9,82.8,376.9,101,365.8,119.2z"/>
				<path class="st12" d="M396.6,68.3c-1.5-0.9-3.1-1.9-4.6-2.8c2-5.1,3.9-10.3,5.9-15.4c1.8,0.5,2.7,1.4,3.3,2
					c0.8,0.9,0.9,1.7,1.8,2.1c0.8,0.4,1.3,0.1,2.4,0.4c0.7,0.2,1.6,0.6,2.5,1.6C404.1,60.2,400.4,64.2,396.6,68.3z"/>
				<path class="st3" d="M369.4,128.7c-1.8,4.6-0.4,6-1.7,9.6c-2.6,7.3-11.9,11.5-13.7,9.9c-1.2-1.1,1.7-3.9,0.2-7
					c-1.5-3.2-5.7-2.3-8.3-6.1c-0.4-0.6-1.8-2.9-1.6-5.6c0.4-3.9,3.8-4.4,7.7-9.8c3.4-4.7,3.5-8.2,5-8.2c2.1,0.1,1.5,6.8,5.8,9.1
					c4.1,2.3,9.3-1.3,10.3,0.3C374,122.1,371.3,124,369.4,128.7z"/>
				
					<rect x="344.7" y="136.9" transform="matrix(0.8509 0.5254 -0.5254 0.8509 124.9806 -163.3352)" class="st7" width="11" height="3.1"/>
				<g>
					<path class="st7" d="M393.5,60.2c-0.5,0.8-1.2,1.2-1.7,1c-0.4-0.3-0.4-1.1,0.1-1.9c0.5-0.8,1.2-1.2,1.7-1
						C394,58.6,394,59.4,393.5,60.2z"/>
					<path class="st7" d="M394.2,61.3l-1.3-0.8c-0.3-0.2-0.4-0.6-0.2-0.8c0.2-0.3,0.6-0.4,0.8-0.2l1.3,0.8c0.3,0.2,0.4,0.6,0.2,0.8
						C394.9,61.4,394.5,61.5,394.2,61.3z"/>
					<path class="st7" d="M394.8,56c-0.5,0.8-1.2,1.2-1.7,1c-0.4-0.3-0.4-1.1,0.1-1.9c0.5-0.8,1.2-1.2,1.7-1
						C395.3,54.3,395.3,55.2,394.8,56z"/>
					<path class="st7" d="M395.5,57.1l-1.3-0.8c-0.3-0.2-0.4-0.6-0.2-0.8c0.2-0.3,0.6-0.4,0.8-0.2l1.3,0.8c0.3,0.2,0.4,0.6,0.2,0.8
						C396.2,57.2,395.8,57.2,395.5,57.1z"/>
					<path class="st7" d="M397.1,52.3c-0.5,0.8-1.2,1.2-1.7,1c-0.4-0.3-0.4-1.1,0.1-1.9c0.5-0.8,1.2-1.2,1.7-1
						C397.6,50.7,397.6,51.5,397.1,52.3z"/>
					<path class="st7" d="M397.8,53.4l-1.3-0.8c-0.3-0.2-0.4-0.6-0.2-0.8c0.2-0.3,0.6-0.4,0.8-0.2l1.3,0.8c0.3,0.2,0.4,0.6,0.2,0.8
						C398.5,53.5,398.1,53.6,397.8,53.4z"/>
				</g>
				<g>
					<path class="st7" d="M400.7,64.7c-0.5,0.8-0.5,1.7-0.1,1.9c0.4,0.3,1.2-0.2,1.7-1c0.5-0.8,0.5-1.7,0.1-1.9
						C402,63.5,401.2,63.9,400.7,64.7z"/>
					<path class="st7" d="M399.4,64.5l1.3,0.8c0.3,0.2,0.7,0.1,0.8-0.2s0.1-0.7-0.2-0.8l-1.3-0.8c-0.3-0.2-0.7-0.1-0.8,0.2
						C399.1,64,399.2,64.4,399.4,64.5z"/>
					<path class="st7" d="M403.9,61.6c-0.5,0.8-0.5,1.7-0.1,1.9c0.4,0.3,1.2-0.2,1.7-1c0.5-0.8,0.5-1.7,0.1-1.9
						C405.2,60.4,404.4,60.8,403.9,61.6z"/>
					<path class="st7" d="M402.6,61.5l1.3,0.8c0.3,0.2,0.7,0.1,0.8-0.2c0.2-0.3,0.1-0.7-0.2-0.8l-1.3-0.8c-0.3-0.2-0.7-0.1-0.8,0.2
						C402.3,60.9,402.4,61.3,402.6,61.5z"/>
					<path class="st7" d="M406.2,58c-0.5,0.8-0.5,1.7-0.1,1.9c0.4,0.3,1.2-0.2,1.7-1c0.5-0.8,0.5-1.7,0.1-1.9
						C407.5,56.7,406.7,57.2,406.2,58z"/>
					<path class="st7" d="M404.9,57.8l1.3,0.8c0.3,0.2,0.7,0.1,0.8-0.2c0.2-0.3,0.1-0.7-0.2-0.8l-1.3-0.8c-0.3-0.2-0.7-0.1-0.8,0.2
						C404.5,57.2,404.6,57.6,404.9,57.8z"/>
				</g>
				<g>
					<path class="st7" d="M405.4,57.5c0,0-4.4-0.6-4.4-0.6c-0.1,0-0.1-0.1-0.1-0.1c0-0.1,0.1-0.1,0.1-0.1l4.4,0.6
						c0.1,0,0.1,0.1,0.1,0.1C405.6,57.5,405.5,57.5,405.4,57.5z"/>
				</g>
				
					<rect x="357.2" y="118.5" transform="matrix(0.8509 0.5254 -0.5254 0.8509 117.0291 -172.0223)" class="st7" width="8.6" height="3.3"/>
				<path class="st7" d="M360.4,140.2c-0.2,0.4-0.7,0.5-1,0.2c-0.4-0.2-0.5-0.7-0.2-1c0.2-0.4,0.7-0.5,1-0.2
					C360.5,139.4,360.6,139.8,360.4,140.2z"/>
				<path class="st7" d="M364,137.6c-0.3,0.5-0.9,0.6-1.4,0.3c-0.5-0.3-0.6-0.9-0.3-1.4c0.3-0.5,0.9-0.6,1.4-0.3
					C364.1,136.5,364.3,137.1,364,137.6z"/>
				<path class="st7" d="M365.8,132.8c-0.4,0.6-1.1,0.7-1.7,0.4c-0.6-0.4-0.7-1.1-0.4-1.7c0.4-0.6,1.1-0.7,1.7-0.4
					C365.9,131.5,366.1,132.3,365.8,132.8z"/>
				
					<rect x="347.7" y="132.3" transform="matrix(0.8509 0.5254 -0.5254 0.8509 123.42 -164.9771)" class="st12" width="9.3" height="5.2"/>
				<g>
					<path class="st7" d="M348.4,137.5C348.3,137.5,348.3,137.5,348.4,137.5c-0.1-0.1-0.1-0.1-0.1-0.2l47.7-77.2
						c0-0.1,0.1-0.1,0.2,0c0.1,0,0.1,0.1,0,0.2l-47.7,77.2C348.4,137.5,348.4,137.5,348.4,137.5z"/>
				</g>
				<g>
					<path class="st7" d="M349.2,138C349.1,138,349.1,138,349.2,138c-0.1-0.1-0.1-0.1-0.1-0.2l47.7-77.2l-0.6-4.1
						c0-0.1,0-0.1,0.1-0.1c0.1,0,0.1,0,0.1,0.1l0.6,4.1c0,0,0,0.1,0,0.1l-47.7,77.2C349.3,137.9,349.2,138,349.2,138z"/>
				</g>
				<g>
					<path class="st7" d="M349.9,138.4C349.9,138.4,349.9,138.4,349.9,138.4c-0.1-0.1-0.1-0.1-0.1-0.2l50.5-81.8
						c-0.8-1.2-1.5-2.5-2.3-3.7c0-0.1,0-0.1,0-0.2c0.1,0,0.1,0,0.2,0c0.8,1.3,1.6,2.5,2.4,3.8c0,0,0,0.1,0,0.1L350,138.4
						C350,138.4,350,138.4,349.9,138.4z"/>
				</g>
				<g>
					<path class="st7" d="M350.7,138.9C350.6,138.9,350.6,138.9,350.7,138.9c-0.1-0.1-0.1-0.1-0.1-0.2l50.6-82c0-0.1,0.1-0.1,0.2,0
						c0.1,0,0.1,0.1,0,0.2l-50.6,82C350.7,138.9,350.7,138.9,350.7,138.9z"/>
				</g>
				<g>
					<path class="st7" d="M351.4,139.4C351.4,139.4,351.4,139.4,351.4,139.4c-0.1-0.1-0.1-0.1-0.1-0.2L399,61.9c0,0,0,0,0.1-0.1
						l3.6-1.2c0.1,0,0.1,0,0.2,0.1c0,0.1,0,0.1-0.1,0.2l-3.6,1.2l-47.7,77.2C351.5,139.3,351.5,139.4,351.4,139.4z"/>
				</g>
				<g>
					<path class="st7" d="M352.3,139.9C352.2,139.9,352.2,139.9,352.3,139.9c-0.1-0.1-0.1-0.1-0.1-0.2l47.7-77.2
						c0-0.1,0.1-0.1,0.2,0c0.1,0,0.1,0.1,0,0.2l-47.7,77.2C352.4,139.9,352.3,139.9,352.3,139.9z"/>
				</g>
				<g>
					<path class="st7" d="M351.8,139.6c-0.1,0-0.1,0-0.1-0.1c0-0.1,0-0.1,0.1-0.2l9.5-2.7c0.1,0,0.1,0,0.2,0.1c0,0.1,0,0.1-0.1,0.2
						L351.8,139.6C351.8,139.6,351.8,139.6,351.8,139.6z"/>
				</g>
				<path class="st7" d="M363,137.7c-1.2,0.6-2.3,0.6-2.6,0c-0.3-0.5,0.5-1.4,1.6-2c1.2-0.6,2.3-0.6,2.6,0
					C364.9,136.3,364.2,137.2,363,137.7z"/>
			</g>
			<path class="st8" d="M354.7,126.7c-0.4,2-0.9,3.9-1.3,5.9c-4.8-0.1-8.7,0-11.5,0.1c-10.2,0.5-15,1.7-20.8-0.4
				c-2.3-0.9-4-2-5.1-2.7c-0.5-0.6-1.5-2.3-1.5-4.7c0-2.4,1.1-4,1.6-4.7c4.2-0.3,7.6,0.1,9.7,0.4c9.6,1.5,13.9,5.6,23.7,6.1
				C351.7,126.9,353.6,126.8,354.7,126.7z"/>
			<path class="st8" d="M385.6,94.4c-0.9-1.3-1.9-2.5-2.8-3.8c0.3-1,0.5-2,0.8-3c-0.4,0.3-0.9,0.4-1.3,0.1c-0.4-0.3-0.6-0.8-0.5-1.3
				c2.3-1.7,4.7-3.4,7-5.1c0.5,0.6,2,2.5,2.1,5.2C390.8,89.9,388.8,92.9,385.6,94.4z"/>
			<g>
				<path class="st7" d="M328,110.4c-0.1,0-0.1-0.1-0.1-0.2l1.9-5.7c0-0.1,0.1-0.1,0.2-0.1c0.1,0,0.1,0.1,0.1,0.2l-1.9,5.7
					C328.1,110.4,328.1,110.4,328,110.4z"/>
			</g>
			<path class="st8" d="M355.8,134.5c-2.5-0.6-5-1.3-7.6-1.9c0.1-1.9,0.1-3.9,0.2-5.8c3.4-1,6.7-2.1,10.1-3.1
				c0.6,2.4,1.1,4.8,1.7,7.3C358.7,132.1,357.2,133.3,355.8,134.5z"/>
			<path class="st8" d="M356.1,127.2c-1.9,0.1-3.9,0.1-5.8,0.2c1-1.3,2-2.5,3-3.8c1.1-1.2,2.1-1.7,2.6-1.4c0.4,0.2,0.3,1,0.2,1.4
				C356.1,124.8,356.1,126,356.1,127.2z"/>
			<g>
				<path class="st7" d="M324.6,239.1h-26.3c0-0.4,0-1.1,0.4-1.7c0.5-0.8,1.4-1,1.7-1.1c1.6-0.4,6.9-2.6,14.6-6.1
					c1.6,3.8,2.8,4.7,3.7,4.7c1.2,0,2-1.7,3.2-1.4c0.7,0.2,1.1,0.8,1.3,1.4c0.2,0.2,1,0.7,1.3,1.8
					C325,237.9,324.7,238.8,324.6,239.1z"/>
				<path class="st3" d="M324.4,240.2h-26.3c-0.5,0-0.9-0.4-0.9-0.9c0-0.5,0.4-0.9,0.9-0.9h26.3c0.5,0,0.9,0.4,0.9,0.9
					C325.3,239.8,324.9,240.2,324.4,240.2z"/>
			</g>
			<g>
				<path class="st7" d="M370,238.9h26.3c0-0.4,0-1.1-0.4-1.7c-0.5-0.8-1.4-1-1.7-1.1c-1.6-0.4-6.9-2.6-14.6-6.1
					c-1.6,3.8-2.8,4.7-3.7,4.7c-1.2,0-2-1.7-3.2-1.4c-0.7,0.2-1.1,0.8-1.3,1.4c-0.2,0.2-1,0.7-1.3,1.8
					C369.6,237.8,369.9,238.7,370,238.9z"/>
				<path class="st3" d="M370.2,240.1h26.3c0.5,0,0.9-0.4,0.9-0.9c0-0.5-0.4-0.9-0.9-0.9h-26.3c-0.5,0-0.9,0.4-0.9,0.9
					C369.3,239.7,369.7,240.1,370.2,240.1z"/>
			</g>
		</g>
		<g>
			<path class="st7" d="M315,246.6c-14,0-21.6-1.4-26.4-7.7c-5.8-7.6-6.1-20.2-0.6-25c3-2.6,6.4-1.8,10-1c3.5,0.8,7,1.7,10.9-0.1
				c6.2-2.8,7.3-10.5,8.6-20.3c1.4-10.4,3.2-23.3,12.1-34.9c3.4-4.4,7.5-8.4,12.2-11.6c0.2-0.1,0.4-0.1,0.5,0.1
				c0.1,0.2,0.1,0.4-0.1,0.5c-4.7,3.2-8.7,7.1-12.1,11.5c-8.7,11.5-10.5,24.3-11.9,34.6c-1.4,10-2.5,17.9-9,20.9
				c-4.1,1.9-8,1-11.4,0.1c-3.6-0.8-6.7-1.6-9.4,0.8c-5.1,4.5-4.7,16.8,0.7,24c6.2,8.1,17.7,7.8,42.9,7l4.6-0.1
				c22.2-0.7,64.9-1.6,84.7-1.8l4.5,0c14.8-0.1,42.3-0.4,42.6-3.4c0-0.5-1.1-1.1-2-1.7c-1.4-0.8-2.9-1.7-2.8-3c0.2-2,4.2-2.5,9.8-3
				c7.3-0.8,16.4-1.7,18-6.7c1.7-5.3-5-14.7-13.6-18.9c-13.6-6.7-27.6,1.8-29.2,2.7c-0.2,0.1-0.4,0.1-0.5-0.1
				c-0.1-0.2-0.1-0.4,0.1-0.5c1.6-1,16-9.6,29.9-2.8c8.2,4,16.1,13.5,14,19.8c-1.8,5.5-11.1,6.5-18.6,7.2c-4.7,0.5-9,0.9-9.2,2.4
				c-0.1,0.8,1.3,1.6,2.4,2.3c1.3,0.7,2.5,1.4,2.4,2.4c-0.3,3.5-19,3.9-43.4,4.1l-4.5,0c-19.8,0.2-62.5,1.2-84.7,1.8l-4.6,0.1
				C325.5,246.4,319.9,246.6,315,246.6z"/>
		</g>
	</g>
</g>
</svg>
