<?xml version="1.0" encoding="UTF-8"?>
<svg id="Camada_2" data-name="Camada 2" xmlns="http://www.w3.org/2000/svg" viewBox="0 0 269.83 354.63">
  <defs>
    <style>
      .cls-1 {
        fill: #f88867;
      }

      .cls-1, .cls-2, .cls-3, .cls-4, .cls-5, .cls-6, .cls-7, .cls-8, .cls-9, .cls-10, .cls-11, .cls-12, .cls-13 {
        stroke-width: 0px;
      }

      .cls-2 {
        fill: #171a25;
      }

      .cls-3 {
        fill: #fabf01;
      }

      .cls-4 {
        fill: #fd5b42;
      }

      .cls-5 {
        fill: #385360;
      }

      .cls-6 {
        fill: #243845;
      }

      .cls-14 {
        fill: none;
        stroke: #df9380;
        stroke-linecap: round;
        stroke-linejoin: round;
        stroke-width: .66px;
      }

      .cls-7 {
        fill: #f9af8b;
      }

      .cls-8 {
        fill: #0787eb;
      }

      .cls-9 {
        fill: #fff;
      }

      .cls-10 {
        fill: #0069d2;
      }

      .cls-11 {
        fill: #dc3e2f;
      }

      .cls-12 {
        fill: #fa9c01;
      }

      .cls-13 {
        fill: #171e21;
      }
    </style>
  </defs>
  <g id="Camada_1-2" data-name="Camada 1">
    <g>
      <g>
        <g>
          <path class="cls-7" d="m207.2,134.01c-8.7-3.53-9.64-3.42-19.37-9.31,0,0,.01-.01,0-.03-.13-.09-2.33-1.55-3.11-2.21-2.32-1.97-5.13-5.07-7.2-9.18-.25-.49-.49-1.05-.71-1.69-1.56-4.22-2.64-11.35-3.42-18.58h.01s12.52-12.36,12.52-12.36c0,0,1.74-1.16,2.69-2.1.74,12.28-1.18,6.43,2.27,20.97.73,3.14,1.72,6.29,3.03,9.3.4.95.85,1.9,1.33,2.82,3.41,1.9,11.49,8.63,15.6,10.5,4.29,1.96,9.94,4.63,9.94,4.63-2.96,7.77-10.25,8.72-13.58,7.24Z"/>
          <path class="cls-10" d="m192.16,98.16s-.47.52-1.29,1.36c-2.65,2.73-8.88,8.93-14.07,12.06-1.02.62-2,1.12-2.92,1.45,0,0-2.7-13.96-.51-20.02l1.21-6.7,7.92-16.91s7.49,4.07,7.91,9.64c.95,8.35,1.1,12.86,1.74,19.12Z"/>
        </g>
        <g>
          <g>
            <path class="cls-7" d="m186.8,304.57l-3.48,10.38c-2.51.63-6.47.29-9.24-.63l2.11-11.94s7.09-.64,10.61,2.19Z"/>
            <g>
              <path class="cls-3" d="m172,328.48c0,.84-.02,1.67-.05,2.48l38.1,5.59c.12-.83.13-1.67.03-2.49-.29-2.43-1.51-4.69-3.47-6.26-5.32-4.27-13.68-7.13-13.68-7.13-2.13-2.69-8.92-7.66-8.92-7.66-6.47,1.58-9.74-.05-9.74-.05-2.38,5.17-2.22,10.47-2.27,15.51Z"/>
              <path class="cls-12" d="m172,328.48c0,.84-.02,1.67-.05,2.48l38.1,5.59c.12-.83.13-1.67.03-2.49l-38.09-5.59Z"/>
            </g>
          </g>
          <path class="cls-2" d="m175.37,304.63l11.1,4.81,26.65-77.72-40.34-52.18-33.68,5.55c15.6,21.65,31.05,41.32,45.89,53.29-4.81,9.99-7.4,35.53-9.62,66.25Z"/>
        </g>
        <g>
          <g>
            <path class="cls-7" d="m115.78,326.4l-2.69,10.73c-2.39.99-6.36,1.23-9.24.71l1.37-12.06s6.66-1.68,10.56.62Z"/>
            <g>
              <path class="cls-3" d="m103.85,352.16c.12.83.22,1.65.31,2.47h38.51c0-.84-.11-1.67-.33-2.47-.64-2.36-2.18-4.42-4.35-5.69-5.89-3.46-14.57-5.06-14.57-5.06-2.5-2.35-9.94-6.28-9.94-6.28-6.17,2.5-9.64,1.36-9.64,1.36-1.61,5.46-.68,10.68.01,15.68Z"/>
              <path class="cls-12" d="m103.85,352.16c.12.83.22,1.65.31,2.47h38.51c0-.84-.11-1.67-.33-2.47h-38.49Z"/>
            </g>
          </g>
          <path class="cls-6" d="m103.85,328.82c2.38-25.66,7.43-65.17,14.57-76.3l-1.93-83.51,32.51,7.71-4.78,77.27-27.92,76.91c-6.29.95-10.11-.75-12.45-2.07Z"/>
        </g>
        <path class="cls-8" d="m112.45,174.35c17.72,14.71,43.4,13.64,62.92,7.77l7.08-112.99-11.95-4.08-.96-.33-2.72-.93-16.71-5.7-3.09.42-3.89.52-.93.13-17.33,2.34-5.2,72.53-7.22,40.32Z"/>
        <g>
          <g>
            <path class="cls-7" d="m144.38,59.76c4.1,4.38,9.14,6.26,15.11,5.65,1.19-4.81,3.13-8.13,5.33-10.91-.66-1.76-2.1-5.13-4.37-7.84-1.07-.99-2.22-2-3.38-2.93-2.11-1.21-4.65-1.6-7.62-.37-.23,2.19-.54,4.24-1.1,6.43-.74,2.87-1.92,5.99-3.97,9.97Z"/>
            <path class="cls-1" d="m149.45,43.36c-.23,2.19-.54,4.24-1.1,6.43.92,4.78,3.59,11.48,11.14,15.62,1.19-4.81,3.13-8.13,5.33-10.91-.66-1.76-2.1-5.13-4.37-7.84-1.07-.99-2.22-2-3.38-2.93-2.11-1.21-4.65-1.6-7.62-.37Z"/>
          </g>
          <g>
            <path class="cls-1" d="m181.84,38.07s4.72-1.92,5.68,1.73c.96,3.65-5.36,13.36-11.31,10,0,0,1.47-6.53,5.63-11.72Z"/>
            <path class="cls-7" d="m153.81,19.23l-.02.04s.01-.01.04-.04c-.01,0-.02,0-.02,0Z"/>
            <path class="cls-7" d="m149.24,35.13c-.06.54-.1,1.08-.14,1.61,0,.14-.02.29-.03.43-.03.53-.05,1.06-.05,1.59-.14,10.63,4.24,19.61,14.7,20.69,13.66,1.4,22.76-22.2,23.42-23.97.02,0,.09-.17.17-.42.47-1.46.66-2.99.54-4.52-.31-4.15-2.19-11.62-11.34-15.65-12.64-5.59-19.04-1.52-21.64,2.16-.02.03-1.08,2.23-1.08,2.23-2.43,5.03-4,10.55-4.55,15.85Z"/>
            <path class="cls-7" d="m154.89,25.45s-3.7-4.63-6.65-2.28c-2.95,2.35-3.72,13.9,3.06,14.78,0,0,3.81-5.85,3.59-12.5Z"/>
            <path class="cls-1" d="m149.08,37.16c-.03.53-.05,1.06-.05,1.59.88.35,2.21.48,3.7-.82,0,0-2.44.23-3.64-.78Z"/>
          </g>
          <path class="cls-6" d="m160.79,22.51c-1.66,1.9-2.06,6.8-4.11,8.89l-2.29-.43s2.04-4.7-2.23-7.92c0,0,2.13-10.23,6.17-12.28,4.04-2.05,34.31,1.4,29.39,22.49,0,0-2.98.09-4.43-3.02-1.46-3.11-5.01-5.02-6.78-4.76-1.77.26-7.58.81-9.71-1.34-2.12-2.16-4.73-3.1-6.02-1.63Z"/>
          <path class="cls-4" d="m152.45,14.99s1.08-4.6,5.48-10.01c9.34-11.5,31.43-1.66,31.95,15.13,0,0-29.3-9.48-37.43-5.11Z"/>
          <path class="cls-11" d="m152.16,23.05s12.39-9.7,36.57,6.59c0,0,2.22-5.06,1.15-9.54,0,0-24.35-12.1-37.43-5.11,0,0-3.01,5.66-.29,8.06Z"/>
          <path class="cls-6" d="m187.73,33.26l-.89-.67s-1.47,5.3-2.77,9.09c-.69,2.03-3.23,5.68-5.83,8.82-1.74-4.1-6.08-2.41-9.34-3.27-3.23-.85-5.18-4.72-8.47-4.71-3.08,0-4.98-.69-5.98-1.2.3-2.12.76-3.97,1.21-4.96,1.48-3.21,2.75-8.1,2.75-8.1l-4.02,2.73s-6.76,19.03-6.08,22.66c.68,3.63,2.91,3.86,2.82,9.52-.09,5.67,9.81,10.29,12.76,7.56,2.95-2.73,4.72-2.51,7.65-4.99,2.94-2.49,4.18-6.43,5.68-9.62,1.5-3.2,5.29-8.74,7.29-12.98,2.01-4.23,3.22-9.86,3.22-9.86Zm-15.23,22.87c-2.6,1.29-4.69,2.31-7.05-.72-2.36-3.04-5.39-.5-9.05-2.09-1.31-.57-1.97-2.5-2.2-4.9,1.13-.24,2.74-1.67,6.84-1.26.79.08,3.52,2.75,5.48,3.45,2.73.98,3.49-.49,6.17,1.23,1.34.86,1.87,1.79,2.06,2.49-.91.88-1.7,1.53-2.26,1.8Z"/>
        </g>
        <g>
          <path class="cls-2" d="m16.41,258.2c-3.49-16.82-2.52-27.75,3.14-35.45,5.98-8.14,17.62-12.81,36.62-14.7,28.68-2.85,45.74-23.05,45.91-23.25l.91.76c-.17.21-17.53,20.78-46.71,23.67-18.64,1.85-30.01,6.37-35.78,14.22-5.44,7.41-6.35,18.05-2.93,34.51l-1.16.24Z"/>
          <rect class="cls-6" x="102.41" y="179.34" width="3.88" height="8.61" rx=".89" ry=".89" transform="translate(174.37 -15.63) rotate(48.97)"/>
          <path class="cls-11" d="m207.6,162.25c-2.77,11.64-9.69,13.29-20.95,14.25-13.26,1.13-21.21,8.92-30.55,26.67-9.34,17.75-24.88,12.07-34.89-1.9l-11.94-16.66c-1.89-2.63-3.43-5.36-4.56-8.06-4.88-11.66-2.11-23.04,13.97-25.59,19.81-3.14,29.74-8.17,35.06-20.36,4.53-10.36,18.78-27.17,26.48-25.09.28.08.54.16.78.25,4.67,1.77,2.96,6.52,1.33,11.26-1.29,3.73-1.26,7.85-.02,11.67.84,2.57,2.23,5.01,4.14,7.09,2.34,2.54,3.2,4.66,6.83,4.62,4.73-.06,8.06,2.02,10.34,4.95,4.14,5.33,4.78,13.49,3.97,16.91Z"/>
          <path class="cls-4" d="m204.67,156.62c-2.77,11.64-9.69,13.3-20.94,14.26-13.26,1.12-21.21,8.91-30.55,26.66-9.34,17.75-24.88,12.07-34.89-1.9l-11.94-16.65c-.58-.8-1.12-1.62-1.63-2.44-4.88-11.66-2.11-23.04,13.97-25.59,19.81-3.14,29.74-8.17,35.06-20.36,4.53-10.36,18.78-27.17,26.48-25.09.28.08.54.16.78.25-.25,1.74-.93,3.69-1.6,5.63-1.96,5.69-.87,12.28,2.91,17.3.84,2.57,2.23,5.01,4.14,7.09,2.34,2.54,3.2,4.66,6.83,4.62,4.73-.06,8.06,2.02,10.34,4.95,1.47,4.36,1.6,8.93,1.04,11.28Z"/>
          <rect class="cls-6" x="158.81" y="147.01" width="27.63" height="9.3" transform="translate(195.33 -77) rotate(54.37)"/>
          <rect class="cls-6" x="138.58" y="159.11" width="27.63" height="14.09" transform="translate(198.67 -54.5) rotate(54.37)"/>
          <rect class="cls-6" x="129.37" y="171.39" width="27.63" height="3" transform="translate(200.29 -44.21) rotate(54.37)"/>
          <rect class="cls-6" x="121.96" y="175.65" width="27.63" height="5.1" transform="translate(201.51 -35.97) rotate(54.37)"/>
          <rect class="cls-6" x="166.7" y="113.87" width="99.02" height="11.99" transform="translate(-29.35 148.4) rotate(-35.63)"/>
          <path class="cls-6" d="m247.57,111.03c-5.09,5.68-9.25-1.08-9.25-1.08l-2.82-3.92-2.81-3.93s-5.06-6.11,1.95-9.1c7.01-2.99,8.81-1.91,11.84-7.14,2.97-5.11,9.27-15.55,19.7-1.82,9.65,14.28-2.26,16.9-8.05,18.07-5.93,1.2-5.48,3.24-10.56,8.92Z"/>
          <g>
            <rect class="cls-9" x="117.26" y="131.47" width="155.97" height=".41" transform="translate(-40.16 138.19) rotate(-35.58)"/>
            <path class="cls-9" d="m133.26,179.06c42.61-30.7,84.07-60.42,126.77-90.86l.24.34c-42.7,30.44-84.16,60.16-126.77,90.86l-.24-.33Z"/>
            <path class="cls-9" d="m135.23,181.81l-.24-.34c42.8-30.42,84.27-60.14,126.77-90.86l.24.33c-42.5,30.72-83.97,60.44-126.77,90.86Z"/>
          </g>
          <path class="cls-6" d="m251.24,83.57c-1.53,1.1-3.66.75-4.76-.79-1.1-1.53-.75-3.66.79-4.76,1.53-1.1,3.66-.75,4.76.79,1.1,1.53.75,3.66-.79,4.76Z"/>
          <path class="cls-6" d="m239.61,93.39c-1.53,1.1-3.66.75-4.76-.79-1.1-1.53-.75-3.66.79-4.76,1.53-1.1,3.66-.75,4.76.79,1.1,1.53.75,3.66-.79,4.76Z"/>
          <path class="cls-6" d="m261.58,97.99c-1.53,1.1-1.88,3.23-.79,4.76,1.1,1.53,3.23,1.88,4.76.79,1.53-1.1,1.88-3.23.79-4.76-1.1-1.53-3.23-1.88-4.76-.79Z"/>
          <path class="cls-6" d="m248.54,105.85c-1.53,1.1-1.88,3.23-.79,4.76,1.1,1.53,3.23,1.88,4.76.79,1.53-1.1,1.88-3.23.79-4.76-1.1-1.53-3.23-1.88-4.76-.79Z"/>
          <path class="cls-9" d="m142.08,198.18c-1.03.74-2.47.5-3.21-.53-.74-1.03-.5-2.47.53-3.21,1.03-.74,2.47-.5,3.21.53.74,1.03.5,2.47-.53,3.21Z"/>
          <path class="cls-9" d="m174.49,118.99c-1.03.74-2.47.5-3.21-.53-.74-1.03-.5-2.47.53-3.21,1.03-.74,2.47-.5,3.21.53.74,1.03.5,2.47-.53,3.21Z"/>
          <path class="cls-9" d="m139.86,205.31c-1.03.74-2.47.5-3.21-.53-.74-1.03-.5-2.47.53-3.21,1.03-.74,2.47-.5,3.21.53.74,1.03.5,2.47-.53,3.21Z"/>
          <path class="cls-9" d="m133.64,200.58c-1.03.74-2.47.5-3.21-.53-.74-1.03-.5-2.47.53-3.21,1.03-.74,2.47-.5,3.21.53.74,1.03.5,2.47-.53,3.21Z"/>
        </g>
        <g>
          <path class="cls-7" d="m124.78,61.61s-17.12,27.19-18.37,63.05c0,0,3.87,25.12,16.87,43.31,2.74-.22,6.57-1.6,8.93-3.53,0,0-12.01-27.46-11.26-41.42l14.35-36.86s-4.15-14.97-10.53-24.55Z"/>
          <path class="cls-7" d="m126.82,160.15s3.16-1.36,5.92,1.25c2.76,2.61,5.49,4.14,6.52,5.1,1.03.95-.17,4-4.43,0,0,0,3.22,7.25,6.36,11.6,3.14,4.34-8.17,9.39-12.24,5.94-4.08-3.46-14.7-21.18-2.11-23.89Z"/>
          <path class="cls-10" d="m124.78,61.61s-14.08,18.73-15.76,35.16c0,0,12.88,9.22,20.73,10.37l5.56-20.98s1.8-18.09-10.53-24.55Z"/>
        </g>
        <path class="cls-7" d="m211.37,136.12c-5.12-.95-7.22-4.41-4.21-10.04,3.01-5.64,9.25-7.9,9.25-7.9,0,0,2.59-3,4.12-2.66,1.49.34,1.34,2.57-1.61,4.74,1.47,1.48,2.99,3.59,2.67,5.79-.58,4.11-5.11,11.02-10.22,10.07Z"/>
        <g>
          <rect class="cls-6" y="260.62" width="81.97" height="92.69" rx="4.74" ry="4.74"/>
          <g>
            <path class="cls-2" d="m13.57,258.08h6.83c.64,0,1.17.52,1.17,1.17v1.37h-9.17v-1.37c0-.64.52-1.17,1.17-1.17Z"/>
            <path class="cls-2" d="m28.14,258.08h6.83c.64,0,1.17.52,1.17,1.17v1.37h-9.17v-1.37c0-.64.52-1.17,1.17-1.17Z"/>
            <path class="cls-2" d="m61.57,258.08h6.83c.64,0,1.17.52,1.17,1.17v1.37h-9.17v-1.37c0-.64.52-1.17,1.17-1.17Z"/>
          </g>
          <rect class="cls-2" x="13.3" y="289.06" width="55.37" height="52.86" rx="2.71" ry="2.71"/>
          <rect class="cls-5" x="13.3" y="270.73" width="55.37" height="8.23" rx=".66" ry=".66"/>
          <g>
            <path class="cls-5" d="m10.33,344.17c0,1.24-1.01,2.25-2.25,2.25s-2.25-1.01-2.25-2.25,1.01-2.25,2.25-2.25,2.25,1.01,2.25,2.25Z"/>
            <path class="cls-5" d="m76.13,344.17c0,1.24-1.01,2.25-2.25,2.25s-2.25-1.01-2.25-2.25,1.01-2.25,2.25-2.25,2.25,1.01,2.25,2.25Z"/>
            <path class="cls-5" d="m10.33,289.06c0,1.24-1.01,2.25-2.25,2.25s-2.25-1.01-2.25-2.25,1.01-2.25,2.25-2.25,2.25,1.01,2.25,2.25Z"/>
            <path class="cls-5" d="m76.13,289.06c0,1.24-1.01,2.25-2.25,2.25s-2.25-1.01-2.25-2.25,1.01-2.25,2.25-2.25,2.25,1.01,2.25,2.25Z"/>
          </g>
        </g>
      </g>
      <g>
        <path class="cls-13" d="m170.18,36.5c-.33.64-1.11.89-1.74.57-.64-.33-.89-1.11-.57-1.74.33-.64,1.11-.89,1.74-.57.64.33.89,1.11.57,1.74Z"/>
        <path class="cls-13" d="m180.43,40.72c-.33.64-1.11.89-1.74.57-.64-.33-.89-1.11-.57-1.74.33-.64,1.11-.89,1.74-.57.64.33.89,1.11.57,1.74Z"/>
        <path class="cls-13" d="m166.84,31.37c.06.06.12.11.19.15l4.89,3.25c.55.36,1.28.21,1.65-.33.36-.55.22-1.28-.33-1.65l-4.89-3.25c-.55-.36-1.28-.21-1.65.33-.32.48-.24,1.1.15,1.49Z"/>
        <path class="cls-13" d="m178.61,38.15c.07.02.15.04.23.05l3.56.42c.65.08,1.24-.39,1.32-1.04.08-.65-.39-1.24-1.04-1.32l-3.56-.42c-.65-.08-1.24.39-1.32,1.04-.07.57.28,1.09.81,1.26Z"/>
        <line class="cls-14" x1="166.15" y1="52.8" x2="163.51" y2="51.68"/>
        <path class="cls-14" d="m173.37,41.43l-1.1,3.51s-.97,1.72-3.24-.06"/>
      </g>
    </g>
  </g>
</svg>