<?xml version="1.0" encoding="UTF-8"?>
<svg id="Camada_2" data-name="Camada 2" xmlns="http://www.w3.org/2000/svg" viewBox="0 0 350.38 334.97">
  <defs>
    <style>
      .cls-1 {
        stroke: #16132b;
        stroke-width: 1.42px;
      }

      .cls-1, .cls-2, .cls-3, .cls-4 {
        fill: none;
      }

      .cls-1, .cls-2, .cls-4 {
        stroke-miterlimit: 10;
      }

      .cls-5 {
        fill: #100909;
      }

      .cls-5, .cls-6, .cls-7, .cls-8, .cls-9, .cls-10, .cls-11, .cls-12, .cls-13 {
        stroke-width: 0px;
      }

      .cls-6 {
        fill: #231b3b;
      }

      .cls-7 {
        fill: #df9380;
      }

      .cls-8 {
        fill: #f1bb9d;
      }

      .cls-9 {
        fill: #dedede;
      }

      .cls-10 {
        fill: #211210;
      }

      .cls-11 {
        fill: #16132b;
      }

      .cls-2 {
        stroke: #dedede;
        stroke-width: .79px;
      }

      .cls-12 {
        fill: #f9d080;
      }

      .cls-3 {
        stroke: #df9380;
        stroke-linecap: round;
        stroke-linejoin: round;
        stroke-width: .6px;
      }

      .cls-13 {
        fill: #e9e1e1;
      }

      .cls-4 {
        stroke: #bd7256;
        stroke-width: 1.47px;
      }
    </style>
  </defs>
  <g id="Camada_1-2" data-name="Camada 1">
    <g>
      <g>
        <g>
          <path class="cls-10" d="m177.03,56.68s35.04-3.13,31.5,23.77c-3.54,26.9-.71,36.43,11.81,35.35,0,0-33.35,20.25-41.78-9.51-6.64-23.44,9.94-38.25,9.94-38.25l-11.47-11.37Z"/>
          <g>
            <path class="cls-8" d="m189.89,118.97l2.9-24.63-17.66-2.07-2.9,24.63c-.57,4.88,2.92,9.29,7.8,9.86h0c4.88.57,9.29-2.92,9.86-7.8Z"/>
            <path class="cls-7" d="m193.26,95.73s-4.42,20.86-20.69,18.54l1.25-10.56,19.43-7.98Z"/>
          </g>
          <path class="cls-5" d="m169.81,59.71s-16.4,8.61-8.95,22.98l6.84-8.04,2.12-14.94Z"/>
          <path class="cls-7" d="m169.68,87.87c-.41,3.4-3.5,5.82-6.9,5.41-3.4-.41-5.82-3.5-5.41-6.9.41-3.4,3.5-5.82,6.9-5.41,3.4.41,5.82,3.5,5.41,6.9Z"/>
          <path class="cls-8" d="m176.09,111.02h0c-9.45-1.15-16.5-7.79-15.35-17.25l2.29-18.85c.5-4.12,5.76-14.12,9.87-13.62l19.73,2.4c4.12.5,5.28,11.29,4.78,15.41l-1.97,16.19c-1.15,9.45-11.38,16.69-19.36,15.72Z"/>
          <g>
            <path class="cls-10" d="m185.05,101.65l-.33-.79c-.52-1.23-1.48-2.3-2.73-3.05l-9.15-4.24c-.89-.54-2.02-.67-3.01-.37l-7.31,2.24c-1.4.43-2.58,1.24-3.38,2.31l-.51.69c-.25.34.14.77.59.65l11.56-1.1,13.55,4.15c.4.23.89-.1.72-.49Z"/>
            <path class="cls-10" d="m178.31,85.67c-.04.76.55,1.4,1.3,1.44s1.4-.55,1.44-1.3c.04-.76-.55-1.4-1.3-1.44-.76-.04-1.4.55-1.44,1.3Z"/>
            <path class="cls-10" d="m165.48,84.01c-.04.76.55,1.4,1.3,1.44s1.4-.55,1.44-1.3c.04-.76-.55-1.4-1.3-1.44-.76-.04-1.4.55-1.44,1.3Z"/>
            <path class="cls-3" d="m170.7,85.43l-1.05,5.6s-.02,2.09,3.01,1.65"/>
            <path class="cls-10" d="m183.67,83.51c-.08,0-.17,0-.25-.02l-6.13-1.01c-.68-.11-1.15-.76-1.03-1.44.11-.68.75-1.14,1.44-1.03l6.13,1.01c.68.11,1.15.76,1.03,1.44-.1.6-.61,1.03-1.19,1.05Z"/>
            <path class="cls-10" d="m168.48,81.32c-.08,0-.17,0-.25-.02l-3.74-.62c-.68-.11-1.15-.76-1.03-1.44.11-.69.76-1.15,1.44-1.04l3.74.62c.68.11,1.15.76,1.03,1.44-.1.6-.6,1.03-1.19,1.05Z"/>
            <line class="cls-3" x1="169.59" y1="99.61" x2="173.48" y2="100.36"/>
          </g>
          <path class="cls-10" d="m174.63,63.21s15.18,7.77,16.59,27.28l6.16.75,1.62-25.07-21.96-9.49-7.22,3.03,4.82,3.5Z"/>
          <path class="cls-10" d="m174.63,63.21s-5.21-.32-11.59,11.72l-1.56-1.57-.49-5.28s3.25-9.57,16.05-11.39l-2.4,6.53Z"/>
          <path class="cls-8" d="m203.53,91.99c-.41,3.4-3.5,5.82-6.9,5.41s-5.82-3.5-5.41-6.9c.41-3.4,3.5-5.82,6.9-5.41,3.4.41,5.82,3.5,5.41,6.9Z"/>
          <path class="cls-13" d="m160.98,68.07s8.5-5.87,47.12,7.94c.72.26,1.22.94,1.14,1.71l-.6,5.68c-.07.69-.79,1.11-1.43.83-5.34-2.42-26.49-12.53-48.42-9.64,0,0-.45-4.16,2.18-6.52Z"/>
        </g>
        <g>
          <g>
            <path class="cls-8" d="m127.89,100.65l.59-55.67-8.43,1.71-11.5,51.26c-1.2,5.16,5.52,10.37,10.82,10.49h0c4.47.1,8.22-3.33,8.52-7.79Z"/>
            <path class="cls-8" d="m123.38,97.75l34.82,21.99-1.2,23.13s-32.86-15.89-48.61-41.75l14.99-3.36Z"/>
            <path class="cls-8" d="m174.4,129.64c.62,7.63-4.17,14.43-10.71,15.18-6.54.75-22.01-14.54-22.63-22.18-.62-7.63,8.35-7.41,20.38-5.47,6.5,1.05,12.34,4.83,12.96,12.47Z"/>
            <g>
              <line class="cls-4" x1="159.97" y1=".47" x2="111.95" y2="57.27"/>
              <g>
                <path class="cls-8" d="m132.77,41.57c0,6.27-5.09,11.36-11.36,11.36s-11.36-5.08-11.36-11.36,5.08-11.36,11.36-11.36,11.36,5.09,11.36,11.36Z"/>
                <path class="cls-8" d="m128.48,35.02s6.21-1.72,6.12,2.6c-.15,7.31-3.57,13.15-8.38,14.23-4.81,1.08,2.26-16.83,2.26-16.83Z"/>
              </g>
            </g>
          </g>
          <g>
            <path class="cls-8" d="m253.86,151.75l-30.63-18.26c-5.97-7.48-12.09-10.2-15.48-10.52l-17.44-4.33-27.8-2.04-6.82,27.55.71,60.31c15.73,20.17,45.94,12.08,45.94,12.08,0,0-.39-39.56,1.75-45.86,1.49-4.36,5.71-13.3,9.25-18.36l29.84,15.23c3.32,2.48,8.08,1.82,10.58-1.65,2.34-3.26,3.2-11.59.09-14.13Z"/>
            <path class="cls-12" d="m201.88,120.01s-10.67,51.75,5.42,44.27c0,0-4.02,5.97-4.41,16.62l-.55,35.63s-33.46,8.76-49.49-12.08l.99-48.09s-1.81-5.66,3.74-24.27l5.05-15.5,5.58-.3s-9.84,31.78,7.4,30.97c16.66-.79,18.9-28.05,18.9-28.05l7.37.81Z"/>
          </g>
          <g>
            <path class="cls-8" d="m253.87,166.67l39.39-39.35-7.22-4.68-44.1,28.56c-4.47,2.85-3.32,11.27.38,15.07h0c3.12,3.2,8.21,3.38,11.54.4Z"/>
            <g>
              <line class="cls-4" x1="274.58" y1="67.04" x2="297.36" y2="137.84"/>
              <g>
                <path class="cls-8" d="m284.9,116.63c-2.39,5.8.38,12.44,6.18,14.83,5.8,2.39,12.44-.38,14.83-6.18,2.39-5.8-.38-12.44-6.18-14.83-5.8-2.39-12.44.38-14.83,6.18Z"/>
                <path class="cls-8" d="m291.36,112.2s-5.08-3.96-6.65.08c-2.64,6.82-1.71,13.52,2.33,16.35,4.04,2.83,4.32-16.42,4.32-16.42Z"/>
              </g>
            </g>
          </g>
        </g>
      </g>
      <g>
        <g>
          <rect class="cls-11" x="63.31" y="207.33" width="93.48" height="87.94"/>
          <rect class="cls-9" x="58.4" y="204.46" width="81.47" height="5.74"/>
          <rect class="cls-9" x="58.4" y="292.4" width="81.47" height="5.74"/>
          <line class="cls-2" x1="83.15" y1="207.33" x2="83.15" y2="295.27"/>
          <line class="cls-2" x1="109.34" y1="207.33" x2="109.34" y2="295.27"/>
        </g>
        <g>
          <rect class="cls-11" x="223.67" y="207.33" width="39.76" height="28.54"/>
          <line class="cls-2" x1="248.9" y1="206.55" x2="248.9" y2="236.84"/>
          <rect class="cls-9" x="188.4" y="204.46" width="78.6" height="5.74"/>
          <rect class="cls-9" x="188.4" y="233" width="78.6" height="5.74"/>
        </g>
        <g>
          <rect class="cls-11" x="177.75" y="150.53" width="50.59" height="43.28"/>
          <rect class="cls-9" x="174.54" y="147.67" width="57.39" height="5.74"/>
          <line class="cls-2" x1="191.37" y1="151.3" x2="191.37" y2="192.87"/>
          <line class="cls-2" x1="214.58" y1="151.3" x2="214.58" y2="192.87"/>
          <rect class="cls-9" x="174.54" y="192.4" width="57.39" height="5.74"/>
        </g>
        <g>
          <polygon class="cls-11" points="128.5 301.65 110.92 333.48 117.55 333.48 136.78 308.94 128.5 301.65"/>
          <polygon class="cls-11" points="237.57 301.65 255.14 333.48 248.51 333.48 229.28 308.94 237.57 301.65"/>
          <circle class="cls-6" cx="184.49" cy="258.62" r="71.52" transform="translate(-128.83 206.2) rotate(-45)"/>
          <circle class="cls-9" cx="184.49" cy="258.62" r="62.1" transform="translate(-128.83 206.2) rotate(-45)"/>
        </g>
      </g>
      <g>
        <line class="cls-1" x1="47.23" y1="175.78" x2="47.23" y2="334.97"/>
        <line class="cls-1" x1="47.23" y1="305.63" x2="15.16" y2="333.68"/>
        <line class="cls-1" x1="47.85" y1="305.63" x2="79.92" y2="333.68"/>
        <path class="cls-12" d="m90.92,179.71l-35.01-10.65s0-.04,0-.06c0-2.99-3.72-5.42-8.32-5.42-3.66,0-6.74,1.55-7.85,3.69l-39.27,1.59c-.62.03-.66.93-.04,1.01l90.25,10.89c.66.08.86-.86.22-1.06Z"/>
      </g>
      <g>
        <line class="cls-1" x1="303.71" y1="148.68" x2="303.71" y2="334.97"/>
        <line class="cls-1" x1="303.71" y1="305.63" x2="271.63" y2="333.68"/>
        <line class="cls-1" x1="304.32" y1="305.63" x2="336.4" y2="333.68"/>
        <g>
          <path class="cls-12" d="m349.25,170.14l-36.3-6.64c-.89-2.48-3.8-4.43-7.98-4.43-4.12,0-7.12,2.17-7.98,4.56l-38.82,6.06c-.62.1-.55,1,.08,1.01l90.91.52c.66,0,.75-.96.1-1.08Z"/>
          <path class="cls-12" d="m349.88,177.1l-90.91-.52c-.66,0-.75.96-.1,1.08l37.71,6.9c1,2.35,3.82,4.18,7.86,4.18,4.25,0,7.3-2.3,8.05-4.77l37.47-5.85c.62-.1.55-1-.08-1.01Z"/>
        </g>
      </g>
    </g>
  </g>
</svg>