<?xml version="1.0" encoding="UTF-8"?>
<svg id="Camada_2" data-name="Camada 2" xmlns="http://www.w3.org/2000/svg" viewBox="0 0 187.86 326.48">
  <defs>
    <style>
      .cls-1 {
        fill: #06063c;
      }

      .cls-1, .cls-2, .cls-3, .cls-4, .cls-5, .cls-6, .cls-7, .cls-8 {
        stroke-width: 0px;
      }

      .cls-2 {
        fill: #210b04;
      }

      .cls-3 {
        fill: #ff5f77;
      }

      .cls-4 {
        fill: #f5c400;
      }

      .cls-5 {
        fill: #df9750;
      }

      .cls-6 {
        fill: #fff;
      }

      .cls-7 {
        fill: #ffbd8f;
      }

      .cls-8 {
        fill: #191919;
      }
    </style>
  </defs>
  <g id="Camada_1-2" data-name="Camada 1">
    <g id="_16" data-name="16">
      <path class="cls-7" d="m39.92,130.55c-2.5,2.78-5,5.57-7.5,8.35-2.9-1.64-4.41-3.48-5.2-4.64,0,0-5.89-8.67,1.78-31.26.11-.33.67-1.93,1.22-4.15,0,0,.25-.99.45-2.01.88-4.32,1.51-20.8,4.43-28.09,1.68-4.18,5.81-9.58,17.16-13.75.1,1.94.19,3.88.29,5.82.73,12.23,1.45,24.47,2.18,36.7-2.35,8.56-4.7,17.11-7.05,25.67-2.59,2.46-5.18,4.91-7.76,7.37Z"/>
      <path class="cls-7" d="m146.08,61.03c2.82,1.9,5.65,3.8,8.47,5.69-2.83,6.8-4.81,12.49-6.11,16.49-4.85,14.92-5.52,22.53-12.05,29.49-2.62,2.79-5.28,4.51-7.1,5.53-1.25.24-4.51.7-8.2-.82-3.72-1.53-5.71-4.17-6.43-5.22,1.89-6.23,4.27-10.78,6.01-13.68,7.67-12.8,16.42-16.32,22.67-30.03,1.42-3.13,2.27-5.8,2.74-7.44Z"/>
      <path class="cls-7" d="m112.71,111.45l14.19-3.3c-.69-12.13-3.1-20.57-5.28-26.16-.8-2.07-1.48-3.49-2.27-6.24-3.05-10.63.18-13.11-2.68-19.55,0,0-3.94-8.54-12.52-11.29-1.02-.33-2.03-.47-2.03-.47-.27-.04-.5-.06-.7-.08-.71,10.74-1.43,21.49-2.14,32.23,4.47,11.61,8.95,23.23,13.42,34.84Z"/>
      <path class="cls-7" d="m164.56,323.47c-13.05.04-26.1.07-39.14.11-.38-1.47-.68-3.66.22-6.01.34-.89.73-1.48.93-1.8,1.03-1.65,2.25-4.44,2.91-9.37,2.37-.27,4.73-.54,7.1-.81,8.96,12.06,14.03,14.47,17.03,14.3,2.12-.12,4.16,1.05,6.28,1.07,1.36.01,3.04-.12,4.01.97.44.5.6,1.1.66,1.55Z"/>
      <path class="cls-7" d="m106.45,132.1c3.72,18.44-5.69,34.39-16.43,37.15-12.15,3.12-30.57-9.49-32.45-31.81-.58-8.34-1.16-16.69-1.73-25.03-.92-1.37-1.84-2.79-2.74-4.25,0,0-.87-1.42-1.71-2.86-1.52-2.63-7.15-16.19-13.67-35.2,1.7-3.81,4.95-9.6,11.01-14.31,2.53-1.97,6.26-4.29,22.04-7.89,19.57-4.46,30.45-6.81,35.05-1.26,1.51,1.82,1.93,3.99,2.05,5.55-.45,20.79-1.92,36.07-2.88,40.68-.95,4.54-2.06,8.81-3.27,12.79,1.57,8.81,3.15,17.62,4.72,26.43Z"/>
      <path class="cls-7" d="m84.86,59.13c-9.07-.59-18.14-1.17-27.26-1.76,4.89-10.45,9.78-20.9,14.63-31.35,2.09,2.55,4.18,5.14,6.27,7.69,1.3,1.63,2.63,3.22,3.93,4.85.63,5.43,1.3,10.83,1.92,16.26.17,1.42.33,2.88.5,4.31Z"/>
      <path class="cls-2" d="m69.83,61.42c1.05,1.68,2.9,2.2,4,1.56.92-.53,1.09-1.73,1.12-1.95l-5.12.39Z"/>
      <path class="cls-2" d="m48.39,63.62c1.27.69,3.41,1.64,6.2,1.88,4.54.38,7.97-1.35,9.32-2.13l-15.52.25Z"/>
      <path class="cls-2" d="m81.36,61.69c1.39.41,3.68.88,6.46.53,4.52-.58,7.51-3,8.66-4.04l-15.12,3.52Z"/>
      <path class="cls-7" d="m123.61,227.02c-.55,5.86-1.71,17.11-6.01,17.93-5.16.99-11.81-13.61-12.8-15.82-5.74-12.31-11.93-28.41-16.22-47.85-4.14-18.74-5.36-35.39-5.43-48.65,9.68,6.83,19.36,13.66,29.03,20.5,12.35,35.52,12.77,59.64,11.42,73.89Z"/>
      <path class="cls-7" d="m139.08,312.45c-3.12.98-6.25,1.95-9.37,2.93-.7-2.34-1.84-5.97-3.44-10.31-8.28-22.45-15.71-29.04-19.12-42.71-1.52-6.1-2.7-15.47.19-28.1,5.37-2.72,10.75-5.44,16.12-8.17,1,9.85,2.3,20.11,3.97,30.73,3.16,20.11,7.21,38.7,11.66,55.63Z"/>
      <path class="cls-7" d="m113.51,154.97c3.38,12.33-2.14,24.58-12.32,27.37-10.19,2.79-21.18-4.94-24.56-17.26-3.38-12.33,2.14-24.58,12.32-27.37,10.19-2.79,21.18,4.94,24.56,17.26Z"/>
      <path class="cls-7" d="m5.26,323.47c13.05.04,26.1.07,39.14.11.38-1.47.68-3.66-.22-6.01-.34-.89-.73-1.48-.93-1.8-1.03-1.65-2.25-4.44-2.91-9.37-2.37-.27-4.73-.54-7.1-.81-8.96,12.06-14.03,14.47-17.03,14.3-2.12-.12-4.16,1.05-6.28,1.07-1.36.01-3.04-.12-4.01.97-.44.5-.6,1.1-.66,1.55Z"/>
      <path class="cls-7" d="m46.21,227.02c.55,5.86,1.71,17.11,6.01,17.93,5.16.99,11.81-13.61,12.8-15.82,5.74-12.31,11.93-28.41,16.22-47.85,4.14-18.74,5.36-35.39,5.43-48.65-9.68,6.83-19.36,13.66-29.03,20.5-12.35,35.52-12.77,59.64-11.42,73.89Z"/>
      <path class="cls-7" d="m30.74,312.45c3.12.98,6.25,1.95,9.37,2.93.7-2.34,1.84-5.97,3.44-10.31,8.28-22.45,15.71-29.04,19.12-42.71,1.52-6.1,2.7-15.47-.19-28.1-5.37-2.72-10.75-5.44-16.12-8.17-1,9.85-2.3,20.11-3.97,30.73-3.16,20.11-7.21,38.7-11.66,55.63Z"/>
      <path class="cls-7" d="m54.35,156.28c-3.38,12.33,2.14,24.58,12.32,27.37,10.19,2.79,21.18-4.94,24.56-17.26,3.38-12.33-2.14-24.58-12.32-27.37-10.19-2.79-21.18,4.94-24.56,17.26Z"/>
      <path class="cls-2" d="m78.51,33.71c-1.84.08-3.55.71-4.51,1.96-3.93,5.1,4.72,20.48,10.16,19.9.08,0,.21-.04.29-.08l-5.94-21.78Z"/>
      <path class="cls-1" d="m85.74,173.55c-8.95-9.53-17.89-19.02-26.84-28.55-1,1.59-2.59,4.18-4.35,7.53-9.99,19.27-10.62,37.08-11.04,44.86-1.09,20.69-5.1,55.27-10.7,101.59,4.72.96,9.49,1.97,14.26,2.97,5.1-8.03,11.71-20.57,15.26-37.12,2.34-11.08,2.68-20.82,2.34-28.39,7.02-20.99,14.05-41.93,21.07-62.88Zm-41.68,83.95c-1.25,0-2.3-.29-2.3-.71,0-.38,1.05-.67,2.3-.67s2.26.29,2.26.67c0,.42-1,.71-2.26.71Zm2.26-5.64c-2.51,0-4.56-.71-4.56-1.55s2.05-1.51,4.56-1.51,4.6.67,4.6,1.51-2.05,1.55-4.6,1.55Zm5.94-12.46c0,1.42-1.84,2.55-4.1,2.55s-4.1-1.13-4.1-2.47c0-1,.96-1.84,2.34-2.22-1.21-1.17-1.92-2.51-2.22-3.09-.04-.04-.08-.13-.13-.25-.67-1.13-1.97-1-2.38-1.59-.5-.75.42-2.59,1.76-3.68,2.51-1.96,6.31-.75,8.03-.25,1.8.54,7.36,2.26,7.36,5.52,0,2.88-2.88,5.23-6.56,5.48Z"/>
      <path class="cls-1" d="m125.58,231.87c-2.05,3.01-3.26,4.56-5.18,4.85-3.22.54-6.81-2.22-6.69-3.85.08-.75.88-1.17.75-2.09-.17-.96-1.13-1.17-1.05-1.76.08-.79,1.8-.79,3.85-1.84,1.84-.96,1.8-1.63,3.14-2.34,1.46-.79,3.43-1,5.06-.71.25-13.17-.84-29.6-5.23-47.99-3.51-14.8-8.32-27.3-13-37.25-7.78,11.87-15.59,23.79-23.41,35.7,7.65,20.78,15.3,41.51,22.95,62.29-.88,4.47-1.5,9.36-1.5,14.67-.13,27.01,14.42,47.16,21.91,56.06,3.8-1.21,7.57-2.42,11.37-3.6-4.35-24.08-8.65-48.12-12.96-72.16Zm1.42,22.41c0,.71-1.3,1.25-2.88,1.25s-2.88-.54-2.88-1.25c0-.67,1.3-1.21,2.88-1.21s2.88.54,2.88,1.21Zm-13.46-10.24c0-1.38,2.13-2.47,4.77-2.47s4.77,1.09,4.77,2.47-2.13,2.47-4.77,2.47-4.77-1.09-4.77-2.47Zm11.25,20.4c-1.97,0-3.55-.59-3.55-1.25s1.59-1.25,3.55-1.25,3.51.59,3.51,1.25-1.59,1.25-3.51,1.25Z"/>
      <path class="cls-2" d="m96.02,180.68h-29.26c-5.2-6.94-10.4-13.88-15.6-20.83,2.24-6.59,4.48-13.19,6.72-19.78,4.91,2,14.71,5.21,27.18,4.03,10.07-.95,17.71-4.38,22.11-6.78,2.5,6.6,5.01,13.21,7.51,19.81-6.22,7.85-12.43,15.7-18.65,23.55Z"/>
      <path class="cls-5" d="m119.53,173.3c-2.26,5.31-7.15,14.22-16.71,18.88-16.24,7.9-39.92.59-55.8-19.96,1.21-18.51,2.42-37.03,3.63-55.54,1.32.24,2.4.11,3.31-.27,10.8-4.54,2.26-47.49-1.12-63.11,2.64-1.23,5.28-2.46,7.92-3.69,8.34,17.63,19.88,26.87,25.44,24.66,5.16-2.05,6.95-14.69,3.83-29.72,1.27-.6,3.3-1.38,5.9-1.55,1.75-.12,3.24.07,4.36.31,6.42,43.33,12.84,86.66,19.26,129.99Z"/>
      <g>
        <g>
          <path class="cls-7" d="m107.37,21.06c-.96,2.22-2.17,4.85-3.64,7.82-.33.59-.63,1.17-.96,1.8l-.17.38c-.08.13-.17.29-.25.42-.59,1.13-1,1.88-1.38,2.47-.04.08-.08.13-.13.17-.63,1-.84,1.17-1.17,1.92-.63,1.25-.5,1.8-.96,2.97-.31.79-.73,1.46-1.71,2.76-.46.6-1.24,1.56-4.51,4.47-1.16,1.04-1.74,1.56-2.15,1.89-2.49,2-4.67,3.76-6.64,3.88-3.22.2-5.76-4.01-9.14-9.63-3.91-6.5-4-10.45-3.84-12.35.06-.68.16-1.35.23-1.76.67-4.18,2.05-7.16,2.8-8.74,2.73-5.77,6.94-10.1,8.49-11.62,2.26-.25,8.49-.63,15.05,3.01,6.02,3.3,8.99,8.11,10.08,10.16Z"/>
          <path class="cls-2" d="m86.49,33.92c-.46,0-.95-.05-1.46-.18-2.3-.58-3.49-2.33-3.9-3.05-.06-.1-.02-.23.08-.29.1-.06.23-.02.29.08.38.68,1.5,2.31,3.63,2.85,1.32.33,2.47.11,3.21-.13.12-.04.23.02.27.13.04.11-.02.23-.13.27-.5.17-1.19.32-1.98.32Z"/>
          <path class="cls-2" d="m96.38,38.35s-.08,0-.12,0c-2.13-.06-3.33-1.72-3.64-2.22-.06-.1-.03-.23.07-.29.1-.06.23-.03.29.07.29.46,1.38,1.97,3.3,2.02.03,0,.07,0,.11,0,1.11,0,2.03-.47,2.63-.88.1-.07.23-.04.29.06.07.1.04.23-.06.29-.64.44-1.65.95-2.87.95Z"/>
          <path class="cls-2" d="m85.78,26.53c.56.59.86.97,1.4,1.37.8.6,2,1.35,3.76,2.32.3-.13.93-.45,1.38-1.13.19-.29.3-.56.36-.79-2.14-.66-3.31-1.66-3.99-2.49,0,0-1.57-1.92-2.6-2.29-.56-.2-1.11-.18-1.11-.18-.07,0-1.89-.73-2.05-.56-.18.17,1,1.84,2.84,3.76Z"/>
          <path class="cls-2" d="m102.35,31.47c-.59,1.13-1,1.88-1.38,2.47-.04.08-.08.13-.13.17-1.09-.17-2.47-.46-4.39-1.05-.13-.29-.33-.96-.17-1.76.04-.33.17-.63.29-.79,1.97,1.05,3.51,1.13,4.56,1.05,0,0,.54-.08,1.21-.08Z"/>
          <path class="cls-2" d="m87.66,40.12c.08.15.62,1.12,1.78,1.37.74.16,1.35-.07,1.58-.17l-3.36-1.2Z"/>
          <path class="cls-2" d="m89.96,46.09s-.1-.02-.14-.05c-.37-.32-.78-.59-1.22-.81-.25-.13-.42-.19-.61-.26-.14-.05-.3-.11-.5-.2-.61-.27-.87-.46-1.08-.62-.17-.13-.3-.23-.6-.33-.85-.29-1.2.04-2.36-.34-.31-.1-.61-.24-.91-.41-.1-.06-.14-.19-.08-.29.06-.1.19-.14.29-.08.26.15.54.28.83.37,1.07.36,1.41.02,2.36.34.37.13.54.26.72.4.2.15.42.32.99.57.2.09.35.14.48.19.2.07.38.14.65.28.47.23.91.52,1.3.86.09.08.1.21.02.3-.04.05-.1.08-.16.08Z"/>
          <path class="cls-2" d="m86.74,46.97c-.08-.01-1.87-.71-1.87-.71-.11-.04-.16-.16-.12-.27.04-.11.16-.17.27-.12l1.8.69c.11.04.16.16.12.27-.03.08-.11.14-.2.14Z"/>
        </g>
        <path class="cls-8" d="m114,13.14s.03.03.07.09c.54.9-2.08,8.46-6.02,11.82-5.69,4.84-16.85,3.26-27.82-3.03.15-.93,1.08-7.1-.52-7.68-1.15-.42-3.43,2.14-4.66,4.44-1.75,3.29-1.58,6.53-2.52,6.61-.38.03-.74-.49-.99-.96C72.01,10.49,80.07.6,87.8.03c.66-.05,7.54-.45,11.41,3.83,2.39,2.64,2.5,5.78,5.18,6.53,2.39.67,4.65-1.18,5.55-.13.81.94-.58,2.89.2,3.59.87.78,3.03-1.3,3.85-.72Z"/>
      </g>
      <g>
        <path class="cls-3" d="m125.41,144.06s.11-6.92.56-7.66c.71-1.19,2.01-1.46,2.95-1.83,2-.78,3.17-2.6,5.66-6.11,2.88-4.06,3.9-7.72,4.67-10.49.98-3.53,1.63-5.86.67-6.59-2.04-1.55-7.66,7.02-14.23,5.86-4.38-.77-7.31-5.54-9.13-8.49-1.51-2.45-2.79-4.64-2.89-7.53-.3-8.09,9.09-13.25,7.51-16.17-.78-1.43-3.61-1.26-5.47-1.14-8.34.5-19.57,5.98-22.39,15.73-1.46,5.05.61,6.82-1.23,11.01-1.03,2.35-2.76,4.18-4.81,5.65-3.54.83-6.92,2.3-10,4.32-.04,0-.07.02-.11.03-3.64,2.44-6.86,5.65-9.32,9.62-9.04,14.65-4.5,33.85,10.14,42.89,14.65,9.04,33.85,4.5,42.89-10.14,3.64-5.9,5.05-12.53,4.51-18.95Z"/>
        <path class="cls-2" d="m116.19,121.55l-9.15-5.65c19.27-30.4,38.54-60.81,57.81-91.21l7.22,4.46c-18.63,30.8-37.26,61.6-55.89,92.4Z"/>
        <path class="cls-4" d="m168.29,35.41c-2.59-1.6-5.19-3.2-7.78-4.8,3.34-8.71,6.68-17.41,10.03-26.12,2.98.9,4.6,2.29,5.53,3.42,1.3,1.56,1.45,2.83,3.02,3.62,1.44.72,2.24.13,4.08.61,1.14.3,2.64,1,4.19,2.75-6.36,6.84-12.71,13.69-19.07,20.53Z"/>
        <path class="cls-6" d="m122.28,137.63c-3.03,7.78-.68,10.18-2.8,16.23-4.34,12.37-20.19,19.43-23.26,16.7-2.02-1.8,2.87-6.67.34-11.89-2.62-5.4-9.6-3.81-14.08-10.39-.72-1.05-3.1-4.85-2.63-9.41.67-6.54,6.47-7.43,13.01-16.65,5.71-8.04,5.96-13.93,8.54-13.83,3.58.15,2.62,11.48,9.86,15.48,6.96,3.84,15.72-2.28,17.48.56,1.29,2.06-3.37,5.3-6.46,13.2Z"/>
        <rect class="cls-2" x="80.41" y="151.6" width="18.55" height="5.28" transform="translate(94.41 -24.12) rotate(31.69)"/>
        <g>
          <path class="cls-2" d="m162.98,21.83c-.83,1.35-2.11,2.07-2.86,1.62-.74-.46-.67-1.93.17-3.28.83-1.35,2.11-2.07,2.86-1.62.74.46.67,1.93-.17,3.28Z"/>
          <path class="cls-2" d="m164.23,23.65l-2.18-1.35c-.49-.3-.64-.94-.34-1.43s.94-.64,1.43-.34l2.18,1.35c.49.3.64.94.34,1.43-.3.49-.94.64-1.43.34Z"/>
          <path class="cls-2" d="m165.2,14.63c-.83,1.35-2.11,2.07-2.86,1.62-.74-.46-.67-1.93.17-3.28.83-1.35,2.11-2.07,2.86-1.62.74.46.67,1.93-.17,3.28Z"/>
          <path class="cls-2" d="m166.46,16.45l-2.18-1.35c-.49-.3-.64-.94-.34-1.43s.94-.64,1.43-.34l2.18,1.35c.49.3.64.94.34,1.43s-.94.64-1.43.34Z"/>
          <path class="cls-2" d="m169.03,8.43c-.83,1.35-2.11,2.07-2.86,1.62-.74-.46-.67-1.93.17-3.28.83-1.35,2.11-2.07,2.86-1.62.74.46.67,1.93-.17,3.28Z"/>
          <path class="cls-2" d="m170.29,10.25l-2.18-1.35c-.49-.3-.64-.94-.34-1.43s.94-.64,1.43-.34l2.18,1.35c.49.3.64.94.34,1.43s-.94.64-1.43.34Z"/>
        </g>
        <g>
          <path class="cls-2" d="m175.23,29.4c-.83,1.35-.91,2.82-.17,3.28.74.46,2.02-.26,2.86-1.62.83-1.35.91-2.82.17-3.28-.74-.46-2.02.26-2.86,1.62Z"/>
          <path class="cls-2" d="m173.04,29.09l2.18,1.35c.49.3,1.13.15,1.43-.34s.15-1.13-.34-1.43l-2.18-1.35c-.49-.3-1.13-.15-1.43.34-.3.49-.15,1.13.34,1.43Z"/>
          <path class="cls-2" d="m180.67,24.18c-.83,1.35-.91,2.82-.17,3.28.74.46,2.02-.26,2.86-1.62.83-1.35.91-2.82.17-3.28-.74-.46-2.02.26-2.86,1.62Z"/>
          <path class="cls-2" d="m178.48,23.88l2.18,1.35c.49.3,1.13.15,1.43-.34.3-.49.15-1.13-.34-1.43l-2.18-1.35c-.49-.3-1.13-.15-1.43.34s-.15,1.13.34,1.43Z"/>
          <path class="cls-2" d="m184.5,17.98c-.83,1.35-.91,2.82-.17,3.28.74.46,2.02-.26,2.86-1.62s.91-2.82.17-3.28c-.74-.46-2.02.26-2.86,1.62Z"/>
          <path class="cls-2" d="m182.31,17.67l2.18,1.35c.49.3,1.13.15,1.43-.34.3-.49.15-1.13-.34-1.43l-2.18-1.35c-.49-.3-1.13-.15-1.43.34s-.15,1.13.34,1.43Z"/>
        </g>
        <path class="cls-2" d="m183.21,17.22s-7.43-1.02-7.43-1.02c-.12-.02-.2-.12-.18-.24.02-.12.12-.2.24-.18l7.4,1.02c.12.02.2.12.18.24-.01.11-.11.18-.21.18Z"/>
        <rect class="cls-2" x="101.55" y="120.41" width="14.63" height="5.55" transform="translate(80.96 -38.82) rotate(31.69)"/>
        <path class="cls-2" d="m107.01,157.15c-.37.6-1.17.79-1.77.42-.6-.37-.79-1.17-.42-1.77.37-.6,1.17-.79,1.77-.42.6.37.79,1.17.42,1.77Z"/>
        <path class="cls-2" d="m113.01,152.79c-.49.79-1.52,1.03-2.31.55-.79-.49-1.03-1.52-.55-2.31.49-.79,1.52-1.03,2.31-.55s1.03,1.52.55,2.31Z"/>
        <path class="cls-2" d="m116.04,144.68c-.6.97-1.86,1.27-2.83.67s-1.27-1.86-.67-2.83c.6-.97,1.86-1.27,2.83-.67s1.27,1.86.67,2.83Z"/>
        <rect class="cls-4" x="85.4" y="143.82" width="15.71" height="8.76" transform="translate(91.77 -26.89) rotate(31.7)"/>
        <path class="cls-2" d="m86.58,152.66s-.08,0-.11-.03c-.1-.06-.13-.19-.07-.29L167.12,21.6c.06-.1.19-.13.29-.07.1.06.13.19.07.29l-80.73,130.73c-.04.06-.11.1-.18.1Z"/>
        <path class="cls-2" d="m87.96,153.39s-.08,0-.11-.03c-.1-.06-.13-.19-.07-.29L168.46,22.4l-1.01-6.87c-.02-.11.06-.22.18-.24.13-.03.22.06.24.18l1.02,6.94s0,.1-.03.14l-80.73,130.73c-.04.06-.11.1-.18.1Z"/>
        <path class="cls-2" d="m89.26,154.2s-.08,0-.11-.03c-.1-.06-.13-.19-.07-.29L174.59,15.4c-1.31-2.1-2.62-4.21-3.93-6.31-.06-.1-.03-.23.07-.29.1-.06.23-.03.29.07,1.33,2.14,2.67,4.28,4,6.42.04.07.04.15,0,.22l-85.58,138.59c-.04.06-.11.1-.18.1Z"/>
        <path class="cls-2" d="m90.47,154.94s-.08,0-.11-.03c-.1-.06-.13-.19-.07-.29L175.96,15.88c.06-.1.19-.13.29-.07.1.06.13.19.07.29l-85.67,138.74c-.04.06-.11.1-.18.1Z"/>
        <path class="cls-2" d="m91.8,155.76s-.08,0-.11-.03c-.1-.06-.13-.19-.07-.29L172.34,24.7s.06-.07.11-.09l6.12-2.11c.11-.04.23.02.27.13.04.11-.02.23-.13.27l-6.05,2.08-80.69,130.67c-.04.06-.11.1-.18.1Z"/>
        <path class="cls-2" d="m93.2,156.63s-.08,0-.11-.03c-.1-.06-.13-.19-.07-.29L173.75,25.57c.06-.1.19-.13.29-.07.1.06.13.19.07.29l-80.73,130.73c-.04.06-.11.1-.18.1Z"/>
        <path class="cls-2" d="m92.41,156.14c-.09,0-.18-.06-.2-.15-.03-.11.03-.23.15-.26l16.07-4.54c.12-.03.23.03.26.15.03.11-.03.23-.15.26l-16.07,4.54s-.04,0-.06,0Z"/>
        <path class="cls-2" d="m111.41,152.96c-1.95.94-3.89.96-4.32.05-.44-.91.79-2.41,2.74-3.34,1.95-.94,3.89-.96,4.32-.05.44.91-.79,2.41-2.74,3.34Z"/>
      </g>
      <path class="cls-7" d="m97.24,134.32c-.75,3.32-1.51,6.64-2.26,9.96-8.13-.2-14.77,0-19.4.22-17.27.84-25.32,2.95-35.17-.65-3.95-1.44-6.82-3.31-8.62-4.65-.77-1.08-2.6-3.96-2.6-7.96,0-4.02,1.86-6.84,2.63-7.89,7.16-.48,12.8.11,16.49.7,16.29,2.56,23.56,9.47,40.18,10.38,3.79.21,6.87.04,8.74-.12Z"/>
      <path class="cls-7" d="m149.61,79.72c-1.58-2.13-3.17-4.27-4.75-6.4.44-1.69.89-3.38,1.33-5.08-.62.56-1.53.64-2.24.21-.72-.44-1.05-1.32-.81-2.13,3.95-2.87,7.9-5.75,11.84-8.62.93,1.07,3.46,4.3,3.48,8.88.03,5.41-3.44,10.52-8.86,13.13Z"/>
      <path class="cls-2" d="m52.13,106.77c-.18-.05-.24-.17-.2-.28l3.26-9.61c.04-.11.16-.17.27-.13.11.04.17.16.13.27l-3.26,9.61c-.03.09-.11.14-.2.14Z"/>
      <path class="cls-7" d="m99.14,147.46c-4.27-1.08-8.55-2.17-12.82-3.25.11-3.3.22-6.6.33-9.9,5.69-1.74,11.39-3.49,17.08-5.23.96,4.09,1.92,8.19,2.87,12.28-2.49,2.03-4.98,4.07-7.47,6.1Z"/>
      <path class="cls-7" d="m99.77,135.22c-3.28.09-6.56.17-9.84.26,1.71-2.13,3.43-4.27,5.14-6.4,1.82-2.02,3.6-2.91,4.35-2.4.62.42.47,1.74.35,2.4v6.14Z"/>
      <g>
        <path class="cls-2" d="m46.34,324.56H1.79c-.05-.73,0-1.9.7-2.92.9-1.3,2.42-1.66,2.87-1.79,2.68-.71,11.62-4.48,24.76-10.25,2.63,6.43,4.75,8.04,6.33,7.99,2.03-.06,3.46-2.84,5.49-2.35,1.11.27,1.82,1.38,2.25,2.32.41.28,1.7,1.24,2.28,3.08.6,1.89.05,3.47-.13,3.92Z"/>
        <path class="cls-6" d="m46.05,326.48H1.45c-.8,0-1.45-.65-1.45-1.45s.65-1.45,1.45-1.45h44.6c.8,0,1.45.65,1.45,1.45s-.65,1.45-1.45,1.45Z"/>
      </g>
      <g>
        <path class="cls-2" d="m123.2,324.32h44.55c.05-.73,0-1.9-.7-2.92-.9-1.3-2.42-1.66-2.87-1.79-2.68-.71-11.62-4.48-24.76-10.25-2.63,6.43-4.75,8.04-6.33,7.99-2.03-.06-3.46-2.84-5.49-2.35-1.11.27-1.82,1.38-2.25,2.32-.41.28-1.7,1.24-2.28,3.08-.6,1.89-.05,3.47.13,3.92Z"/>
        <path class="cls-6" d="m123.49,326.23h44.6c.8,0,1.45-.65,1.45-1.45s-.65-1.45-1.45-1.45h-44.6c-.8,0-1.45.65-1.45,1.45s.65,1.45,1.45,1.45Z"/>
      </g>
    </g>
  </g>
</svg>