<?xml version="1.0" encoding="UTF-8"?>
<svg id="Camada_2" data-name="Camada 2" xmlns="http://www.w3.org/2000/svg" viewBox="0 0 248.66 344.12">
  <defs>
    <style>
      .cls-1 {
        fill: #06063c;
      }

      .cls-1, .cls-2, .cls-3, .cls-4, .cls-5, .cls-6, .cls-7, .cls-8, .cls-9 {
        stroke-width: 0px;
      }

      .cls-2 {
        fill: #210b04;
      }

      .cls-3 {
        fill: #bb53d4;
      }

      .cls-4 {
        fill: #ff5f77;
      }

      .cls-6 {
        fill: #09002a;
      }

      .cls-7 {
        fill: #fff;
      }

      .cls-8 {
        fill: #ff7300;
      }

      .cls-9 {
        fill: #ffbd8f;
      }
    </style>
  </defs>
  <g id="Camada_1-2" data-name="Camada 1">
    <g>
      <path class="cls-6" d="m121.27,62.19c-10.17,0-17.89-5.23-21.49-7.67-9.81-6.65-19.05-19.08-15.82-24.55.69-1.17,1.72-1.62,2.72-2.05,1.01-.44,1.96-.86,2.49-2.04.81-1.81-.37-3.6-1.73-5.67-1.46-2.21-3.12-4.73-2.43-7.76,1.9-8.36,11.58-13.7,18.17-12.2,3.77.85,7.02,2.92,8.35,4.01,2.69,2.2,4.06,4.53,4.88,5.92.15.26.29.49.41.68,3.08,4.83,10.96,4.74,18.58,4.65,7.46-.08,15.17-.18,18.71,4.32,6.1,7.73-3.77,23.82-4.91,25.63-7.19,11.35-16.26,15.1-22.61,16.25-1.83.33-3.61.48-5.31.48ZM100.78.87c-5.98,0-13.34,4.77-14.93,11.78-.61,2.67.88,4.91,2.31,7.08,1.44,2.19,2.81,4.25,1.8,6.51-.67,1.49-1.87,2.02-2.94,2.48-.91.4-1.77.77-2.31,1.7-2.68,4.54,5.17,16.34,15.55,23.38,4.46,3.02,13.72,9.3,26.16,7.06,6.17-1.12,15.01-4.77,22.03-15.86.44-.7,10.79-17.24,4.96-24.62-3.28-4.16-10.78-4.07-18.02-3.99-7.87.09-15.99.18-19.33-5.05-.13-.2-.27-.43-.42-.71-.79-1.34-2.11-3.59-4.68-5.69-.14-.11-3.47-2.81-7.99-3.83-.7-.16-1.43-.23-2.19-.23Z"/>
      <g>
        <path class="cls-6" d="m154.59,20.1c5.97,7.56-4.15,23.87-4.94,25.12-1.67,2.63-8.6,13.58-22.32,16.06-12.61,2.28-22.14-4.19-26.48-7.12-10.16-6.89-18.6-19.03-15.68-23.96,1.31-2.22,4.09-1.6,5.23-4.14,1.85-4.15-5.41-7.92-4.14-13.51,1.89-8.32,11.45-13.28,17.64-11.87,4.02.91,7.23,3.15,8.17,3.92,3.14,2.56,4.43,5.3,5.19,6.5,6.26,9.82,30.32.13,37.32,9Z"/>
        <g id="_10" data-name="10">
          <g>
            <g>
              <path class="cls-9" d="m130.9,239.65c.02.6,0,1.2-.11,1.79-1.59,9.23-7.33,14.79-10.99,14.31-3.86-.5-8.27-8.07-6.63-18.26-3.75-11.91-8.82-33.83-4.31-60.45,2.33-13.75,6.58-24.99,10.54-33.31l24.05,27.46c-3.63,22.2-6.58,34.16-8.71,41.08-.65,2.13-2.67,8.45-3.5,17.14-.4,4.17-.41,7.71-.33,10.23Z"/>
              <path class="cls-9" d="m118.21,323.35c-3.12-.09-6.25-.18-9.37-.27.09-2.33.19-5.96.09-10.38-.49-22.69-5.31-30.85-3.99-44.49.55-5.66,2.31-13.82,8.05-23.46,5.98-1.4,11.96-2.8,17.94-4.2-2.16,9.2-4.17,18.86-5.97,28.97-3.39,19.13-5.52,37.16-6.76,53.83Z"/>
              <path class="cls-9" d="m119.9,332.48c.04.2.12.69-.03,1.27-.29,1.1-1.27,1.94-2.46,1.94h-16.66c-.12-.46-.22-1.14,0-1.86.48-1.58,2.17-2.27,2.84-2.62,1.63-.85,3.71-2.96,5.19-8.77,3.14.3,6.29.6,9.43.9.77,4.33,1.35,7.57,1.7,9.14Z"/>
              <path class="cls-9" d="m204.85,335.59c-12.45.04-24.91.07-37.36.11-.36-1.4-.65-3.5.21-5.74.32-.85.69-1.41.88-1.72.98-1.58,2.15-4.24,2.78-8.94,2.26-.26,4.52-.52,6.77-.78,8.55,11.51,13.39,13.82,16.26,13.65,2.02-.12,3.97,1,5.99,1.02,1.3.01,2.9-.11,3.83.92.42.48.57,1.05.63,1.48Z"/>
              <path class="cls-9" d="m173.12,236.86c-.91,4.93-2.98,16.1-7.26,16.53-4.99.49-10.05-13.96-10.8-16.14-6.48-10.67-18.2-83.51-16.35-92.53,9.01,5.2,18.02,10.39,27.03,15.59,11.36,38.99,9.85,63.19,7.38,76.56Z"/>
              <path class="cls-9" d="m179.77,320.67c-2.83.24-5.65.47-8.48.71-.47-2.29-1.24-5.83-2.39-10.1-5.94-22.06-12.44-28.96-14.5-42.25-.92-5.93-1.23-14.94,2.6-26.7,5.34-2.12,10.69-4.25,16.03-6.37.15,9.55.51,19.4,1.12,29.55,1.17,19.53,3.14,37.95,5.61,55.16Z"/>
              <path class="cls-1" d="m166.93,317.92c4.09-.43,8.19-.85,12.28-1.28,2.68-30.66,3.05-67.15-2.24-107.71-2.17-16.64-5.07-32.21-8.38-46.63-9.86,2.8-19.73,5.59-29.59,8.39,4.77,24.91,9.53,49.83,14.3,74.74-.72,4.25-1.21,8.82-1.38,13.67-.86,25.36,7.84,45.95,15.01,58.82Z"/>
              <path class="cls-1" d="m106.24,318.42h17.46c3.41-24.77,6.82-49.55,10.23-74.32,2.99-22.86,5.99-45.72,8.98-68.58,2.89-2.8,5.79-5.6,8.68-8.4-13.25-1.08-26.51-2.15-39.76-3.23-3.04,11.68-5.8,27.21-5.58,45.54.14,11.88,1.51,22.39,3.24,31.17-1.66,4.53-3.16,9.44-4.38,14.72-5.84,25.21-2.78,47.6,1.14,63.09Z"/>
              <path class="cls-9" d="m118.16,144.37c-1.62,17.89,8.96,32.04,19.44,33.55,11.85,1.7,28.03-12.17,27.5-33.55-.32-7.98-.63-15.95-.95-23.93,1.2-2.29,2.37-4.69,3.48-7.21,7.17-16.29,9.63-32.11,10.11-45.24-6.73-3-18.84-7.33-34.45-7.21-15.85.12-28.06,4.77-34.76,7.92.52,10.93,2.33,24.09,6.95,38.3,1.37,4.21,2.87,8.14,4.42,11.8-.58,8.52-1.16,17.05-1.74,25.57Z"/>
              <path class="cls-2" d="m145.58,73.51c-.83,1.71-2.52,2.39-3.63,1.9-.93-.41-1.21-1.53-1.26-1.74l4.9-.16Z"/>
              <path class="cls-2" d="m166.14,73.37c-1.13.79-3.07,1.91-5.69,2.42-4.27.83-7.71-.46-9.06-1.05l14.75-1.37Z"/>
              <path class="cls-2" d="m134.66,74.96c-1.28.53-3.4,1.22-6.07,1.17-4.35-.08-7.44-2.07-8.63-2.94l14.71,1.77Z"/>
              <path class="cls-9" d="m129.89,66.73l21.86-4.05c-2.49-8.65-4.97-17.29-7.46-25.94l-17.29,3.21c.61,1.14,1.32,2.64,2,4.46,1.06,2.82,1.98,6.4,2.22,10.6.04.68.05,1.35.04,1.98-.01,4.02-.69,7.37-1.36,9.75Z"/>
              <path class="cls-2" d="m131.26,56.99c.11,0,.23-.02.35-.04,3.72-.69,5.9-5.75,4.87-11.33-.16-.87-.39-1.71-.68-2.47l-6.8,1.26c1.06,2.82,1.98,6.4,2.22,10.6.04.68.05,1.35.04,1.98Z"/>
              <path class="cls-9" d="m117.96,41.15c.69,5.58,1.08,8.38,2.78,10.24,4.45,4.88,15.78,1.21,19.59-2.07,1.83-1.58,3.1-3.53,3.1-3.53.72-1.19,1.26-2.29,1.61-3.2.76-2.16,1.5-4.93,1.83-8.27.54-5.59-.38-10.27-1.27-13.2-1.71-1.24-6.48-4.45-13.41-4.67-6.31-.17-10.92,2.26-12.77,3.34-.24,1.79-.46,3.88-.64,6.21-.05.58-.07,1.16-.12,1.74-.03.19-.02.39-.05.58-.02.43-.04.85-.06,1.32v.35c-.08,1.47-.08,2.36-.09,3.1.05,1.23.14,1.46.09,2.28-.14,1.28-.44,1.64-.66,2.77-.15,1.13-.07,1.97.08,3.01Z"/>
              <path class="cls-2" d="m134.11,29.65s-.68-.24-1.34-.29c-1.08-.09-3.38.15-6.32.79-.14-.21-.49-.77-.5-1.57,0-.68.24-1.18.37-1.4,1.96.13,3.4.07,4.41-.01.38-.03,1.51-.14,2.84.24.64.18.91.38,1.04.48.93.71,1.07,1.9,1.1,2.3-.41-.16-.95-.36-1.61-.54Z"/>
              <path class="cls-2" d="m118.6,28.33c1.12-.12,2.54-.26,4.24-.29.07-.27.27-.9.09-1.67-.14-.65-.51-1.1-.67-1.25-1.41.44-2.6.72-3.48.88-.05.58-.07,1.16-.12,1.74-.03.19-.02.39-.05.58Z"/>
              <path class="cls-2" d="m124.18,40.81c-.14.08-1.02.6-2.05.25-.67-.22-1.04-.69-1.18-.88l3.24.62Z"/>
              <path class="cls-7" d="m120.7,44.78c-.28.77.96,2.02,2.22,2.48.28.1,1.93.7,2.66-.2.53-.65.33-1.76-.22-2.4-.61-.7-1.53-.68-2.33-.67-.47,0-2.06.04-2.33.78Z"/>
              <g>
                <path class="cls-9" d="m167.83,65.38c.43,9.94.86,19.88,1.29,29.82,1.42,2.74,2.86,5.52,4.28,8.26,1.1,2.09,2.16,4.21,3.27,6.3,2.78,5.35,5.55,10.73,8.32,16.08l12.69-4.47c-1.94-6.88-3.88-12.94-5.58-17.97-.69-2.01-1.32-3.86-1.92-5.54-9.15-25.58-14.36-31.11-19.81-32.24-1.06-.24-2-.25-2.55-.24Z"/>
                <path class="cls-2" d="m173.4,103.46c1.1,2.09,2.16,4.21,3.27,6.3,5.14-2.11,10.33-4.21,15.44-6.36-5.77-.21-11.54-.46-17.27-.7-.48.26-.96.49-1.44.75Z"/>
                <path class="cls-8" d="m168.41,107.43c7.9-1.34,15.8-2.68,23.69-4.01-.18-2.34-2.96-32.91-21.66-39.47-1.98-.7-4.32-1.18-7.06-1.22.4,4.74.81,9.47,1.21,14.21,1.27,10.17,2.55,20.33,3.82,30.5Z"/>
              </g>
              <g>
                <path class="cls-9" d="m117.41,66.71c-.43,9.94-.86,19.88-1.29,29.82-1.42,2.74-2.86,5.52-4.28,8.26-1.1,2.09-2.16,4.21-3.27,6.3-2.78,5.35-5.55,10.73-8.32,16.08l-12.69-4.47c1.94-6.88,3.88-12.94,5.57-17.97.69-2.01,1.32-3.86,1.92-5.54,9.15-25.58,14.36-31.11,19.81-32.24,1.06-.24,2-.25,2.55-.24Z"/>
                <path class="cls-2" d="m111.84,104.78c-1.1,2.09-2.16,4.21-3.27,6.3-5.14-2.11-10.33-4.21-15.44-6.36,5.77-.21,11.54-.46,17.27-.7.48.26.96.49,1.44.75Z"/>
                <path class="cls-8" d="m116.82,108.76c-7.9-1.34-15.8-2.68-23.69-4.01.18-2.34,2.96-32.91,21.66-39.47,1.98-.7,4.32-1.18,7.06-1.22l-1.21,14.21c-1.27,10.17-2.55,20.33-3.82,30.5Z"/>
              </g>
              <path class="cls-8" d="m103.91,167.95c2.18,2.17,20.93,20.22,46.06,15.96,11.77-2,19.98-8.05,24.11-11.64-.8-28.62-1.59-57.24-2.39-85.86,1.42-6.42,2.84-12.84,4.26-19.25-2.33-1.25-4.99-2.5-7.98-3.62-6.45-2.41-12.36-3.44-17.08-3.85.69,5.92-3.16,11.06-7.86,11.96-5.46,1.04-11.79-3.71-11.99-10.79-5.11.39-11.79,1.68-18.6,5.42-1.41.77-2.72,1.59-3.91,2.42,1.86,5.55,3.72,11.11,5.58,16.66-3.39,27.53-6.79,55.06-10.18,82.59Z"/>
              <g>
                <path class="cls-2" d="m133.61,34.45c-2.09-.23-3.59-.26-4.49-.1-.04,0-.28.05-.63.04-.63-.01-1.26-.18-1.86-.5-.11-.06-.15-.19-.09-.29.06-.11.19-.15.29-.09.54.29,1.1.44,1.66.45.31.01.52-.03.54-.03.94-.17,2.48-.13,4.59.1.12.01.21.12.19.24-.01.11-.11.19-.22.19Z"/>
                <path class="cls-2" d="m129.38,35.28c0,.8.57,1.45,1.27,1.45s1.27-.65,1.27-1.45-.57-1.45-1.27-1.45-1.27.65-1.27,1.45Z"/>
              </g>
              <g>
                <path class="cls-2" d="m122.65,34.2c-2.09-.22-3.59-.26-4.49-.1-.07.01-.31.05-.63.04-.29,0-.58-.05-.86-.12-.12-.03-.19-.15-.16-.27.03-.12.15-.18.27-.16.25.06.5.1.76.1.3,0,.51-.03.55-.03.93-.17,2.48-.13,4.59.1.12.01.21.12.19.24-.01.11-.11.19-.22.19Z"/>
                <path class="cls-2" d="m118.42,35.04c0,.8.57,1.45,1.27,1.45s1.27-.65,1.27-1.45-.57-1.45-1.27-1.45-1.27.65-1.27,1.45Z"/>
              </g>
              <path class="cls-7" d="m169.55,313.98c-.08,0-.16-.05-.2-.13-5.26-11.95-8.61-24.56-9.96-37.48-1.04-9.94-.87-20.03.5-29.98.02-.12.13-.21.25-.19.12.02.2.13.19.25-1.36,9.91-1.53,19.97-.5,29.88,1.34,12.87,4.68,25.43,9.92,37.34.05.11,0,.24-.11.29-.03.01-.06.02-.09.02Z"/>
              <path class="cls-7" d="m160.06,241.37c-.1,0-.2-.07-.21-.18l-10.09-57.24c-.02-.12.06-.23.18-.25.12-.02.23.06.25.18l10.09,57.24c.02.12-.06.23-.18.25-.01,0-.03,0-.04,0Z"/>
              <path class="cls-7" d="m108.4,316.64c-.1,0-.19-.07-.21-.17-3.76-16.39-4.16-32.83-1.19-48.87,1.34-7.21,3.37-14.36,6.05-21.25.04-.11.17-.17.28-.12.11.04.17.17.12.28-2.67,6.86-4.7,13.99-6.03,21.17-2.96,15.98-2.56,32.37,1.19,48.7.03.12-.05.23-.16.26-.02,0-.03,0-.05,0Z"/>
              <path class="cls-7" d="m112.99,244.97c-.1,0-.19-.07-.21-.17-3.15-13.24-4.08-26.74-2.77-40.13.84-8.53,2.6-17.03,5.25-25.23.04-.11.16-.18.27-.14.11.04.18.16.14.27-2.63,8.18-4.39,16.64-5.23,25.14-1.31,13.34-.38,26.79,2.76,39.98.03.12-.04.23-.16.26-.02,0-.03,0-.05,0Z"/>
              <path class="cls-4" d="m164.85,336.37h41.52c.11-.87.15-2.19-.37-3.62-.61-1.65-1.96-3.42-5.82-5.28-6.54-3.15-14.3-3.68-17.94-3.78-.17,4.55-1.18,5.74-2.02,6.03-1.98.69-4.04-3.25-7.73-3.24-2.19,0-3.94,1.39-4.99,2.41-.42.2-1.95,1-2.74,2.83-.99,2.27-.07,4.33.08,4.66Z"/>
              <path class="cls-2" d="m165.22,337.62h40.73c.8,0,1.45-.65,1.45-1.45s-.65-1.45-1.45-1.45h-40.73c-.8,0-1.45.65-1.45,1.45s.65,1.45,1.45,1.45Z"/>
              <path class="cls-2" d="m189.69,329.34c.52,0,.94-.42.94-.94v-4.08c0-.52-.42-.94-.94-.94s-.94.42-.94.94v4.08c0,.52.42.94.94.94Z"/>
              <path class="cls-2" d="m186.94,329.15c.52,0,.94-.42.94-.94v-4.08c0-.52-.42-.94-.94-.94s-.94.42-.94.94v4.08c0,.52.42.94.94.94Z"/>
              <path class="cls-2" d="m192.19,329.52c.52,0,.94-.42.94-.94v-4.08c0-.52-.42-.94-.94-.94s-.94.42-.94.94v4.08c0,.52.42.94.94.94Z"/>
              <path class="cls-4" d="m97.76,336h26.81c-.37-1.32-.91-2.84-1.7-4.45-1.36-2.76-2.98-4.84-4.32-6.3-1.27-.52-4.56-1.65-8.4-.6-1.6.44-2.85,1.14-3.74,1.75-1.18.46-2.99,1.35-4.72,3.01-2.56,2.46-3.55,5.24-3.92,6.59Z"/>
              <rect class="cls-2" x="96.83" y="334.71" width="28.55" height="2.91" rx=".68" ry=".68" transform="translate(222.21 672.33) rotate(180)"/>
              <path class="cls-2" d="m108.71,327.3c.03.52.48.91,1,.88l4.08-.26c.52-.03.91-.48.88-1-.03-.52-.48-.91-1-.88l-4.08.26c-.52.03-.91.48-.88,1Z"/>
              <path class="cls-2" d="m109.26,324.61c.03.52.48.91,1,.88l4.08-.26c.52-.03.91-.48.88-1s-.48-.91-1-.88l-4.08.26c-.52.03-.91.48-.88,1Z"/>
              <path class="cls-9" d="m105.28,149.86c-3.14.79-6.27,1.58-9.41,2.36-1.56-2.82-3.16-5.01-4.35-6.51-6.22-7.83-6.56-9.72-6.95-12.13-.34-2.09-.37-5.97,3.13-11.39,4.17,1.01,8.34,2.01,12.51,3.02,1.28,2.12,1.83,3.96,2.1,5.16,1.47,6.62-1.82,10.87,1,16.56.67,1.36,1.47,2.36,1.98,2.93Z"/>
              <path class="cls-9" d="m178.35,150.15c3.14.77,6.28,1.55,9.42,2.32,1.65-3.13,3.33-5.57,4.57-7.24,6.49-8.73,6.89-10.81,7.34-13.45.4-2.29.54-6.54-2.84-12.37-4.23,1.22-8.47,2.43-12.7,3.65-1.35,2.35-1.95,4.38-2.26,5.7-1.67,7.27,1.53,11.83-1.47,18.13-.72,1.5-1.55,2.62-2.07,3.26Z"/>
              <path class="cls-9" d="m175.37,154.14c-.01.36.07.63.25.79.78.74,3.43-.51,7.94-3.74-.18,2.55,1.5,4.28,2.71,4.22,1.12-.05,2.48-1.63,2.46-3.85,2.37,3.15,4.96,4.52,6.22,3.8.22-.12.9-.6.99-2.42,1.03.04,2.05.08,3.08.12.45.31,3.01,2.06,3.62,1.48.73-.7-1.79-4.33-1.94-4.53-1.6-.48-3.2-.96-4.8-1.43-.68-.97-3.22-4.35-7.87-5.46-6.91-1.66-12.22,3.17-12.65,3.57-.81.13-5.96.99-7.47,4.76-.04.09-.91,2.33-.12,2.93.93.72,3.67-1.25,5.99-3.18,1.27-.1,2.54-.21,3.8-.31-.73,1.09-1.46,2.17-2.2,3.26Z"/>
              <path class="cls-9" d="m110.11,154.14c.01.36-.07.63-.25.79-.78.74-3.43-.51-7.94-3.74.18,2.55-1.5,4.28-2.71,4.22-1.12-.05-2.48-1.63-2.46-3.85-2.37,3.15-4.96,4.52-6.22,3.8-.22-.12-.9-.6-.99-2.42-1.03.04-2.05.08-3.08.12-.45.31-3.01,2.06-3.62,1.48-.73-.7,1.79-4.33,1.94-4.53l4.8-1.43c.68-.97,3.22-4.35,7.87-5.46,6.91-1.66,12.22,3.17,12.65,3.57.81.13,5.96.99,7.47,4.76.04.09.91,2.33.12,2.93-.93.72-3.67-1.25-5.99-3.18-1.27-.1-2.54-.21-3.8-.31.73,1.09,1.46,2.17,2.2,3.26Z"/>
            </g>
            <g>
              <g>
                <rect class="cls-2" x="45.38" y="159.47" width="203.28" height="11.22" transform="translate(294.04 330.15) rotate(180)"/>
                <g>
                  <rect class="cls-7" x="63.11" y="154.93" width="174.22" height="4.53" transform="translate(300.43 314.4) rotate(180)"/>
                  <g>
                    <g>
                      <path class="cls-2" d="m229.23,159.69c-.12,0-.22-.1-.22-.22v-4.53c0-.12.1-.22.22-.22s.22.1.22.22v4.53c0,.12-.1.22-.22.22Z"/>
                      <path class="cls-2" d="m220.38,159.69c-.12,0-.22-.1-.22-.22v-4.53c0-.12.1-.22.22-.22s.22.1.22.22v4.53c0,.12-.1.22-.22.22Z"/>
                    </g>
                    <g>
                      <path class="cls-2" d="m211.96,159.69c-.12,0-.22-.1-.22-.22v-4.53c0-.12.1-.22.22-.22s.22.1.22.22v4.53c0,.12-.1.22-.22.22Z"/>
                      <path class="cls-2" d="m203.11,159.69c-.12,0-.22-.1-.22-.22v-4.53c0-.12.1-.22.22-.22s.22.1.22.22v4.53c0,.12-.1.22-.22.22Z"/>
                    </g>
                  </g>
                  <g>
                    <g>
                      <path class="cls-2" d="m194.02,159.69c-.12,0-.22-.1-.22-.22v-4.53c0-.12.1-.22.22-.22s.22.1.22.22v4.53c0,.12-.1.22-.22.22Z"/>
                      <path class="cls-2" d="m185.17,159.69c-.12,0-.22-.1-.22-.22v-4.53c0-.12.1-.22.22-.22s.22.1.22.22v4.53c0,.12-.1.22-.22.22Z"/>
                    </g>
                    <g>
                      <path class="cls-2" d="m176.76,159.69c-.12,0-.22-.1-.22-.22v-4.53c0-.12.1-.22.22-.22s.22.1.22.22v4.53c0,.12-.1.22-.22.22Z"/>
                      <path class="cls-2" d="m167.9,159.69c-.12,0-.22-.1-.22-.22v-4.53c0-.12.1-.22.22-.22s.22.1.22.22v4.53c0,.12-.1.22-.22.22Z"/>
                    </g>
                  </g>
                  <g>
                    <g>
                      <path class="cls-2" d="m157.64,159.69c-.12,0-.22-.1-.22-.22v-4.53c0-.12.1-.22.22-.22s.22.1.22.22v4.53c0,.12-.1.22-.22.22Z"/>
                      <path class="cls-2" d="m148.79,159.69c-.12,0-.22-.1-.22-.22v-4.53c0-.12.1-.22.22-.22s.22.1.22.22v4.53c0,.12-.1.22-.22.22Z"/>
                    </g>
                    <g>
                      <path class="cls-2" d="m140.37,159.69c-.12,0-.22-.1-.22-.22v-4.53c0-.12.1-.22.22-.22s.22.1.22.22v4.53c0,.12-.1.22-.22.22Z"/>
                      <path class="cls-2" d="m131.52,159.69c-.12,0-.22-.1-.22-.22v-4.53c0-.12.1-.22.22-.22s.22.1.22.22v4.53c0,.12-.1.22-.22.22Z"/>
                    </g>
                  </g>
                  <g>
                    <g>
                      <path class="cls-2" d="m122.43,159.69c-.12,0-.22-.1-.22-.22v-4.53c0-.12.1-.22.22-.22s.22.1.22.22v4.53c0,.12-.1.22-.22.22Z"/>
                      <path class="cls-2" d="m113.58,159.69c-.12,0-.22-.1-.22-.22v-4.53c0-.12.1-.22.22-.22s.22.1.22.22v4.53c0,.12-.1.22-.22.22Z"/>
                    </g>
                    <g>
                      <path class="cls-2" d="m105.17,159.69c-.12,0-.22-.1-.22-.22v-4.53c0-.12.1-.22.22-.22s.22.1.22.22v4.53c0,.12-.1.22-.22.22Z"/>
                      <path class="cls-2" d="m96.32,159.69c-.12,0-.22-.1-.22-.22v-4.53c0-.12.1-.22.22-.22s.22.1.22.22v4.53c0,.12-.1.22-.22.22Z"/>
                    </g>
                  </g>
                  <g>
                    <g>
                      <path class="cls-2" d="m87.37,159.69c-.12,0-.22-.1-.22-.22v-4.53c0-.12.1-.22.22-.22s.22.1.22.22v4.53c0,.12-.1.22-.22.22Z"/>
                      <path class="cls-2" d="m78.52,159.69c-.12,0-.22-.1-.22-.22v-4.53c0-.12.1-.22.22-.22s.22.1.22.22v4.53c0,.12-.1.22-.22.22Z"/>
                    </g>
                    <path class="cls-2" d="m70.1,159.69c-.12,0-.22-.1-.22-.22v-4.53c0-.12.1-.22.22-.22s.22.1.22.22v4.53c0,.12-.1.22-.22.22Z"/>
                  </g>
                </g>
                <g>
                  <g>
                    <rect class="cls-2" x="227.07" y="152.91" width="3.93" height="2.03" transform="translate(458.06 307.84) rotate(180)"/>
                    <rect class="cls-2" x="218.21" y="152.91" width="3.93" height="2.03" transform="translate(440.35 307.84) rotate(180)"/>
                    <rect class="cls-2" x="209.37" y="152.91" width="3.93" height="2.03" transform="translate(422.66 307.84) rotate(180)"/>
                    <rect class="cls-2" x="200.51" y="152.91" width="3.93" height="2.03" transform="translate(404.95 307.84) rotate(180)"/>
                  </g>
                  <g>
                    <rect class="cls-2" x="191.98" y="152.91" width="3.93" height="2.03" transform="translate(387.9 307.84) rotate(180)"/>
                    <rect class="cls-2" x="183.13" y="152.91" width="3.93" height="2.03" transform="translate(370.19 307.84) rotate(180)"/>
                    <rect class="cls-2" x="174.28" y="152.91" width="3.93" height="2.03" transform="translate(352.5 307.84) rotate(180)"/>
                    <rect class="cls-2" x="165.43" y="152.91" width="3.93" height="2.03" transform="translate(334.79 307.84) rotate(180)"/>
                  </g>
                </g>
                <g>
                  <rect class="cls-2" x="155.75" y="152.91" width="3.93" height="2.03" transform="translate(315.43 307.84) rotate(180)"/>
                  <rect class="cls-2" x="146.9" y="152.91" width="3.93" height="2.03" transform="translate(297.72 307.84) rotate(180)"/>
                  <rect class="cls-2" x="138.05" y="152.91" width="3.93" height="2.03" transform="translate(280.03 307.84) rotate(180)"/>
                  <rect class="cls-2" x="129.19" y="152.91" width="3.93" height="2.03" transform="translate(262.32 307.84) rotate(180)"/>
                </g>
                <rect class="cls-2" x="120.67" y="152.91" width="3.93" height="2.03" transform="translate(245.27 307.84) rotate(180)"/>
                <rect class="cls-2" x="111.81" y="152.91" width="3.93" height="2.03" transform="translate(227.56 307.84) rotate(180)"/>
                <rect class="cls-2" x="102.97" y="152.91" width="3.93" height="2.03" transform="translate(209.87 307.84) rotate(180)"/>
                <rect class="cls-2" x="94.11" y="152.91" width="3.93" height="2.03" transform="translate(192.16 307.84) rotate(180)"/>
                <rect class="cls-2" x="85.4" y="152.91" width="3.93" height="2.03" transform="translate(174.74 307.84) rotate(180)"/>
                <rect class="cls-2" x="76.56" y="152.91" width="3.93" height="2.03" transform="translate(157.05 307.84) rotate(180)"/>
                <rect class="cls-2" x="67.7" y="152.91" width="3.93" height="2.03" transform="translate(139.34 307.84) rotate(180)"/>
              </g>
              <g>
                <g>
                  <polygon class="cls-2" points="93.41 343.34 100.12 343.34 147 267.08 150.4 261.61 206.7 170 201.79 167 147 256.11 143.65 261.61 93.41 343.34"/>
                  <polygon class="cls-2" points="87.35 170 143.65 261.61 147 267.08 193.89 343.34 200.63 343.34 150.4 261.61 147 256.11 92.22 167 87.35 170"/>
                </g>
                <path class="cls-2" d="m190.31,343.34h13.87c2.37,0,4.31-1.94,4.31-4.31s-1.94-4.31-4.31-4.31h-13.87c-2.37,0-4.31,1.94-4.31,4.31s1.94,4.31,4.31,4.31Z"/>
                <path class="cls-2" d="m89.89,343.34h13.87c2.37,0,4.31-1.94,4.31-4.31s-1.94-4.31-4.31-4.31h-13.87c-2.37,0-4.31,1.94-4.31,4.31s1.94,4.31,4.31,4.31Z"/>
              </g>
            </g>
            <path class="cls-2" d="m171.46,106.9c-.12,0-.22-.1-.22-.21l-.37-23.69c0-.12.09-.22.21-.22.12,0,.22.1.22.21l.37,23.69c0,.12-.09.22-.21.22h0Z"/>
            <path class="cls-2" d="m111.52,106.45c-.11,0-.21-.09-.22-.2l-1.32-21.15c0-.12.08-.22.2-.23.11,0,.22.08.23.2l1.32,21.15c0,.12-.08.22-.2.23h-.01Z"/>
          </g>
          <g>
            <g>
              <rect class="cls-2" x="48.14" y="314.6" width="2.54" height="38.19" rx=".62" ry=".62" transform="translate(363.06 457.85) rotate(120.02)"/>
              <rect class="cls-2" x="15.68" y="314.6" width="2.54" height="38.19" rx=".62" ry=".62" transform="translate(-263.52 515.31) rotate(-120.02)"/>
            </g>
            <path class="cls-5" d="m33.16,341.79c.71,0,1.26-.55,1.26-1.23V55.3c0-.68-.55-1.23-1.23-1.23-.71,0-1.26.55-1.26,1.23v285.27c0,.68.55,1.23,1.23,1.23Z"/>
          </g>
          <rect class="cls-7" x="8.99" y="59.14" width="83.1" height="3.11" rx=".83" ry=".83" transform="translate(113.71 108.11) rotate(166.67)"/>
          <g>
            <path class="cls-2" d="m69.52,53.1l5.02-1.48-1.55-5.26-5.02,1.48c-1.45.43-2.28,1.95-1.86,3.41.43,1.45,1.95,2.28,3.41,1.86Z"/>
            <g>
              <rect class="cls-3" x="69.51" y="43.1" width="25.46" height="6.77" transform="translate(174.27 67.82) rotate(163.57)"/>
              <path class="cls-2" d="m90.77,44.07c.93,3.17,4.26,4.98,7.42,4.04s4.98-4.26,4.04-7.42-4.26-4.98-7.42-4.04c-3.17.93-4.98,4.26-4.04,7.42Z"/>
              <path class="cls-4" d="m92.42,48.27c.65-.19,1.03-.88.84-1.54l-1.9-6.43c-.19-.65-.88-1.03-1.54-.84-.65.19-1.03.88-.84,1.54l1.9,6.43c.19.65.88,1.03,1.54.84Z"/>
            </g>
          </g>
          <path class="cls-2" d="m79.53,56.19c2.27-.6,4.53-1.21,6.8-1.81-1.05-4.02-2.09-8.05-3.14-12.07-2.26.62-4.52,1.23-6.78,1.85,1.04,4.01,2.08,8.02,3.12,12.03Z"/>
          <path class="cls-5" d="m39.47,339.66c-6.64-7.54-11.15-15.82-13.4-24.62-5.52-21.6,3.87-41.65,12.16-59.34,8.01-17.11,14.93-31.89,7.84-44.8-2.35-4.27-4.63-5.4-7.52-6.83-2.87-1.42-6.45-3.2-11.05-8.73-11.23-13.48-16.77-35.51-14.45-57.49,2.05-19.39,9.74-35.63,21.11-44.56,4.29-3.37,9.28-5.83,13.69-8,7.48-3.68,13.94-6.86,14.46-12.98.33-3.83-1.68-8.19-3.29-11.69-1.63-3.53-2.8-6.08-1.38-7.24.57-.46,1.29-.44,2.2-.42,1.03.03,2.46.07,4.4-.57,1.01-.33,2-.8,2.92-1.37l.46.74c-.98.61-2.03,1.1-3.11,1.46-2.09.69-3.6.65-4.7.62-.79-.02-1.31-.03-1.63.22-.9.73.33,3.38,1.62,6.2,1.65,3.59,3.71,8.06,3.36,12.12-.57,6.6-7.23,9.89-14.94,13.69-4.58,2.26-9.32,4.59-13.54,7.9-11.18,8.78-18.76,24.81-20.78,43.96-2.3,21.75,3.16,43.53,14.25,56.84,4.49,5.39,7.83,7.04,10.77,8.5,2.91,1.44,5.42,2.69,7.9,7.2,7.31,13.29.3,28.26-7.81,45.59-8.22,17.56-17.54,37.47-12.1,58.76,2.21,8.67,6.66,16.83,13.21,24.26l-.65.58Z"/>
        </g>
        <g>
          <path class="cls-2" d="m123.25,34.84c0,2.57-2.08,4.65-4.65,4.65s-4.65-2.08-4.65-4.65,2.08-4.65,4.65-4.65,4.65,2.08,4.65,4.65Z"/>
          <path class="cls-2" d="m134.82,35.04c0,2.57-2.08,4.65-4.65,4.65s-4.65-2.08-4.65-4.65,2.08-4.65,4.65-4.65,4.65,2.08,4.65,4.65Z"/>
          <rect class="cls-2" x="122.26" y="33.97" width="4.96" height="1.74"/>
          <rect class="cls-2" x="132.83" y="30.66" width="14.69" height="1.74" transform="translate(-1.97 52.47) rotate(-21.06)"/>
        </g>
      </g>
      <path class="cls-6" d="m147.03,16.47c6.13,8.27,2.21,20.56.16,20.77-1.35.13-1.34-4.97-6.1-9.15-2.58-2.26-4.73-2.65-10.6-4.5-10.91-3.45-16.54-5.16-16.54-7.12,0-3.93,7.4-7.12,16.54-7.12,2.2,0,11.33.09,16.54,7.12Z"/>
    </g>
  </g>
</svg>