<?xml version="1.0" encoding="UTF-8"?>
<svg id="Camada_2" data-name="Camada 2" xmlns="http://www.w3.org/2000/svg" viewBox="0 0 182.64 372.59">
  <defs>
    <style>
      .cls-1 {
        fill: #fac463;
      }

      .cls-1, .cls-2, .cls-3, .cls-4, .cls-5, .cls-6, .cls-7, .cls-8, .cls-9, .cls-10, .cls-11 {
        stroke-width: 0px;
      }

      .cls-12 {
        stroke: #161623;
        stroke-width: 2.62px;
      }

      .cls-12, .cls-13, .cls-14, .cls-15, .cls-16 {
        fill: none;
      }

      .cls-12, .cls-14, .cls-16 {
        stroke-linecap: round;
        stroke-linejoin: round;
      }

      .cls-13 {
        stroke: #2c3044;
        stroke-width: .72px;
      }

      .cls-13, .cls-15 {
        stroke-miterlimit: 10;
      }

      .cls-2 {
        fill: #d4d4d4;
      }

      .cls-14 {
        stroke: #e19580;
        stroke-width: .57px;
      }

      .cls-15 {
        stroke: #ebaa45;
        stroke-width: .71px;
      }

      .cls-3 {
        fill: #171223;
      }

      .cls-16 {
        stroke: #171e21;
        stroke-width: .65px;
      }

      .cls-4 {
        fill: #1a1a26;
      }

      .cls-5 {
        fill: #050324;
      }

      .cls-6 {
        fill: #171e21;
      }

      .cls-7 {
        fill: #161623;
      }

      .cls-8 {
        fill: #f7bd9f;
      }

      .cls-9 {
        fill: #fcbc9e;
      }

      .cls-10 {
        fill: #f3bd9f;
      }

      .cls-11 {
        fill: #e19580;
      }
    </style>
  </defs>
  <g id="Camada_1-2" data-name="Camada 1">
    <g>
      <g>
        <path class="cls-3" d="m163.89,73.71c-.68-10.52-5.62-12.52-11.44-18.48-1.54-1.58-1.74-3.94-.77-5.92,3.33-6.8-2.75-15.82-6.46-18.44-5.04-3.55-7.83-11.25-7.83-11.25,0,0-.19.87-.47,2.31-11.39-27.94-51.04-7.68-51.04-7.68,0,0-3.33,10.75-10.79,19.19-11.12,12.58,9.11,22.33,3.3,34.08-3.02,6.1-16.06,29.11,21,28.67,37.07-.44,65.71-3.52,64.49-22.48Z"/>
        <path class="cls-3" d="m84.43,25.48c2.17,15.01,12.81,29.46,27.49,29.46s26.58-12.3,26.58-27.47S126.6,0,111.92,0s-29.88,8.95-27.49,25.48Z"/>
        <g>
          <path class="cls-10" d="m121.79,67.45l-.1-27.18-19.49.09.1,27.18c.02,5.38,4.41,9.72,9.79,9.7h0c5.38-.02,9.72-4.41,9.7-9.79Z"/>
          <path class="cls-11" d="m122.38,41.72s-2.05,23.28-20.06,22.91l-.03-11.66,20.09-11.25Z"/>
        </g>
        <path class="cls-11" d="m95.68,38.21c0,3.75-3.04,6.8-6.8,6.8s-6.8-3.04-6.8-6.8,3.04-6.8,6.8-6.8,6.8,3.04,6.8,6.8Z"/>
        <path class="cls-10" d="m105.72,60.62h0c-10.44,0-18.98-6.3-18.98-16.73v-17.95c0-7.7,8.41-15.82,12.95-15.82l16.74,4.69c4.54,0,8.26,3.72,8.26,8.26v17.88c0,10.44-10.18,19.67-18.98,19.67Z"/>
        <g>
          <path class="cls-14" d="m96.61,36.88l-.4,4.31s.25,2.27,3.49,1.4"/>
          <path class="cls-6" d="m110.05,31.27c-.09.01-.18.02-.28.02l-6.8-.29c-.76-.03-1.35-.67-1.32-1.43.03-.76.67-1.35,1.43-1.32l6.8.29c.76.03,1.35.67,1.32,1.43-.03.66-.52,1.2-1.15,1.3Z"/>
          <path class="cls-6" d="m93.66,30.9c-.09.01-.18.02-.28.02l-4.16-.18c-.76-.03-1.35-.67-1.32-1.43.03-.76.67-1.35,1.43-1.32l4.16.18c.76.03,1.35.67,1.32,1.43-.03.66-.52,1.2-1.15,1.3Z"/>
          <path class="cls-16" d="m103.95,35.55s1.04,1.51,4.32,0"/>
          <path class="cls-16" d="m93.52,35.55s-1.61,1.64-4.1,0"/>
          <line class="cls-14" x1="97.59" y1="48.22" x2="99.2" y2="48.22"/>
        </g>
        <path class="cls-3" d="m114.11,9.85s-2.91,22.74,8.27,28.36l10.68-17.05-18.94-11.31Z"/>
        <path class="cls-10" d="m133.06,38.21c0,3.75-3.04,6.8-6.8,6.8s-6.8-3.04-6.8-6.8,3.04-6.8,6.8-6.8,6.8,3.04,6.8,6.8Z"/>
        <path class="cls-3" d="m116.44,14.81s-10.51,11.97-29.7,11.13c0,0-.91-19.4,19.68-17.01,20.59,2.39,10.01,5.88,10.01,5.88Z"/>
      </g>
      <g>
        <g>
          <path class="cls-8" d="m50.7,318.13l-6.51,26.62-9.41,18.59s10.56,2.3,15.15-6.42c4.59-8.72,3.44-12.85,3.44-12.85l9.95-25.94h-12.62Z"/>
          <path class="cls-4" d="m35.86,361.21s-10.12,4.39-11.28,9.36h21.92l3.93-5.73,2.66,5.73h2.69s2.52-20.09-2.39-26.51l-17.51,17.15Z"/>
        </g>
        <g>
          <path class="cls-8" d="m125.95,318.13l-3.39,26.62,9.28,18.59s-10.42,2.3-14.94-6.42c-4.53-8.72-3.4-12.85-3.4-12.85v-25.94s12.44,0,12.44,0Z"/>
          <path class="cls-4" d="m130.77,361.21s10.12,4.39,11.28,9.36h-21.92l-3.93-5.73-2.66,5.73h-2.69s-2.52-20.09,2.4-26.51l17.51,17.15Z"/>
        </g>
        <g>
          <path class="cls-5" d="m135.79,138.78s17.02,12.29,16.12,45.78c-.89,33.49-21.47,138.84-21.47,138.84h-22.41l.98-135.76-41.63,135.76h-23.19l17.21-117.55s12.31-56.9,25.47-67.07h48.91Z"/>
          <line class="cls-13" x1="133.21" y1="308.9" x2="107.95" y2="308.9"/>
          <line class="cls-13" x1="71.73" y1="309.23" x2="47" y2="308.9"/>
          <path class="cls-13" d="m129.93,139.04s24.68,21.76-6.36,170.03"/>
          <line class="cls-13" x1="109.02" y1="187.64" x2="109.02" y2="139.04"/>
          <path class="cls-13" d="m100.25,139.04v28.4c0,4.9,3.98,8.88,8.88,8.88h.07"/>
        </g>
      </g>
      <g>
        <g>
          <path class="cls-8" d="m58.21,139.85c-1.71-2.4-1.95-5.55-.62-8.18l20.3-40.26c.38-.54,1.2-1.64,1.2-1.64h.01c8.6-11.21,16.36-8.48,16.36-8.48l3.94,17.66-26.03,39.13c-3.21,4.33-12.02,6.17-15.15,1.78h0Z"/>
          <path class="cls-1" d="m97.09,70.68s-20.64,3.54-27.6,29.78l18.78,6.69,8.83-36.47Z"/>
          <g>
            <path class="cls-8" d="m70.41,126.41l-40.16-24.27-5.63,5.37,33.51,32.46c4.3,4.99,12.3,3.99,15.24-1.91h0c2.04-4.09.78-9.05-2.96-11.67Z"/>
            <path class="cls-9" d="m18.33,104.57c-.96,5.4,2.63,10.56,8.03,11.52,5.4.96,10.56-2.63,11.52-8.03.96-5.4-2.63-10.56-8.03-11.52-5.4-.96-10.56,2.63-11.52,8.03Z"/>
          </g>
          <line class="cls-15" x1="69.48" y1="100.47" x2="86.48" y2="106.52"/>
        </g>
        <g>
          <g>
            <path class="cls-8" d="m136.47,98.51s5.26-21.15,18.83-10.22l24.83,32.18c3.41,3.47,3.3,9.43-.08,12.92l-11.31-2.34-32.27-32.55Z"/>
            <path class="cls-8" d="m167.88,122.07l-22.66,23.36,5.95,7.49,27.15-17.75c5.58-3.98,5.78-12.61-.05-16.22h0c-4.04-2.5-7.31-.5-10.38,3.13Z"/>
            <path class="cls-8" d="m145.22,145.42l-5.17-1.32c-1.57-.4-3.23-.08-4.53.87l-6.13,4.47c-2.59,1.89-2.73,5.7-.3,7.78l3.29,2.81c1.85,1.58,4.57,1.59,6.42.02l5.38-4.54,6.99-2.61-5.95-7.49Z"/>
          </g>
          <path class="cls-1" d="m122.34,69.36s35.39,3.78,43.25,28.51l-28.65,11.35-14.6-39.86Z"/>
          <polyline class="cls-15" points="136.47 101.45 142.17 107.15 165.59 97.87"/>
        </g>
        <g>
          <path class="cls-1" d="m117.94,68.97s25.39,4.02,30.95,15.35l-13.1,54.46h-48.91l-2.12-59.59s7.6-7.78,18.68-10.92l14.5.7Z"/>
          <line class="cls-15" x1="86.48" y1="118.37" x2="85.1" y2="88.92"/>
        </g>
        <path class="cls-10" d="m114.83,68.82s5.58-1.37,16.04,2.19c0,0-7.01,4.77-18.78,6.22-3.86.48-5.75.55-9.33-.95-2.39-1-7.14-3.86-7.74-4.77,0,0,5.23-2.85,8.43-3.24,3.2-.39,11.39.55,11.39.55Z"/>
        <path class="cls-15" d="m95.01,71.51s3.99,6.3,17.07,5.72c13.08-.58,18.78-6.22,18.78-6.22"/>
      </g>
      <g>
        <g>
          <path class="cls-2" d="m38.01,50.35L2.86,76.31c-1.41,1.04-1.74,3-.75,4.44h0c.96,1.41,2.85,1.83,4.32.96l37.49-22.01-5.9-9.36Z"/>
          <path class="cls-7" d="m50.96,54.13c0,4.66-3.78,8.44-8.44,8.44s-8.44-3.78-8.44-8.44,3.78-8.44,8.44-8.44,8.44,3.78,8.44,8.44Z"/>
          <rect class="cls-2" x="26.47" y="86.94" width="4.79" height="279.16"/>
          <g>
            <path class="cls-7" d="m25.07,359.61l-22.92,6.78c-1.27.38-2.15,1.55-2.15,2.87v.32c0,1.68,1.38,3.03,3.06,3l49.33-1c1.67-.03,2.99-1.42,2.93-3.09h0c-.04-1.28-.89-2.39-2.12-2.77l-19.93-6.12h-8.21Z"/>
            <rect class="cls-7" x="24.07" y="356.56" width="9.59" height="6.1"/>
          </g>
          <circle class="cls-7" cx="28.87" cy="84.72" r="5.65"/>
          <line class="cls-12" x1="18.29" y1="63.3" x2="28.87" y2="83.48"/>
        </g>
        <path class="cls-9" d="m24.62,98.99s3.71,3.45,9.45.69c5.75-2.76-2.36,15.18-2.36,15.18,0,0-7.07,2.97-10-4.48-2.93-7.46,2.91-11.38,2.91-11.38Z"/>
      </g>
    </g>
  </g>
</svg>